<?xml version="1.0" encoding="utf-8"?>
<!-- Generator: Adobe Illustrator 17.0.0, SVG Export Plug-In . SVG Version: 6.00 Build 0)  -->
<!DOCTYPE svg PUBLIC "-//W3C//DTD SVG 1.1//EN" "http://www.w3.org/Graphics/SVG/1.1/DTD/svg11.dtd">
<svg version="1.1" id="Layer_1" xmlns="http://www.w3.org/2000/svg" xmlns:xlink="http://www.w3.org/1999/xlink" x="0px" y="0px"
	 width="700px" height="700px" viewBox="-769.297 1792.977 700 700" enable-background="new -769.297 1792.977 700 700"
	 xml:space="preserve">
<g>
	<circle fill="#4CB9C4" cx="-418.297" cy="2142.977" r="336.143"/>
</g>
<rect x="-719.654" y="2295.386" fill="none" width="598.714" height="156.156"/>
<text transform="matrix(1 0 0 1 -563.7841 2353.1353)"><tspan x="0" y="0" fill="#FFFFFF" font-family="'Cabin-SemiBold'" font-size="77">Business</tspan><tspan x="-3.966" y="67" fill="#FFFFFF" font-family="'Cabin-SemiBold'" font-size="77">Oriented</tspan></text>
<g>
	<path fill="#B7E3E7" d="M-505.147,2266.64v-112.572c0,0-51.287-44.822-51.287-105.278c0-60.453,52.325-133.942,131.545-133.942
		c79.219,0,133.885,47.468,136.738,102.987c5.539,46.065,35.247,108.09,35.247,108.09s0.006,8.339-7.293,9.38
		c-7.298,1.042-26.061,0-26.061,0l-1.044,48.989c0,0-3.121,41.697-38.562,41.697l-35.966,2.079l-0.52,38.571H-505.147z"/>
	<path fill="#398B93" d="M-343.582,2052.433c0,8.922,7.231,16.157,16.154,16.157c8.924,0,16.155-7.235,16.155-16.157
		c0-8.922-7.423-14.168-16.154-13.928C-336.159,2038.745-343.582,2043.511-343.582,2052.433z"/>
</g>
<rect x="-538.618" y="1948.337" fill="none" width="228.641" height="283.236"/>
<text transform="matrix(1 0 0 1 -515.1912 2205.9355)" fill="#398B93" font-family="'BrandonGrotesque-Medium'" font-size="368">£</text>
</svg>
