<?xml version="1.0" encoding="utf-8"?>
<!-- Generator: Adobe Illustrator 17.0.0, SVG Export Plug-In . SVG Version: 6.00 Build 0)  -->
<!DOCTYPE svg PUBLIC "-//W3C//DTD SVG 1.1//EN" "http://www.w3.org/Graphics/SVG/1.1/DTD/svg11.dtd">
<svg version="1.1" id="Layer_1" xmlns="http://www.w3.org/2000/svg" xmlns:xlink="http://www.w3.org/1999/xlink" x="0px" y="0px"
	 width="700px" height="700px" viewBox="0 0 700 700" enable-background="new 0 0 700 700" xml:space="preserve">
<g>
	<circle fill="#4CB9C4" cx="350" cy="350" r="336.143"/>
</g>
<rect x="48.643" y="502.409" fill="none" width="598.714" height="156.156"/>
<g enable-background="new    ">
	<path fill="#FFFFFF" d="M230.539,560.158h-20.021v-53.9h13.783c3.234,0,6.122,0.181,8.663,0.539c2.541,0.36,4.696,1.04,6.468,2.041
		c1.771,1.001,3.118,2.4,4.042,4.196c0.925,1.798,1.387,4.107,1.387,6.93c0,2.516-0.335,4.672-1.001,6.469
		c-0.668,1.797-1.849,3.439-3.542,4.928c3.284,1.283,5.659,2.939,7.122,4.967c1.463,2.028,2.194,4.658,2.194,7.892
		c0,3.132-0.552,5.725-1.655,7.777c-1.104,2.054-2.555,3.684-4.351,4.89c-1.798,1.207-3.838,2.054-6.121,2.541
		C235.223,559.915,232.899,560.158,230.539,560.158z M227.689,514.112h-8.161v14.014h9.471c4.773,0,7.161-2.335,7.161-7.007
		c0-2.771-0.706-4.632-2.118-5.582C232.63,514.588,230.513,514.112,227.689,514.112z M230.154,535.519h-10.626v16.786h9.086
		c3.85,0,6.749-0.59,8.7-1.771c1.951-1.181,2.927-3.336,2.927-6.468C240.241,538.367,236.878,535.519,230.154,535.519z"/>
	<path fill="#FFFFFF" d="M288.905,560.158h-8.009l-0.385-2.849c-2.567,2.413-5.621,3.618-9.163,3.618
		c-10.369,0-15.554-5.979-15.554-17.94V521.89h8.701v20.532c0,3.859,0.642,6.676,1.925,8.452c1.282,1.775,3.312,2.662,6.083,2.662
		c3.388,0,5.954-1.183,7.7-3.551V521.89h8.701V560.158z"/>
	<path fill="#FFFFFF" d="M309.001,560.928c-5.698,0-10.036-1.001-13.013-3.003l0.847-7.699c0.616,0.462,1.373,0.924,2.271,1.386
		c0.897,0.462,1.873,0.873,2.926,1.231c1.052,0.36,2.156,0.655,3.312,0.886c1.155,0.231,2.271,0.347,3.35,0.347
		c2.206,0,3.823-0.41,4.851-1.232c1.026-0.82,1.54-1.873,1.54-3.156c0-1.232-0.552-2.259-1.655-3.08
		c-1.104-0.82-2.438-1.54-4.004-2.156c-1.566-0.616-3.195-1.193-4.89-1.732s-3.106-1.142-4.235-1.81
		c-2.516-1.488-3.772-4.055-3.772-7.7c0-1.54,0.27-3.041,0.809-4.504c0.539-1.464,1.386-2.746,2.541-3.851
		c1.154-1.104,2.618-1.988,4.389-2.656c1.771-0.667,3.889-1.001,6.353-1.001c4.671,0,8.521,0.924,11.55,2.771l-0.847,7.547
		c-2.876-2.566-6.264-3.851-10.164-3.851c-1.951,0-3.556,0.36-4.812,1.078c-1.259,0.72-1.887,1.848-1.887,3.388
		c0,1.027,0.243,1.849,0.731,2.464c0.487,0.616,1.142,1.13,1.964,1.54c0.82,0.412,1.758,0.745,2.811,1.001
		c1.052,0.258,2.143,0.539,3.272,0.848c7.084,1.797,10.626,5.673,10.626,11.627c0,1.231-0.181,2.502-0.539,3.812
		c-0.359,1.309-1.078,2.528-2.156,3.657c-1.078,1.13-2.593,2.054-4.543,2.772C314.673,560.568,312.132,560.928,309.001,560.928z"/>
	<path fill="#FFFFFF" d="M339.339,515.268h-8.778v-9.01h8.778V515.268z M339.339,560.158h-8.778V521.89h8.778V560.158z"/>
	<path fill="#FFFFFF" d="M382.535,560.158h-8.701v-20.713c0-3.747-0.654-6.493-1.964-8.239c-1.309-1.744-3.427-2.618-6.353-2.618
		c-3.594,0-6.34,1.259-8.239,3.773v27.797h-8.7V521.89h7.854l0.309,2.849c2.976-2.36,6.21-3.542,9.701-3.542
		c10.729,0,16.094,6.083,16.094,18.249V560.158z"/>
	<path fill="#FFFFFF" d="M423.575,542.448h-25.641c0.513,3.823,1.912,6.628,4.196,8.412s4.992,2.676,8.124,2.676
		c3.952,0,7.802-0.924,11.55-2.771l0.616,7.237c-4.004,1.952-8.266,2.926-12.782,2.926c-3.286,0-6.212-0.5-8.778-1.501
		c-2.567-1.001-4.735-2.399-6.506-4.196c-1.771-1.797-3.119-3.9-4.043-6.314c-0.924-2.412-1.386-5.056-1.386-7.931
		c0-2.772,0.424-5.352,1.271-7.738c0.847-2.388,2.079-4.479,3.696-6.275c1.616-1.797,3.554-3.208,5.813-4.235
		c2.258-1.026,4.824-1.54,7.699-1.54c2.413,0,4.633,0.398,6.661,1.193c2.027,0.797,3.785,1.913,5.274,3.35
		c1.488,1.438,2.656,3.17,3.503,5.197c0.848,2.028,1.271,4.273,1.271,6.737c0,0.616-0.038,1.322-0.115,2.118
		S423.78,541.474,423.575,542.448z M407.56,528.588c-5.031,0-8.111,2.645-9.24,7.932h16.863c0-2.207-0.616-4.081-1.848-5.621
		C412.103,529.358,410.178,528.588,407.56,528.588z"/>
	<path fill="#FFFFFF" d="M441.747,560.928c-5.698,0-10.037-1.001-13.014-3.003l0.848-7.699c0.615,0.462,1.372,0.924,2.271,1.386
		c0.897,0.462,1.873,0.873,2.926,1.231c1.052,0.36,2.156,0.655,3.311,0.886c1.155,0.231,2.271,0.347,3.35,0.347
		c2.207,0,3.824-0.41,4.852-1.232c1.026-0.82,1.54-1.873,1.54-3.156c0-1.232-0.553-2.259-1.656-3.08
		c-1.104-0.82-2.438-1.54-4.004-2.156c-1.566-0.616-3.195-1.193-4.889-1.732c-1.694-0.539-3.107-1.142-4.235-1.81
		c-2.516-1.488-3.773-4.055-3.773-7.7c0-1.54,0.27-3.041,0.809-4.504c0.539-1.464,1.386-2.746,2.541-3.851
		c1.155-1.104,2.618-1.988,4.39-2.656c1.771-0.667,3.888-1.001,6.353-1.001c4.67,0,8.521,0.924,11.55,2.771l-0.848,7.547
		c-2.875-2.566-6.263-3.851-10.164-3.851c-1.951,0-3.555,0.36-4.812,1.078c-1.258,0.72-1.886,1.848-1.886,3.388
		c0,1.027,0.243,1.849,0.731,2.464c0.487,0.616,1.142,1.13,1.963,1.54c0.821,0.412,1.758,0.745,2.811,1.001
		c1.052,0.258,2.143,0.539,3.272,0.848c7.084,1.797,10.626,5.673,10.626,11.627c0,1.231-0.18,2.502-0.539,3.812
		c-0.359,1.309-1.077,2.528-2.155,3.657c-1.078,1.13-2.593,2.054-4.543,2.772C447.418,560.568,444.877,560.928,441.747,560.928z"/>
	<path fill="#FFFFFF" d="M474.163,560.928c-5.698,0-10.037-1.001-13.014-3.003l0.848-7.699c0.615,0.462,1.372,0.924,2.271,1.386
		c0.897,0.462,1.873,0.873,2.926,1.231c1.052,0.36,2.156,0.655,3.311,0.886c1.155,0.231,2.271,0.347,3.35,0.347
		c2.207,0,3.824-0.41,4.852-1.232c1.026-0.82,1.54-1.873,1.54-3.156c0-1.232-0.553-2.259-1.656-3.08
		c-1.104-0.82-2.438-1.54-4.004-2.156c-1.566-0.616-3.195-1.193-4.889-1.732c-1.694-0.539-3.107-1.142-4.235-1.81
		c-2.516-1.488-3.773-4.055-3.773-7.7c0-1.54,0.27-3.041,0.809-4.504c0.539-1.464,1.386-2.746,2.541-3.851
		c1.155-1.104,2.618-1.988,4.39-2.656c1.771-0.667,3.888-1.001,6.353-1.001c4.67,0,8.521,0.924,11.55,2.771l-0.848,7.547
		c-2.875-2.566-6.263-3.851-10.164-3.851c-1.951,0-3.555,0.36-4.812,1.078c-1.258,0.72-1.886,1.848-1.886,3.388
		c0,1.027,0.243,1.849,0.731,2.464c0.487,0.616,1.142,1.13,1.963,1.54c0.821,0.412,1.758,0.745,2.811,1.001
		c1.052,0.258,2.143,0.539,3.272,0.848c7.084,1.797,10.626,5.673,10.626,11.627c0,1.231-0.18,2.502-0.539,3.812
		c-0.359,1.309-1.077,2.528-2.155,3.657c-1.078,1.13-2.593,2.054-4.543,2.772C479.834,560.568,477.293,560.928,474.163,560.928z"/>
</g>
<g enable-background="new    ">
	<path fill="#FFFFFF" d="M249.057,620.536c-4.928,5.134-11.293,7.7-19.096,7.7c-3.85,0-7.405-0.668-10.665-2.002
		c-3.26-1.334-6.071-3.234-8.432-5.698c-2.362-2.464-4.196-5.415-5.505-8.854s-1.963-7.264-1.963-11.474
		c0-4.208,0.654-8.033,1.963-11.473c1.309-3.438,3.144-6.392,5.505-8.855c2.361-2.464,5.171-4.362,8.432-5.697
		c3.259-1.335,6.814-2.002,10.665-2.002c3.9,0,7.469,0.681,10.703,2.04c3.234,1.36,6.031,3.272,8.393,5.736
		c2.361,2.464,4.197,5.417,5.506,8.855c1.309,3.439,1.963,7.237,1.963,11.396C256.526,608.628,254.036,615.403,249.057,620.536z
		 M242.281,586.173c-2.824-3.578-6.93-5.368-12.32-5.368c-2.722,0-5.108,0.474-7.161,1.419c-2.054,0.946-3.786,2.289-5.197,4.026
		c-1.413,1.738-2.478,3.797-3.196,6.174c-0.719,2.378-1.078,4.973-1.078,7.784c0,2.863,0.358,5.472,1.078,7.824
		c0.718,2.352,1.783,4.397,3.196,6.135c1.411,1.738,3.144,3.081,5.197,4.026c2.053,0.946,4.439,1.419,7.161,1.419
		c2.668,0,5.043-0.473,7.123-1.419c2.079-0.945,3.823-2.288,5.236-4.026c1.411-1.737,2.476-3.783,3.195-6.135
		c0.718-2.353,1.078-4.961,1.078-7.824C246.593,594.481,245.155,589.804,242.281,586.173z"/>
	<path fill="#FFFFFF" d="M284.785,588.042l-1.694,8.547h-3.234c-1.54,0-3.016,0.412-4.428,1.232
		c-1.412,0.821-2.425,1.798-3.042,2.926v26.411h-8.932V588.89h7.931l0.462,4.773c3.388-3.746,7.057-5.621,11.011-5.621H284.785z"/>
	<path fill="#FFFFFF" d="M298.26,582.268h-8.778v-9.01h8.778V582.268z M298.26,627.158h-8.778V588.89h8.778V627.158z"/>
	<path fill="#FFFFFF" d="M339.762,609.448h-25.641c0.512,3.823,1.912,6.628,4.196,8.412c2.284,1.784,4.992,2.676,8.124,2.676
		c3.952,0,7.802-0.924,11.55-2.771l0.616,7.237c-4.004,1.952-8.266,2.926-12.782,2.926c-3.286,0-6.211-0.5-8.778-1.501
		c-2.567-1.001-4.735-2.399-6.506-4.196s-3.119-3.9-4.042-6.314c-0.924-2.412-1.386-5.056-1.386-7.931
		c0-2.772,0.424-5.352,1.271-7.738c0.847-2.388,2.079-4.479,3.696-6.275c1.617-1.797,3.554-3.208,5.813-4.235
		c2.258-1.026,4.824-1.54,7.7-1.54c2.413,0,4.632,0.398,6.661,1.193c2.027,0.797,3.785,1.913,5.274,3.35
		c1.488,1.438,2.657,3.17,3.503,5.197c0.847,2.028,1.271,4.273,1.271,6.737c0,0.616-0.039,1.322-0.115,2.118
		C340.109,607.588,339.967,608.474,339.762,609.448z M323.747,595.588c-5.032,0-8.112,2.645-9.24,7.932h16.863
		c0-2.207-0.616-4.081-1.848-5.621S326.364,595.588,323.747,595.588z"/>
	<path fill="#FFFFFF" d="M381.034,627.158h-8.701v-20.713c0-3.747-0.654-6.493-1.964-8.239c-1.309-1.744-3.426-2.618-6.352-2.618
		c-3.594,0-6.341,1.259-8.24,3.773v27.797h-8.7V588.89h7.854l0.308,2.849c2.976-2.36,6.21-3.542,9.702-3.542
		c10.729,0,16.093,6.083,16.093,18.249V627.158z"/>
	<path fill="#FFFFFF" d="M409.37,620.768l-0.771,7.16h-6.621c-1.694,0-3.184-0.257-4.467-0.77s-2.348-1.205-3.195-2.079
		c-0.847-0.872-1.477-1.898-1.887-3.08c-0.411-1.18-0.615-2.464-0.615-3.85v-22.176h-5.775l0.77-7.084h5.006v-8.701l8.701-0.924
		v9.625h8.932v7.084h-8.932v18.172c0,1.592,0.05,2.837,0.153,3.734c0.103,0.898,0.358,1.553,0.771,1.963
		c0.41,0.412,1.051,0.668,1.925,0.771c0.872,0.104,2.079,0.154,3.618,0.154H409.37z"/>
	<path fill="#FFFFFF" d="M448.023,609.448h-25.641c0.512,3.823,1.912,6.628,4.196,8.412s4.991,2.676,8.124,2.676
		c3.951,0,7.802-0.924,11.549-2.771l0.617,7.237c-4.004,1.952-8.266,2.926-12.783,2.926c-3.285,0-6.211-0.5-8.777-1.501
		c-2.567-1.001-4.735-2.399-6.506-4.196c-1.771-1.797-3.119-3.9-4.043-6.314c-0.924-2.412-1.387-5.056-1.387-7.931
		c0-2.772,0.424-5.352,1.271-7.738c0.847-2.388,2.078-4.479,3.695-6.275s3.555-3.208,5.814-4.235c2.258-1.026,4.824-1.54,7.699-1.54
		c2.412,0,4.633,0.398,6.66,1.193c2.027,0.797,3.785,1.913,5.275,3.35c1.488,1.438,2.656,3.17,3.503,5.197
		c0.847,2.028,1.271,4.273,1.271,6.737c0,0.616-0.039,1.322-0.115,2.118C448.37,607.588,448.229,608.474,448.023,609.448z
		 M432.008,595.588c-5.031,0-8.111,2.645-9.24,7.932h16.863c0-2.207-0.616-4.081-1.848-5.621
		C436.551,596.358,434.625,595.588,432.008,595.588z"/>
	<path fill="#FFFFFF" d="M489.911,627.158h-8.162l-0.308-3.003c-2.824,2.516-6.187,3.772-10.087,3.772
		c-2.823,0-5.364-0.514-7.623-1.539c-2.26-1.026-4.185-2.438-5.775-4.235c-1.591-1.796-2.81-3.9-3.657-6.314
		c-0.848-2.412-1.271-5.005-1.271-7.776c0-2.772,0.436-5.377,1.31-7.815c0.871-2.438,2.104-4.543,3.695-6.314
		c1.591-1.771,3.516-3.169,5.775-4.196c2.258-1.026,4.773-1.54,7.546-1.54c4.004,0,7.263,1.104,9.778,3.311v-22.099h8.778V627.158z
		 M471.971,595.588c-3.08,0-5.52,1.14-7.315,3.416c-1.798,2.277-2.694,5.284-2.694,9.02c0,3.686,0.896,6.692,2.694,9.021
		c1.796,2.329,4.235,3.492,7.315,3.492c2.977,0,5.352-1.1,7.122-3.3c1.771-2.201,2.656-5.246,2.656-9.136
		c0-3.838-0.886-6.882-2.656-9.134C477.322,596.714,474.947,595.588,471.971,595.588z"/>
</g>
<g>
	<path fill="#B7E3E7" d="M263.15,473.663V361.091c0,0-51.287-44.822-51.287-105.278c0-60.453,52.325-133.942,131.545-133.942
		c79.219,0,133.885,47.468,136.738,102.987c5.539,46.065,35.247,108.09,35.247,108.09s0.006,8.339-7.293,9.38
		c-7.298,1.042-26.061,0-26.061,0l-1.044,48.989c0,0-3.121,41.697-38.562,41.697l-35.966,2.079l-0.52,38.571L263.15,473.663
		L263.15,473.663z"/>
	<path fill="#398B93" d="M424.715,259.456c0,8.922,7.231,16.157,16.154,16.157c8.924,0,16.155-7.235,16.155-16.157
		c0-8.922-7.423-14.168-16.154-13.928C432.138,245.768,424.715,250.534,424.715,259.456z"/>
</g>
<rect x="229.679" y="155.36" fill="none" width="228.641" height="283.236"/>
<g enable-background="new    ">
	<path fill="#398B93" d="M280.338,399.342c18.399-34.59,19.136-66.239,13.983-93.838H278.13c-3.681,0-6.624-3.312-6.624-6.992v-3.68
		c0-3.68,2.943-6.992,6.624-6.992h11.775c-2.944-12.88-11.408-34.959-11.408-59.247c0-47.84,34.224-76.911,77.279-76.911
		c31.648,0,52.992,18.032,62.191,26.128c2.944,2.208,3.312,6.624,0.736,9.567l-12.88,15.824c-3.312,4.416-7.36,3.68-10.304,0.736
		c0,0-19.872-19.136-40.112-19.136c-22.815,0-41.215,16.928-41.215,43.055c0,23.185,10.672,46.368,13.248,59.983h51.519
		c4.049,0,6.992,3.312,6.992,6.992v4.048c0,3.681-2.943,6.624-6.992,6.624h-47.839c2.943,18.4,2.576,51.52-6.624,75.44h82.063
		c3.68,0,6.623,2.943,6.623,6.992v18.031c0,3.68-2.943,6.992-6.623,6.992H287.329c-3.68,0-6.991-3.312-6.991-6.992V399.342z"/>
</g>
</svg>
