<?xml version="1.0" encoding="utf-8"?>
<!-- Generator: Adobe Illustrator 17.0.0, SVG Export Plug-In . SVG Version: 6.00 Build 0)  -->
<!DOCTYPE svg PUBLIC "-//W3C//DTD SVG 1.1//EN" "http://www.w3.org/Graphics/SVG/1.1/DTD/svg11.dtd">
<svg version="1.1" id="Layer_1" xmlns="http://www.w3.org/2000/svg" xmlns:xlink="http://www.w3.org/1999/xlink" x="0px" y="0px"
	 width="700px" height="700px" viewBox="-769.297 4351.978 700 700" enable-background="new -769.297 4351.978 700 700"
	 xml:space="preserve">
<g>
	<circle fill="#4CB9C4" cx="-419.297" cy="4701.978" r="336.143"/>
</g>
<g>
	<path fill="#265D62" d="M-450.562,4719.847v-22.122c0-57.409,76.37-64.256,76.37-112.712c0-21.595-16.853-40.556-47.402-40.556
		c-37.396,0-54.25,22.648-64.783,31.602c-4.214,3.687-8.428,3.687-12.641,0l-17.382-16.855c-4.213-3.686-3.16-9.479,0-13.693
		c0,0,33.183-46.349,100.073-46.349c54.776,0,96.911,34.762,96.911,84.797c0,66.365-81.637,78.479-81.637,115.874v19.487
		c0,6.847-4.741,10.534-11.061,10.534h-28.44C-445.823,4729.854-450.562,4725.64-450.562,4719.847z M-426.791,4760.091
		c15.027,0,26.97,11.944,26.97,26.97c0,14.642-11.943,26.585-26.97,26.585c-14.641,0-26.585-11.943-26.585-26.585
		C-453.376,4772.035-441.431,4760.091-426.791,4760.091z"/>
</g>
<g>
	<rect x="-655.297" y="4867.107" fill="none" width="472" height="105"/>
	<text transform="matrix(1 0 0 1 -544.4976 4924.8574)" fill="#FFFFFF" font-family="'Cabin-SemiBold'" font-size="77">Curious</text>
</g>
</svg>
