<?xml version="1.0" encoding="utf-8"?>
<!-- Generator: Adobe Illustrator 17.0.0, SVG Export Plug-In . SVG Version: 6.00 Build 0)  -->
<!DOCTYPE svg PUBLIC "-//W3C//DTD SVG 1.1//EN" "http://www.w3.org/Graphics/SVG/1.1/DTD/svg11.dtd">
<svg version="1.1" id="Layer_1" xmlns="http://www.w3.org/2000/svg" xmlns:xlink="http://www.w3.org/1999/xlink" x="0px" y="0px"
	 width="700px" height="700px" viewBox="0 0 700 700" enable-background="new 0 0 700 700" xml:space="preserve">
<g>
	<circle fill="#4CB9C4" cx="350" cy="350" r="336.143"/>
</g>
<g>
	<path fill="#265D62" d="M318.735,367.869v-22.122c0-57.409,76.37-64.256,76.37-112.712c0-21.595-16.853-40.556-47.402-40.556
		c-37.396,0-54.25,22.648-64.783,31.602c-4.214,3.687-8.428,3.687-12.641,0l-17.382-16.855c-4.213-3.686-3.16-9.479,0-13.693
		c0,0,33.183-46.349,100.073-46.349c54.776,0,96.911,34.762,96.911,84.797c0,66.365-81.637,78.479-81.637,115.874v19.487
		c0,6.847-4.741,10.534-11.061,10.534h-28.44C323.474,377.876,318.735,373.662,318.735,367.869z M342.506,408.113
		c15.027,0,26.97,11.944,26.97,26.97c0,14.642-11.943,26.585-26.97,26.585c-14.641,0-26.585-11.943-26.585-26.585
		C315.921,420.057,327.866,408.113,342.506,408.113z"/>
</g>
<g>
	<rect x="114" y="515.129" fill="none" width="472" height="105"/>
	<g enable-background="new    ">
		<path fill="#FFFFFF" d="M254.367,573.957c-3.901,0-7.482-0.668-10.741-2.002c-3.261-1.334-6.071-3.234-8.432-5.697
			c-2.362-2.465-4.21-5.416-5.544-8.855c-1.335-3.439-2.002-7.264-2.002-11.473s0.667-8.033,2.002-11.473
			c1.334-3.439,3.182-6.393,5.544-8.855c2.36-2.465,5.171-4.363,8.432-5.697c3.259-1.336,6.84-2.002,10.741-2.002
			c5.646,0,10.703,1.027,15.169,3.078l-1.001,8.625c-5.75-2.053-10.472-3.08-14.168-3.08c-2.721,0-5.121,0.475-7.199,1.42
			c-2.079,0.945-3.838,2.275-5.274,3.988c-1.438,1.713-2.516,3.758-3.234,6.135c-0.719,2.377-1.078,4.998-1.078,7.861
			s0.358,5.484,1.078,7.861c0.718,2.377,1.796,4.422,3.234,6.135c1.437,1.715,3.195,3.043,5.274,3.988
			c2.079,0.947,4.478,1.42,7.199,1.42c3.901,0,8.624-1.027,14.168-3.08l1.001,8.623C265.172,572.93,260.116,573.957,254.367,573.957
			z"/>
		<path fill="#FFFFFF" d="M308.268,572.879h-8.008l-0.385-2.848c-2.567,2.412-5.621,3.617-9.163,3.617
			c-10.37,0-15.554-5.979-15.554-17.939v-21.098h8.701v20.531c0,3.859,0.642,6.676,1.925,8.453c1.282,1.775,3.311,2.662,6.083,2.662
			c3.388,0,5.954-1.184,7.7-3.551v-28.096h8.701V572.879z"/>
		<path fill="#FFFFFF" d="M338.836,533.764l-1.694,8.547h-3.234c-1.54,0-3.016,0.412-4.428,1.232
			c-1.412,0.82-2.425,1.797-3.042,2.926v26.41h-8.932v-38.268h7.931l0.462,4.773c3.388-3.746,7.057-5.621,11.011-5.621H338.836z"/>
		<path fill="#FFFFFF" d="M352.312,527.988h-8.778v-9.01h8.778V527.988z M352.312,572.879h-8.778v-38.268h8.778V572.879z"/>
		<path fill="#FFFFFF" d="M359.163,553.783c0-2.771,0.449-5.377,1.348-7.814c0.897-2.438,2.182-4.543,3.851-6.314
			c1.667-1.771,3.695-3.17,6.083-4.197c2.387-1.025,5.043-1.539,7.969-1.539c2.927,0,5.569,0.514,7.932,1.539
			c2.36,1.027,4.375,2.439,6.044,4.236c1.668,1.797,2.965,3.9,3.889,6.312c0.924,2.414,1.386,5.006,1.386,7.777
			s-0.449,5.365-1.347,7.777c-0.899,2.414-2.183,4.518-3.851,6.314c-1.669,1.797-3.696,3.209-6.083,4.234s-5.043,1.539-7.97,1.539
			c-2.978,0-5.647-0.514-8.008-1.539c-2.361-1.025-4.377-2.426-6.044-4.197c-1.669-1.77-2.953-3.861-3.851-6.275
			C359.612,559.225,359.163,556.607,359.163,553.783z M368.096,553.744c0,3.838,0.91,6.885,2.733,9.137
			c1.821,2.252,4.351,3.377,7.584,3.377c3.234,0,5.762-1.125,7.585-3.377c1.821-2.252,2.733-5.299,2.733-9.137
			s-0.912-6.869-2.733-9.096c-1.823-2.225-4.351-3.34-7.585-3.34c-3.233,0-5.763,1.115-7.584,3.34
			C369.006,546.875,368.096,549.906,368.096,553.744z"/>
		<path fill="#FFFFFF" d="M437.165,572.879h-8.009l-0.385-2.848c-2.567,2.412-5.621,3.617-9.163,3.617
			c-10.369,0-15.554-5.979-15.554-17.939v-21.098h8.701v20.531c0,3.859,0.642,6.676,1.925,8.453
			c1.282,1.775,3.312,2.662,6.083,2.662c3.388,0,5.954-1.184,7.7-3.551v-28.096h8.701V572.879z"/>
		<path fill="#FFFFFF" d="M457.261,573.648c-5.698,0-10.036-1-13.013-3.002l0.847-7.699c0.616,0.461,1.373,0.924,2.271,1.385
			c0.897,0.463,1.873,0.873,2.926,1.232c1.052,0.359,2.156,0.654,3.312,0.885c1.155,0.232,2.271,0.348,3.35,0.348
			c2.206,0,3.823-0.41,4.851-1.232c1.026-0.82,1.54-1.873,1.54-3.156c0-1.232-0.552-2.26-1.655-3.08
			c-1.104-0.82-2.438-1.541-4.004-2.156c-1.566-0.617-3.195-1.193-4.89-1.732s-3.106-1.143-4.235-1.811
			c-2.516-1.488-3.772-4.055-3.772-7.699c0-1.541,0.27-3.041,0.809-4.504c0.539-1.465,1.386-2.746,2.541-3.852
			c1.154-1.104,2.618-1.988,4.389-2.656c1.771-0.666,3.889-1,6.353-1c4.671,0,8.521,0.924,11.55,2.771l-0.847,7.547
			c-2.876-2.566-6.264-3.852-10.164-3.852c-1.951,0-3.556,0.361-4.812,1.078c-1.259,0.721-1.887,1.848-1.887,3.389
			c0,1.027,0.243,1.848,0.731,2.463c0.487,0.617,1.142,1.131,1.964,1.541c0.82,0.412,1.758,0.744,2.811,1
			c1.052,0.258,2.143,0.539,3.272,0.848c7.084,1.797,10.626,5.674,10.626,11.627c0,1.232-0.181,2.502-0.539,3.812
			c-0.359,1.309-1.078,2.527-2.156,3.656c-1.078,1.131-2.593,2.055-4.543,2.773C462.933,573.289,460.392,573.648,457.261,573.648z"
			/>
	</g>
</g>
</svg>
