<?xml version="1.0" encoding="utf-8"?>
<!-- Generator: Adobe Illustrator 17.0.0, SVG Export Plug-In . SVG Version: 6.00 Build 0)  -->
<!DOCTYPE svg PUBLIC "-//W3C//DTD SVG 1.1//EN" "http://www.w3.org/Graphics/SVG/1.1/DTD/svg11.dtd">
<svg version="1.1" id="Layer_1" xmlns="http://www.w3.org/2000/svg" xmlns:xlink="http://www.w3.org/1999/xlink" x="0px" y="0px"
	 width="700px" height="700px" viewBox="0 0 700 700" enable-background="new 0 0 700 700" xml:space="preserve">
<g>
	<circle fill="#4CB9C4" cx="350" cy="350" r="336.143"/>
</g>
<rect x="114" y="529.987" fill="none" width="472" height="105"/>
<g enable-background="new    ">
	<path fill="#FFFFFF" d="M275.118,588.815c-3.8,0-7.315-0.668-10.549-2.002c-3.234-1.334-6.019-3.234-8.354-5.698
		c-2.336-2.464-4.158-5.429-5.467-8.894s-1.963-7.302-1.963-11.512c0-4.208,0.667-8.033,2.002-11.473
		c1.334-3.438,3.195-6.378,5.583-8.816c2.387-2.438,5.223-4.324,8.508-5.659c3.285-1.335,6.904-2.002,10.857-2.002
		c1.283,0,2.669,0.076,4.158,0.23c1.488,0.154,2.964,0.373,4.427,0.654c1.463,0.283,2.849,0.616,4.158,1.001
		c1.309,0.386,2.425,0.809,3.35,1.271l-0.924,8.471c-5.185-2.002-10.164-3.003-14.938-3.003c-2.875,0-5.378,0.474-7.507,1.419
		c-2.131,0.946-3.927,2.264-5.39,3.95c-1.463,1.687-2.554,3.707-3.272,6.059c-0.719,2.353-1.078,4.96-1.078,7.823
		c0,2.914,0.385,5.572,1.155,7.976s1.912,4.461,3.426,6.174c1.514,1.714,3.388,3.043,5.621,3.988
		c2.233,0.946,4.812,1.419,7.739,1.419c2.618,0,5.236-0.356,7.854-1.071v-10.71h-6.699v-7.7h15.785v24.024
		c-0.976,0.565-2.208,1.091-3.696,1.578c-1.489,0.489-3.08,0.924-4.774,1.31c-1.694,0.385-3.426,0.68-5.197,0.885
		S276.555,588.815,275.118,588.815z"/>
	<path fill="#FFFFFF" d="M334.254,570.027h-25.641c0.512,3.823,1.912,6.628,4.196,8.412c2.284,1.784,4.992,2.676,8.124,2.676
		c3.952,0,7.802-0.924,11.55-2.771l0.616,7.237c-4.004,1.952-8.266,2.926-12.782,2.926c-3.286,0-6.211-0.5-8.778-1.501
		c-2.567-1.001-4.735-2.399-6.506-4.196s-3.119-3.9-4.042-6.314c-0.924-2.412-1.386-5.056-1.386-7.931
		c0-2.772,0.424-5.352,1.271-7.738c0.847-2.388,2.079-4.479,3.696-6.275c1.617-1.797,3.554-3.208,5.813-4.235
		c2.258-1.026,4.824-1.54,7.7-1.54c2.413,0,4.632,0.398,6.661,1.193c2.027,0.797,3.785,1.913,5.274,3.35
		c1.488,1.438,2.657,3.17,3.503,5.197c0.847,2.028,1.271,4.273,1.271,6.737c0,0.616-0.039,1.322-0.115,2.118
		C334.601,568.167,334.458,569.053,334.254,570.027z M318.238,556.167c-5.032,0-8.112,2.645-9.24,7.932h16.863
		c0-2.207-0.616-4.081-1.848-5.621S320.856,556.167,318.238,556.167z"/>
	<path fill="#FFFFFF" d="M373.831,570.027H348.19c0.512,3.823,1.912,6.628,4.196,8.412c2.283,1.784,4.992,2.676,8.123,2.676
		c3.953,0,7.803-0.924,11.551-2.771l0.615,7.237c-4.004,1.952-8.266,2.926-12.781,2.926c-3.286,0-6.212-0.5-8.778-1.501
		c-2.567-1.001-4.735-2.399-6.506-4.196s-3.119-3.9-4.042-6.314c-0.924-2.412-1.386-5.056-1.386-7.931
		c0-2.772,0.424-5.352,1.271-7.738c0.847-2.388,2.079-4.479,3.696-6.275c1.617-1.797,3.554-3.208,5.813-4.235
		c2.258-1.026,4.824-1.54,7.7-1.54c2.413,0,4.632,0.398,6.661,1.193c2.027,0.797,3.785,1.913,5.273,3.35
		c1.488,1.438,2.657,3.17,3.504,5.197c0.848,2.028,1.271,4.273,1.271,6.737c0,0.616-0.038,1.322-0.115,2.118
		S374.035,569.053,373.831,570.027z M357.815,556.167c-5.032,0-8.112,2.645-9.24,7.932h16.863c0-2.207-0.616-4.081-1.849-5.621
		C362.358,556.938,360.434,556.167,357.815,556.167z"/>
	<path fill="#FFFFFF" d="M389.924,587.737h-8.777v-57.75h8.777V565.6l12.705-16.131h10.087l-14.553,18.133l14.63,20.136h-10.01
		l-12.859-17.748V587.737z"/>
	<path fill="#FFFFFF" d="M453.679,549.469l-23.793,56.902h-9.009l8.624-20.943l-15.938-35.959h9.701l10.473,25.795l10.24-25.795
		H453.679z"/>
</g>
<path fill="none" stroke="#B7E3E7" stroke-width="14.1732" stroke-miterlimit="10" d="M309.175,327.846
	c10.393-5.813,24.845-9.416,40.825-9.416c15.824,0,30.15,3.534,40.519,9.247"/>
<circle fill="none" stroke="#265D62" stroke-width="14.1732" stroke-miterlimit="10" cx="243.695" cy="350" r="69.109"/>
<circle fill="none" stroke="#265D62" stroke-width="14.1732" stroke-miterlimit="10" cx="456.305" cy="350" r="69.109"/>
</svg>
