<?xml version="1.0" encoding="utf-8"?>
<!-- Generator: Adobe Illustrator 17.0.0, SVG Export Plug-In . SVG Version: 6.00 Build 0)  -->
<!DOCTYPE svg PUBLIC "-//W3C//DTD SVG 1.1//EN" "http://www.w3.org/Graphics/SVG/1.1/DTD/svg11.dtd">
<svg version="1.1" id="Layer_1" xmlns="http://www.w3.org/2000/svg" xmlns:xlink="http://www.w3.org/1999/xlink" x="0px" y="0px"
	 width="700px" height="700px" viewBox="-769.297 936.638 700 700" enable-background="new -769.297 936.638 700 700"
	 xml:space="preserve">
<g>
	<circle fill="#4CB9C4" cx="-419.297" cy="1286.638" r="336.143"/>
</g>
<path fill-rule="evenodd" clip-rule="evenodd" fill="#B7E3E7" d="M-493.559,1377.508c0-1.44,0-2.606,0-3.771
	c0-44.724,0.02-89.448-0.047-134.17c-0.004-2.568,0.444-4.121,3.329-4.478c10.679-1.318,17.521-7.477,21.978-17.058
	c6.167-13.26,12.58-26.411,19.132-39.486c6.621-13.213,13.776-26.24,25.03-36.124c11.378-9.994,19.966-21.866,26.484-35.359
	c7.451-15.424,12.476-31.604,14.6-48.636c0.196-1.572,0.071-3.184,0.1-4.776c0.142-7.889,5.409-12.546,13.108-11.174
	c12.823,2.284,22.278,9.36,27.912,21.1c8.553,17.82,7.927,36.246,1.463,54.283c-4.852,13.536-11.444,26.447-17.18,39.671
	c-1.896,4.371-3.85,8.756-5.227,13.302c-1.67,5.518-0.281,7.906,5.056,9.969c10.7,4.138,21.793,5.023,33.136,3.963
	c6.131-0.572,12.277-1.094,18.427-1.327c9.541-0.363,19.104-0.256,28.638-0.729c9.014-0.446,16.124,3.173,21.049,10.226
	c4.639,6.641,8.553,13.855,12.176,21.122c2.684,5.384,1.491,11.037-0.954,16.426c-1.391,3.067-2.716,6.196-3.679,9.414
	c-1.268,4.242-0.213,8.457,0.888,12.602c0.995,3.745,2.251,7.441,2.966,11.238c1.143,6.082-0.321,11.855-4.012,16.667
	c-4.772,6.223-5.278,12.817-3.233,19.988c0.409,1.434,0.576,2.954,1.123,4.329c3.105,7.813,1.607,15.211-2.618,21.969
	c-3.139,5.022-6.697,9.957-10.896,14.089c-3.747,3.686-5.463,7.509-4.531,12.471c0.872,4.638-0.108,8.931-2.966,12.358
	c-5.725,6.862-11.578,13.682-17.984,19.894c-6.329,6.135-14.71,8.596-23.286,8.733c-30.26,0.48-60.53,0.612-90.794,0.584
	c-3.961-0.005-8.02-1.4-11.859-2.674c-14.268-4.737-28.629-9.117-43.551-11.202c-8.642-1.207-17.362-1.857-26.047-2.742
	C-488.278,1377.952-490.732,1377.76-493.559,1377.508z"/>
<path fill-rule="evenodd" clip-rule="evenodd" fill="#255D61" d="M-514.511,1306.64c0,23.112,0.001,46.224,0,69.336
	c-0.001,10.131-4.02,14.201-14.018,14.201c-13.449,0-26.897,0.017-40.346-0.009c-6.757-0.013-11.934-5.105-12.584-11.875
	c-1.252-13.04-2.731-26.058-4.036-39.092c-1.098-10.964-2.035-21.942-3.128-32.907c-1.084-10.862-2.313-21.71-3.407-32.571
	c-0.905-8.989-1.722-17.985-2.547-26.981c-0.434-4.744-1.016-9.488-1.145-14.244c-0.149-5.524,4.057-9.661,9.56-9.671
	c20.224-0.035,40.446-0.038,60.669,0c6.381,0.013,10.959,5.209,10.97,12.386c0.029,19.326,0.011,38.652,0.011,57.979
	C-514.511,1297.674-514.511,1302.157-514.511,1306.64z"/>
<rect x="-655.297" y="1466.625" fill="none" width="472" height="105"/>
<text transform="matrix(1 0 0 1 -549.772 1524.375)" fill="#FFFFFF" font-family="'Cabin-SemiBold'" font-size="77">Positive</text>
</svg>
