<?xml version="1.0" encoding="utf-8"?>
<!-- Generator: Adobe Illustrator 17.0.0, SVG Export Plug-In . SVG Version: 6.00 Build 0)  -->
<!DOCTYPE svg PUBLIC "-//W3C//DTD SVG 1.1//EN" "http://www.w3.org/Graphics/SVG/1.1/DTD/svg11.dtd">
<svg version="1.1" id="Layer_1" xmlns="http://www.w3.org/2000/svg" xmlns:xlink="http://www.w3.org/1999/xlink" x="0px" y="0px"
	 width="700px" height="700px" viewBox="0 0 700 700" enable-background="new 0 0 700 700" xml:space="preserve">
<g>
	<circle fill="#4CB9C4" cx="350" cy="350" r="336.143"/>
</g>
<path fill="#B7E3E7" d="M275.738,440.87c0-1.44,0-2.606,0-3.771c0-44.724,0.02-89.448-0.047-134.17
	c-0.004-2.568,0.444-4.121,3.329-4.478c10.679-1.318,17.521-7.477,21.978-17.058c6.167-13.26,12.58-26.411,19.132-39.486
	c6.621-13.213,13.776-26.24,25.03-36.124c11.378-9.994,19.966-21.866,26.484-35.359c7.451-15.424,12.476-31.604,14.6-48.636
	c0.196-1.572,0.071-3.184,0.1-4.776c0.142-7.889,5.409-12.546,13.108-11.174c12.823,2.284,22.278,9.36,27.912,21.1
	c8.553,17.82,7.927,36.246,1.463,54.283c-4.852,13.536-11.444,26.447-17.18,39.671c-1.896,4.371-3.85,8.756-5.227,13.302
	c-1.67,5.518-0.281,7.906,5.056,9.969c10.7,4.138,21.793,5.023,33.136,3.963c6.131-0.572,12.277-1.094,18.427-1.327
	c9.541-0.363,19.104-0.256,28.638-0.729c9.014-0.446,16.124,3.173,21.049,10.226c4.639,6.641,8.553,13.855,12.176,21.122
	c2.684,5.384,1.491,11.037-0.954,16.426c-1.391,3.067-2.716,6.196-3.679,9.414c-1.268,4.242-0.213,8.457,0.888,12.602
	c0.995,3.745,2.251,7.441,2.966,11.238c1.143,6.082-0.321,11.855-4.012,16.667c-4.772,6.223-5.278,12.817-3.233,19.988
	c0.409,1.434,0.576,2.954,1.123,4.329c3.105,7.813,1.607,15.211-2.618,21.969c-3.139,5.022-6.697,9.957-10.896,14.089
	c-3.747,3.686-5.463,7.509-4.531,12.471c0.872,4.638-0.108,8.931-2.966,12.358c-5.725,6.862-11.578,13.682-17.984,19.894
	c-6.329,6.135-14.71,8.596-23.286,8.733c-30.26,0.48-60.53,0.612-90.794,0.584c-3.961-0.005-8.02-1.4-11.859-2.674
	c-14.268-4.737-28.629-9.117-43.551-11.202c-8.642-1.207-17.362-1.857-26.047-2.742C281.019,441.314,278.565,441.122,275.738,440.87
	z"/>
<path fill="#255D61" d="M254.786,370.002c0,23.112,0.001,46.224,0,69.336c-0.001,10.131-4.02,14.201-14.018,14.201
	c-13.449,0-26.897,0.017-40.346-0.009c-6.757-0.013-11.934-5.105-12.584-11.875c-1.252-13.04-2.731-26.058-4.036-39.092
	c-1.098-10.964-2.035-21.942-3.128-32.907c-1.084-10.862-2.313-21.71-3.407-32.571c-0.905-8.989-1.722-17.985-2.547-26.981
	c-0.434-4.744-1.016-9.488-1.145-14.244c-0.149-5.524,4.057-9.661,9.56-9.671c20.224-0.035,40.446-0.038,60.669,0
	c6.381,0.013,10.959,5.209,10.97,12.386c0.029,19.326,0.011,38.652,0.011,57.979C254.786,361.036,254.786,365.519,254.786,370.002z"
	/>
<rect x="114" y="529.987" fill="none" width="472" height="105"/>
<g enable-background="new    ">
	<path fill="#FFFFFF" d="M245.061,569.643h-10.29v18.095h-9.24v-53.9h15.862c3.438,0,6.506,0.206,9.201,0.616
		c2.695,0.412,4.979,1.232,6.853,2.464c1.874,1.232,3.298,2.965,4.273,5.198c0.975,2.232,1.463,5.146,1.463,8.739
		c0,3.646-0.563,6.66-1.689,9.047c-1.126,2.388-2.572,4.312-4.338,5.775s-3.725,2.49-5.875,3.08
		C249.13,569.348,247.057,569.643,245.061,569.643z M242.933,541.537h-8.162v19.712h8.932c3.696,0,6.326-0.782,7.892-2.349
		c1.565-1.564,2.349-4.196,2.349-7.892c0-1.694-0.18-3.145-0.539-4.351c-0.359-1.206-0.962-2.195-1.81-2.965
		c-0.847-0.771-1.977-1.321-3.388-1.655C246.795,541.704,245.037,541.537,242.933,541.537z"/>
	<path fill="#FFFFFF" d="M266.187,568.642c0-2.772,0.449-5.377,1.348-7.815c0.897-2.438,2.181-4.543,3.85-6.314
		c1.667-1.771,3.696-3.169,6.083-4.196c2.387-1.026,5.043-1.54,7.969-1.54c2.926,0,5.569,0.514,7.931,1.54
		c2.36,1.027,4.375,2.438,6.044,4.235c1.667,1.797,2.964,3.901,3.889,6.313c0.924,2.413,1.386,5.005,1.386,7.777
		c0,2.771-0.45,5.364-1.347,7.776c-0.899,2.414-2.183,4.519-3.85,6.314c-1.669,1.797-3.696,3.209-6.083,4.235
		c-2.387,1.025-5.043,1.539-7.97,1.539c-2.978,0-5.647-0.514-8.008-1.539c-2.362-1.026-4.377-2.426-6.044-4.197
		c-1.669-1.771-2.953-3.861-3.85-6.275C266.635,574.083,266.187,571.465,266.187,568.642z M275.119,568.603
		c0,3.838,0.911,6.884,2.733,9.136c1.822,2.252,4.351,3.377,7.584,3.377s5.762-1.125,7.584-3.377
		c1.822-2.252,2.733-5.298,2.733-9.136s-0.912-6.869-2.733-9.096c-1.823-2.226-4.351-3.34-7.584-3.34s-5.763,1.114-7.584,3.34
		C276.029,561.733,275.119,564.765,275.119,568.603z"/>
	<path fill="#FFFFFF" d="M322.396,588.507c-5.698,0-10.037-1.001-13.013-3.003l0.847-7.699c0.616,0.462,1.373,0.924,2.271,1.386
		c0.897,0.462,1.873,0.873,2.926,1.231c1.052,0.36,2.156,0.655,3.311,0.886c1.155,0.231,2.271,0.347,3.35,0.347
		c2.207,0,3.824-0.41,4.851-1.232c1.026-0.82,1.54-1.873,1.54-3.156c0-1.232-0.552-2.259-1.656-3.08
		c-1.104-0.82-2.438-1.54-4.004-2.156c-1.566-0.616-3.195-1.193-4.889-1.732c-1.694-0.539-3.107-1.142-4.235-1.81
		c-2.516-1.488-3.773-4.055-3.773-7.7c0-1.54,0.27-3.041,0.809-4.504c0.539-1.464,1.386-2.746,2.541-3.851
		c1.155-1.104,2.618-1.988,4.389-2.656c1.771-0.667,3.888-1.001,6.353-1.001c4.67,0,8.521,0.924,11.55,2.771l-0.847,7.547
		c-2.875-2.566-6.263-3.851-10.164-3.851c-1.951,0-3.555,0.36-4.812,1.078c-1.258,0.72-1.886,1.848-1.886,3.388
		c0,1.027,0.243,1.849,0.731,2.464c0.487,0.616,1.142,1.13,1.963,1.54c0.821,0.412,1.758,0.745,2.811,1.001
		c1.052,0.258,2.143,0.539,3.272,0.848c7.084,1.797,10.626,5.673,10.626,11.627c0,1.231-0.18,2.502-0.539,3.812
		c-0.359,1.309-1.078,2.528-2.156,3.657c-1.078,1.13-2.593,2.054-4.543,2.772C328.068,588.147,325.527,588.507,322.396,588.507z"/>
	<path fill="#FFFFFF" d="M352.734,542.847h-8.778v-9.01h8.778V542.847z M352.734,587.737h-8.778v-38.269h8.778V587.737z"/>
	<path fill="#FFFFFF" d="M381.916,581.347l-0.77,7.16h-6.622c-1.694,0-3.184-0.257-4.466-0.77c-1.284-0.513-2.349-1.205-3.196-2.079
		c-0.847-0.872-1.476-1.898-1.886-3.08c-0.412-1.18-0.616-2.464-0.616-3.85v-22.176h-5.775l0.771-7.084h5.005v-8.701l8.701-0.924
		v9.625h8.932v7.084h-8.932v18.172c0,1.592,0.05,2.837,0.153,3.734c0.103,0.898,0.359,1.553,0.771,1.963
		c0.41,0.412,1.052,0.668,1.925,0.771c0.872,0.104,2.079,0.154,3.619,0.154H381.916z"/>
	<path fill="#FFFFFF" d="M397.085,542.847h-8.777v-9.01h8.777V542.847z M397.085,587.737h-8.777v-38.269h8.777V587.737z"/>
	<path fill="#FFFFFF" d="M439.512,549.469l-14.63,38.269h-8.085l-14.63-38.269h8.854l9.779,27.72l9.779-27.72H439.512z"/>
	<path fill="#FFFFFF" d="M476.164,570.027h-25.641c0.512,3.823,1.911,6.628,4.196,8.412c2.283,1.784,4.991,2.676,8.123,2.676
		c3.952,0,7.803-0.924,11.55-2.771l0.616,7.237c-4.004,1.952-8.266,2.926-12.782,2.926c-3.285,0-6.211-0.5-8.777-1.501
		c-2.567-1.001-4.735-2.399-6.507-4.196c-1.771-1.797-3.118-3.9-4.042-6.314c-0.925-2.412-1.387-5.056-1.387-7.931
		c0-2.772,0.424-5.352,1.271-7.738c0.848-2.388,2.079-4.479,3.696-6.275s3.554-3.208,5.813-4.235c2.259-1.026,4.824-1.54,7.7-1.54
		c2.412,0,4.632,0.398,6.66,1.193c2.027,0.797,3.785,1.913,5.274,3.35c1.488,1.438,2.657,3.17,3.504,5.197
		c0.847,2.028,1.271,4.273,1.271,6.737c0,0.616-0.039,1.322-0.115,2.118C476.511,568.167,476.368,569.053,476.164,570.027z
		 M460.148,556.167c-5.032,0-8.112,2.645-9.24,7.932h16.863c0-2.207-0.616-4.081-1.849-5.621
		C464.691,556.938,462.766,556.167,460.148,556.167z"/>
</g>
</svg>
