<?xml version="1.0" encoding="utf-8"?>
<!-- Generator: Adobe Illustrator 17.0.0, SVG Export Plug-In . SVG Version: 6.00 Build 0)  -->
<!DOCTYPE svg PUBLIC "-//W3C//DTD SVG 1.1//EN" "http://www.w3.org/Graphics/SVG/1.1/DTD/svg11.dtd">
<svg version="1.1" id="Layer_1" xmlns="http://www.w3.org/2000/svg" xmlns:xlink="http://www.w3.org/1999/xlink" x="0px" y="0px"
	 width="764px" height="465.433px" viewBox="0 0 764 465.433" enable-background="new 0 0 764 465.433" xml:space="preserve">
<path fill="none" stroke="#4CBAC5" stroke-width="8.5039" stroke-miterlimit="10" d="M764,12.265H552.477
	c-121.406,0-219.827,98.42-219.827,219.827c0,121.407,98.42,219.827,219.827,219.827H764"/>
<path fill="none" stroke="#4CBAC5" stroke-width="8.5039" stroke-miterlimit="10" d="M0,12.265l211.05,0.003
	c121.406,0,219.826,98.42,219.826,219.827c0,121.408-98.42,219.827-219.826,219.827H0"/>
<rect x="477.57" y="54.043" fill="none" width="260" height="369.141"/>
<text transform="matrix(1 0 0 1 687.7764 69.0354)"><tspan x="0" y="0" fill="#4ABC94" font-family="'Cabin-Regular'" font-size="19.99">Live it</tspan><tspan x="-145.845" y="23.988" fill="#414042" font-family="'Cabin-Regular'" font-size="19.99">Electronic Dance Music</tspan><tspan x="-139.468" y="47.976" fill="#414042" font-family="'Cabin-Regular'" font-size="19.99">Technology &amp; Gadgets</tspan><tspan x="-18.771" y="71.964" fill="#414042" font-family="'Cabin-Regular'" font-size="19.99">Kung Fu</tspan><tspan x="-0.08" y="95.952" fill="#414042" font-family="'Cabin-Regular'" font-size="19.99">LEGO</tspan><tspan x="-6.757" y="143.928" fill="#4ABC94" font-family="'Cabin-Regular'" font-size="19.99">Love it</tspan><tspan x="-116.319" y="167.916" fill="#414042" font-family="'Cabin-Regular'" font-size="19.99">Dancing with Mates</tspan><tspan x="-27.246" y="191.904" fill="#414042" font-family="'Cabin-Regular'" font-size="19.99">Tinkering </tspan><tspan x="-10.015" y="215.892" fill="#414042" font-family="'Cabin-Regular'" font-size="19.99">Movies </tspan><tspan x="18.83" y="239.879" fill="#414042" font-family="'Cabin-Regular'" font-size="19.99">DIY</tspan><tspan x="0.88" y="287.856" fill="#4ABC94" font-family="'Cabin-Regular'" font-size="19.99">Like it</tspan><tspan x="-18.551" y="311.844" fill="#414042" font-family="'Cabin-Regular'" font-size="19.99">Reading</tspan><tspan x="-11.774" y="335.832" fill="#414042" font-family="'Cabin-Regular'" font-size="19.99">Cycling</tspan></text>
<g>
	<path d="M380.129,192.073c1.374,0,2.748,0,4.122,0c0.216,0.039,0.432,0.079,0.648,0.115c2.245,0.376,4.54,0.567,6.728,1.157
		c8.596,2.318,15.445,7.197,20.529,14.505c3.295,4.736,5.311,9.988,6.061,15.717c0.123,0.939,0.23,1.878,0.344,2.817
		c0,1.374,0,2.748,0,4.122c-0.114,0.938-0.22,1.879-0.345,2.816c-0.919,6.899-3.599,13.048-8.07,18.364
		c-6.075,7.222-13.816,11.508-23.187,12.8c-4.741,0.654-9.434,0.363-14.049-0.881c-8.751-2.358-15.701-7.308-20.828-14.77
		c-3.218-4.683-5.186-9.87-5.92-15.514c-0.122-0.938-0.23-1.878-0.345-2.816c0-1.374,0-2.748,0-4.122
		c0.038-0.217,0.097-0.432,0.111-0.65c0.197-2.894,0.742-5.724,1.649-8.475c2.58-7.818,7.254-14.092,14.018-18.781
		c4.741-3.288,9.99-5.308,15.718-6.061C378.252,192.294,379.19,192.187,380.129,192.073z M415.281,228.444
		c-0.001-18.253-14.789-33.054-33.061-33.091c-18.252-0.037-33.121,14.819-33.12,33.092c0,18.252,14.789,33.054,33.06,33.09
		C400.413,261.572,415.282,246.716,415.281,228.444z"/>
	<path fill-rule="evenodd" clip-rule="evenodd" d="M382.652,249.914c-4.388-0.008-8.426-1.286-12.231-3.386
		c-2.36-1.302-4.514-2.902-6.565-4.643c-0.724-0.615-1.053-1.396-0.785-2.319c0.228-0.788,0.791-1.295,1.627-1.447
		c0.757-0.139,1.357,0.184,1.947,0.612c1.844,1.337,3.632,2.77,5.574,3.947c3.732,2.26,7.809,3.358,12.202,2.959
		c3.08-0.28,5.977-1.253,8.597-2.865c2.004-1.233,3.875-2.688,5.775-4.083c1.01-0.741,2.092-0.809,2.92-0.067
		c0.801,0.717,0.97,1.994,0.226,2.767c-0.793,0.824-1.681,1.57-2.595,2.263c-2.698,2.046-5.591,3.757-8.802,4.886
		C387.988,249.435,385.362,249.918,382.652,249.914z"/>
	<path fill-rule="evenodd" clip-rule="evenodd" d="M396.144,218.29c0,1.271,0.053,2.546-0.013,3.813
		c-0.1,1.942-1.648,3.4-3.648,3.527c-1.827,0.116-3.563-1.277-3.892-3.132c-0.045-0.257-0.084-0.521-0.085-0.781
		c-0.006-2.28-0.037-4.562,0.004-6.842c0.057-3.1,3.198-4.914,5.8-3.363c1.089,0.648,1.755,1.627,1.815,2.904
		c0.062,1.288,0.014,2.582,0.014,3.873C396.14,218.29,396.142,218.29,396.144,218.29z"/>
	<path fill-rule="evenodd" clip-rule="evenodd" d="M374.663,218.29c0,1.271,0.053,2.546-0.013,3.813
		c-0.1,1.942-1.649,3.4-3.648,3.527c-1.827,0.116-3.562-1.277-3.892-3.132c-0.045-0.257-0.084-0.521-0.085-0.781
		c-0.006-2.28-0.037-4.562,0.004-6.842c0.057-3.1,3.198-4.914,5.8-3.363c1.089,0.648,1.755,1.627,1.815,2.904
		c0.061,1.288,0.014,2.582,0.014,3.873C374.659,218.29,374.661,218.29,374.663,218.29z"/>
</g>
<rect x="230.658" y="217.949" fill="none" width="140.833" height="31"/>
<text transform="matrix(1 0 0 1 230.6578 238.9493)" font-family="'Cabin-SemiBold'" font-size="28">Work</text>
<rect x="388.489" y="218.949" fill="none" width="125.253" height="31"/>
<text transform="matrix(1 0 0 1 463.2521 239.1994)" font-family="'Cabin-SemiBold'" font-size="27">Play</text>
<text transform="matrix(1 0 0 1 331.109 27.066)" font-family="'Cabin-SemiBold'" font-size="30">Balance</text>
<rect x="26.524" y="54.821" fill="none" width="168.472" height="388.256"/>
<text transform="matrix(1 0 0 1 26.5239 69.8151)"><tspan x="0" y="0" fill="#4ABC94" font-family="'Cabin-Regular'" font-size="19.9912">Confident with:</tspan><tspan x="0" y="23.989" fill="#414042" font-family="'Cabin-Regular'" font-size="19.9912">Google Analytics</tspan><tspan x="0" y="47.979" fill="#414042" font-family="'Cabin-Regular'" font-size="19.9912">Adobe Suite</tspan><tspan x="0" y="71.968" fill="#414042" font-family="'Cabin-Regular'" font-size="19.9912">HTML/CSS</tspan><tspan x="0" y="95.958" fill="#414042" font-family="'Cabin-Regular'" font-size="19.9912">A Camera</tspan><tspan x="0" y="143.937" fill="#4ABC94" font-family="'Cabin-Regular'" font-size="19.9912">Competent with:</tspan><tspan x="0" y="167.926" fill="#414042" font-family="'Cabin-Regular'" font-size="19.9912">So</tspan><tspan x="22.67" y="167.926" fill="#414042" font-family="'Cabin-Regular'" font-size="19.9912">l</tspan><tspan x="27.408" y="167.926" fill="#414042" font-family="'Cabin-Regular'" font-size="19.9912">idworks</tspan><tspan x="0" y="191.916" fill="#414042" font-family="'Cabin-Regular'" font-size="19.9912">Rendering</tspan><tspan x="0" y="215.906" fill="#414042" font-family="'Cabin-Regular'" font-size="19.9912">A</tspan><tspan x="12.314" y="215.906" fill="#414042" font-family="'Cabin-Regular'" font-size="19.9912">r</tspan><tspan x="18.392" y="215.906" fill="#414042" font-family="'Cabin-Regular'" font-size="19.9912">duino</tspan><tspan x="0" y="239.895" fill="#414042" font-family="'Cabin-Regular'" font-size="19.9912">Office &amp; iWork</tspan><tspan x="0" y="287.874" fill="#4ABC94" font-family="'Cabin-Regular'" font-size="19.9912">Capable with:</tspan><tspan x="0" y="311.864" fill="#414042" font-family="'Cabin-Regular'" font-size="19.9912">Linux - Ubuntu</tspan><tspan x="0" y="335.853" fill="#414042" font-family="'Cabin-Regular'" font-size="19.9912">After e</tspan><tspan x="57.054" y="335.853" fill="#414042" font-family="'Cabin-Regular'" font-size="19.9912">f</tspan><tspan x="63.332" y="335.853" fill="#414042" font-family="'Cabin-Regular'" font-size="19.9912">fects</tspan></text>
</svg>
