<?xml version="1.0" encoding="utf-8"?>
<!-- Generator: Adobe Illustrator 17.0.0, SVG Export Plug-In . SVG Version: 6.00 Build 0)  -->
<!DOCTYPE svg PUBLIC "-//W3C//DTD SVG 1.1//EN" "http://www.w3.org/Graphics/SVG/1.1/DTD/svg11.dtd">
<svg version="1.1" id="Layer_1" xmlns="http://www.w3.org/2000/svg" xmlns:xlink="http://www.w3.org/1999/xlink" x="0px" y="0px"
	 width="848px" height="373.231px" viewBox="0 0 848 373.231" enable-background="new 0 0 848 373.231" xml:space="preserve">
<g>
	<rect x="31.321" y="62.705" fill="none" width="129.777" height="13.375"/>
	<text transform="matrix(1 0 0 1 31.3199 73.205)" fill="#4CBAC5" font-family="'Cabin-Medium'" font-size="14">Born into a Toy Shop</text>
	<rect x="31.321" y="78.574" fill="none" width="35.859" height="20.221"/>
	<text transform="matrix(1 0 0 1 31.3203 84.5739)" fill="#414042" font-family="'Cabin-Bold'" font-size="8">92’</text>
</g>
<g>
	
		<line fill="none" stroke="#414042" stroke-linecap="round" stroke-miterlimit="10" stroke-dasharray="2,3,2,3,2,3" x1="26.82" y1="225.766" x2="26.82" y2="61.231"/>
</g>
<line fill="none" stroke="#D1D3D4" stroke-width="4.252" stroke-linecap="round" stroke-miterlimit="10" x1="26.82" y1="225.766" x2="791.75" y2="225.766"/>
<g>
	<g>
		<circle fill="#8CC640" cx="700.926" cy="-204.509" r="34.56"/>
	</g>
	<g>
		<defs>
			<circle id="SVGID_1_" cx="700.926" cy="-204.509" r="34.56"/>
		</defs>
		<clipPath id="SVGID_2_">
			<use xlink:href="#SVGID_1_"  overflow="visible"/>
		</clipPath>
		<g clip-path="url(#SVGID_2_)">
			<path fill-rule="evenodd" clip-rule="evenodd" fill="none" stroke="#3B3939" stroke-miterlimit="10" d="M720.044-184.574
				c0,0.905-0.659,1.64-1.472,1.64h-69.557c-0.813,0-1.472-0.734-1.472-1.64v-39.259c0-0.905,0.659-1.64,1.472-1.64h69.557
				c0.813,0,1.472,0.734,1.472,1.64V-184.574z"/>
			<ellipse fill-rule="evenodd" clip-rule="evenodd" fill="#3B3939" cx="683.793" cy="-204.204" rx="12.898" ry="16.302"/>
			<rect x="669.61" y="-213.512" fill-rule="evenodd" clip-rule="evenodd" fill="none" width="26.366" height="27.119"/>
			<text transform="matrix(1 0 0 1 676.6172 -196.0125)" fill="#8CC640" font-family="'BrandonGrotesque-Medium'" font-size="25">£</text>
		</g>
	</g>
</g>
<g>
	<circle fill="#414142" stroke="#E7E7E7" stroke-width="4" stroke-miterlimit="10" cx="1003.088" cy="-8.654" r="34.56"/>
	<rect x="984.512" y="-21.367" fill-rule="evenodd" clip-rule="evenodd" fill="none" width="39.153" height="27.334"/>
	<text transform="matrix(1 0 0 1 984.5116 2.0693)" fill="#6DB6D4" font-family="'Avenir-Medium'" font-size="31">XP</text>
</g>
<g>
	<circle fill="#4CBAC5" cx="529.308" cy="-204.117" r="35.591"/>
</g>
<g>
	<path fill="#4CBAC5" d="M26.82,233.488c-4.264,0-7.733-3.469-7.733-7.733s3.469-7.732,7.733-7.732s7.733,3.469,7.733,7.732
		S31.084,233.488,26.82,233.488z"/>
	<g>
		<path fill="#FFFFFF" d="M26.821,219.441c3.488,0,6.315,2.827,6.315,6.315c0,3.488-2.827,6.315-6.315,6.315
			s-6.315-2.827-6.315-6.315C20.505,222.267,23.332,219.441,26.821,219.441 M26.821,216.606c-5.045,0-9.15,4.104-9.15,9.149
			c0,5.045,4.105,9.15,9.15,9.15c5.045,0,9.15-4.105,9.15-9.15C35.97,220.71,31.866,216.606,26.821,216.606L26.821,216.606z"/>
	</g>
</g>
<g>
	<g>
		<rect x="217.263" y="303.348" fill="none" width="84.871" height="13.375"/>
		<text transform="matrix(1 0 0 1 217.2626 313.8483)" fill="#993680" font-family="'Cabin-Medium'" font-size="14">A-level</text>
		<rect x="217.263" y="319.723" fill="none" width="89.243" height="15.864"/>
		<text transform="matrix(1 0 0 1 217.2628 325.0435)"><tspan x="0" y="0" fill="#414042" font-family="'Arvo'" font-size="7">Product design, </tspan><tspan x="0" y="8.399" fill="#414042" font-family="'Arvo'" font-size="7">Photography, Art.</tspan></text>
		<rect x="217.263" y="338.587" fill="none" width="35.859" height="20.221"/>
		<text transform="matrix(1 0 0 1 217.2631 344.5873)" fill="#414042" font-family="'Cabin-Bold'" font-size="8">08’- 11’</text>
	</g>
	<g>
		
			<line fill="none" stroke="#414042" stroke-linecap="round" stroke-miterlimit="10" stroke-dasharray="2,3,2,3,2,3" x1="212.763" y1="344.044" x2="212.763" y2="225.756"/>
	</g>
	<g>
		<g>
			<path fill="#BA1D80" d="M212.763,233.488c-4.264,0-7.733-3.469-7.733-7.733s3.469-7.732,7.733-7.732s7.733,3.469,7.733,7.732
				S217.027,233.488,212.763,233.488z"/>
			<g>
				<path fill="#FFFFFF" d="M212.763,219.441c3.488,0,6.315,2.827,6.315,6.315c0,3.488-2.827,6.315-6.315,6.315
					c-3.488,0-6.315-2.827-6.315-6.315C206.448,222.267,209.275,219.441,212.763,219.441 M212.763,216.606
					c-5.045,0-9.15,4.104-9.15,9.149c0,5.045,4.105,9.15,9.15,9.15c5.045,0,9.15-4.105,9.15-9.15
					C221.913,220.71,217.808,216.606,212.763,216.606L212.763,216.606z"/>
			</g>
		</g>
	</g>
</g>
<circle fill="#D1D2D4" cx="798.576" cy="225.792" r="2.276"/>
<circle fill="#D1D2D4" cx="806.107" cy="225.747" r="2.276"/>
<circle fill="#D1D2D4" cx="813.637" cy="225.793" r="2.276"/>
<rect x="105.779" y="440.804" fill="#4CBAC5" width="319.057" height="308.953"/>
<rect x="374.99" y="440.804" fill="#4ABC94" width="319.057" height="308.953"/>
<rect x="-129.797" y="532.036" fill="#262626" width="104.415" height="74.325"/>
<rect x="-25.382" y="532.036" fill="#3B3939" width="104.415" height="74.325"/>
<rect x="-25.382" y="388.287" fill="#6B6766" width="104.415" height="74.325"/>
<g>
	
		<line fill="none" stroke="#414042" stroke-linecap="round" stroke-miterlimit="10" stroke-dasharray="2,3,2,3,2,3" x1="1015.464" y1="330.607" x2="1015.464" y2="66.014"/>
</g>
<rect x="873.992" y="229.167" fill="#4CBAC5" width="10.663" height="95.555"/>
<rect x="873.992" y="73.613" fill="#654A82" width="10.663" height="95.555"/>
<rect x="873.992" y="148.54" fill="#4ABC94" width="10.663" height="95.555"/>
<rect x="884.655" y="229.167" fill="#4CBAC5" width="10.663" height="95.555"/>
<rect x="884.655" y="73.613" fill="#BA1D80" width="10.663" height="95.555"/>
<g>
	<rect x="726.831" y="943.524" fill="#654A82" width="15.189" height="308.953"/>
	<rect x="730.839" y="943.524" fill="#664982" width="15.184" height="308.953"/>
	<rect x="734.847" y="943.524" fill="#674982" width="15.178" height="308.953"/>
	<rect x="738.855" y="943.524" fill="#684982" width="15.172" height="308.953"/>
	<rect x="742.863" y="943.524" fill="#694982" width="15.167" height="308.953"/>
	<rect x="746.871" y="943.524" fill="#694982" width="15.161" height="308.953"/>
	<rect x="750.879" y="943.524" fill="#6A4982" width="15.155" height="308.953"/>
	<rect x="754.886" y="943.524" fill="#6B4882" width="15.15" height="308.953"/>
	<rect x="758.894" y="943.524" fill="#6C4882" width="15.144" height="308.953"/>
	<rect x="762.902" y="943.524" fill="#6D4882" width="15.138" height="308.953"/>
	<rect x="766.91" y="943.524" fill="#6D4882" width="15.133" height="308.953"/>
	<rect x="770.918" y="943.524" fill="#6E4882" width="15.127" height="308.953"/>
	<rect x="774.926" y="943.524" fill="#6F4782" width="15.122" height="308.953"/>
	<rect x="778.934" y="943.524" fill="#704782" width="15.116" height="308.953"/>
	<rect x="782.942" y="943.524" fill="#714782" width="15.11" height="308.953"/>
	<rect x="786.95" y="943.524" fill="#724782" width="15.105" height="308.953"/>
	<rect x="790.958" y="943.524" fill="#724682" width="15.099" height="308.953"/>
	<rect x="794.966" y="943.524" fill="#734682" width="15.093" height="308.953"/>
	<rect x="798.974" y="943.524" fill="#744682" width="15.088" height="308.953"/>
	<rect x="802.981" y="943.524" fill="#754682" width="15.082" height="308.953"/>
	<rect x="806.989" y="943.524" fill="#754582" width="15.076" height="308.953"/>
	<rect x="810.997" y="943.524" fill="#764582" width="15.071" height="308.953"/>
	<rect x="815.005" y="943.524" fill="#774582" width="15.065" height="308.953"/>
	<rect x="819.013" y="943.524" fill="#784581" width="15.059" height="308.953"/>
	<rect x="823.021" y="943.524" fill="#794481" width="15.054" height="308.953"/>
	<rect x="827.029" y="943.524" fill="#794481" width="15.048" height="308.953"/>
	<rect x="831.037" y="943.524" fill="#7A4481" width="15.043" height="308.953"/>
	<rect x="835.045" y="943.524" fill="#7B4481" width="15.037" height="308.953"/>
	<rect x="839.053" y="943.524" fill="#7C4381" width="15.031" height="308.953"/>
	<rect x="843.061" y="943.524" fill="#7C4381" width="15.026" height="308.953"/>
	<rect x="847.068" y="943.524" fill="#7D4381" width="15.02" height="308.953"/>
	<rect x="851.076" y="943.524" fill="#7E4381" width="15.014" height="308.953"/>
	<rect x="855.084" y="943.524" fill="#7F4281" width="15.009" height="308.953"/>
	<rect x="859.092" y="943.524" fill="#804281" width="15.003" height="308.953"/>
	<rect x="863.1" y="943.524" fill="#804281" width="14.997" height="308.953"/>
	<rect x="867.108" y="943.524" fill="#814181" width="14.992" height="308.953"/>
	<rect x="871.116" y="943.524" fill="#824181" width="14.986" height="308.953"/>
	<rect x="875.124" y="943.524" fill="#834181" width="14.98" height="308.953"/>
	<rect x="879.132" y="943.524" fill="#834181" width="14.975" height="308.953"/>
	<rect x="883.14" y="943.524" fill="#844081" width="14.969" height="308.953"/>
	<rect x="887.148" y="943.524" fill="#854081" width="14.964" height="308.953"/>
	<rect x="891.156" y="943.524" fill="#864081" width="14.958" height="308.953"/>
	<rect x="895.163" y="943.524" fill="#863F81" width="14.952" height="308.953"/>
	<rect x="899.171" y="943.524" fill="#873F81" width="14.947" height="308.953"/>
	<rect x="903.179" y="943.524" fill="#883F81" width="14.941" height="308.953"/>
	<rect x="907.187" y="943.524" fill="#893F81" width="14.935" height="308.953"/>
	<rect x="911.195" y="943.524" fill="#893E81" width="14.93" height="308.953"/>
	<rect x="915.203" y="943.524" fill="#8A3E81" width="14.924" height="308.953"/>
	<rect x="919.211" y="943.524" fill="#8B3E81" width="14.918" height="308.953"/>
	<rect x="923.219" y="943.524" fill="#8C3D81" width="14.913" height="308.953"/>
	<rect x="927.227" y="943.524" fill="#8C3D81" width="14.907" height="308.953"/>
	<rect x="931.235" y="943.524" fill="#8D3D81" width="14.902" height="308.953"/>
	<rect x="935.243" y="943.524" fill="#8E3C81" width="14.896" height="308.953"/>
	<rect x="939.25" y="943.524" fill="#8F3C81" width="14.89" height="308.953"/>
	<rect x="943.258" y="943.524" fill="#903B81" width="14.885" height="308.953"/>
	<rect x="947.266" y="943.524" fill="#903B81" width="14.879" height="308.953"/>
	<rect x="951.274" y="943.524" fill="#913B81" width="14.873" height="308.953"/>
	<rect x="955.282" y="943.524" fill="#923A81" width="14.868" height="308.953"/>
	<rect x="959.29" y="943.524" fill="#933A81" width="14.862" height="308.953"/>
	<rect x="963.298" y="943.524" fill="#933A81" width="14.856" height="308.953"/>
	<rect x="967.306" y="943.524" fill="#943980" width="14.851" height="308.953"/>
	<rect x="971.314" y="943.524" fill="#953980" width="14.845" height="308.953"/>
	<rect x="975.322" y="943.524" fill="#963880" width="14.839" height="308.953"/>
	<rect x="979.33" y="943.524" fill="#963880" width="14.834" height="308.953"/>
	<rect x="983.338" y="943.524" fill="#973880" width="14.828" height="308.953"/>
	<rect x="987.345" y="943.524" fill="#983780" width="14.823" height="308.953"/>
	<rect x="991.353" y="943.524" fill="#993780" width="14.817" height="308.953"/>
	<rect x="995.361" y="943.524" fill="#993680" width="14.811" height="308.953"/>
	<rect x="999.369" y="943.524" fill="#9A3680" width="14.806" height="308.953"/>
	<rect x="1003.377" y="943.524" fill="#9B3580" width="14.8" height="308.953"/>
	<rect x="1007.385" y="943.524" fill="#9C3580" width="14.794" height="308.953"/>
	<rect x="1011.393" y="943.524" fill="#9D3480" width="14.789" height="308.953"/>
	<rect x="1015.401" y="943.524" fill="#9D3480" width="14.783" height="308.953"/>
	<rect x="1019.409" y="943.524" fill="#9E3380" width="14.777" height="308.953"/>
	<rect x="1023.417" y="943.524" fill="#9F3380" width="14.772" height="308.953"/>
	<rect x="1027.425" y="943.524" fill="#A03280" width="14.766" height="308.953"/>
	<rect x="1031.432" y="943.524" fill="#A13280" width="14.76" height="308.953"/>
	<rect x="1035.44" y="943.524" fill="#A13180" width="14.755" height="308.953"/>
	<rect x="1039.448" y="943.524" fill="#A23180" width="14.749" height="308.953"/>
	<rect x="1043.456" y="943.524" fill="#A33080" width="14.744" height="308.953"/>
	<rect x="1047.464" y="943.524" fill="#A43080" width="14.738" height="308.953"/>
	<rect x="1051.472" y="943.524" fill="#A42F80" width="14.732" height="308.953"/>
	<rect x="1055.48" y="943.524" fill="#A52F80" width="14.727" height="308.953"/>
	<rect x="1059.488" y="943.524" fill="#A62E80" width="14.721" height="308.953"/>
	<rect x="1063.496" y="943.524" fill="#A72D80" width="14.715" height="308.953"/>
	<rect x="1067.504" y="943.524" fill="#A82D80" width="14.71" height="308.953"/>
	<rect x="1071.512" y="943.524" fill="#A82C80" width="14.704" height="308.953"/>
	<rect x="1075.52" y="943.524" fill="#A92C80" width="14.698" height="308.953"/>
	<rect x="1079.528" y="943.524" fill="#AA2B80" width="14.693" height="308.953"/>
	<rect x="1083.536" y="943.524" fill="#AB2A7F" width="14.687" height="308.953"/>
	<rect x="1087.543" y="943.524" fill="#AC2A7F" width="14.681" height="308.953"/>
	<rect x="1091.551" y="943.524" fill="#AD297F" width="14.676" height="308.953"/>
	<rect x="1095.559" y="943.524" fill="#AD287F" width="14.67" height="308.953"/>
	<rect x="1099.567" y="943.524" fill="#AE277F" width="14.665" height="308.953"/>
	<rect x="1103.575" y="943.524" fill="#AF277F" width="14.659" height="308.953"/>
	<rect x="1107.583" y="943.524" fill="#B0267F" width="14.653" height="308.953"/>
	<rect x="1111.591" y="943.524" fill="#B1257F" width="14.648" height="308.953"/>
	<rect x="1115.599" y="943.524" fill="#B2257F" width="14.642" height="308.953"/>
	<rect x="1119.607" y="943.524" fill="#B3247F" width="14.636" height="308.953"/>
	<rect x="1123.615" y="943.524" fill="#B3237F" width="14.631" height="308.953"/>
	<rect x="1127.623" y="943.524" fill="#B42280" width="14.625" height="308.953"/>
	<rect x="1131.63" y="943.524" fill="#B52280" width="14.619" height="308.953"/>
	<rect x="1135.638" y="943.524" fill="#B62180" width="14.614" height="308.953"/>
	<rect x="1139.646" y="943.524" fill="#B72080" width="14.608" height="308.953"/>
	<rect x="1143.654" y="943.524" fill="#B81F80" width="14.602" height="308.953"/>
	<rect x="1147.662" y="943.524" fill="#B91E80" width="14.597" height="308.953"/>
	<rect x="1151.67" y="943.524" fill="#BA1D80" width="14.591" height="308.953"/>
</g>
<rect x="884.655" y="148.54" fill="#8CC640" width="10.663" height="95.555"/>
<g>
	<rect x="907.143" y="245.705" fill="none" width="103.821" height="13.494"/>
	<text transform="matrix(1 0 0 1 937.773 256.2049)" fill="#4CBAC5" font-family="'Cabin-Medium'" font-size="14">South Africa</text>
	<rect x="904.629" y="262.199" fill="none" width="106.335" height="15.864"/>
	<text transform="matrix(1 0 0 1 925.0183 267.5198)"><tspan x="0" y="0" fill="#414042" font-family="'Arvo'" font-size="7">Odd-job charity work in a </tspan><tspan x="11.078" y="8.399" fill="#414042" font-family="'Arvo'" font-size="7">township community. </tspan></text>
	<rect x="975.105" y="281.063" fill="none" width="35.859" height="20.221"/>
	<text transform="matrix(1 0 0 1 1003.5244 287.0636)" fill="#414042" font-family="'Cabin-Bold'" font-size="8">11’</text>
</g>
<g>
	<rect x="1019.964" y="245.705" fill="none" width="84.871" height="13.375"/>
	<text transform="matrix(1 0 0 1 1019.9629 256.205)" fill="#4CBAC5" font-family="'Cabin-Medium'" font-size="14">Mixtable</text>
	<rect x="1019.964" y="262.08" fill="none" width="89.243" height="15.864"/>
	<text transform="matrix(1 0 0 1 1019.963 267.4002)"><tspan x="0" y="0" fill="#414042" font-family="'Arvo'" font-size="7">UX/UI Designer,</tspan><tspan x="0" y="8.399" fill="#414042" font-family="'Arvo'" font-size="7">Munich</tspan></text>
	<rect x="1019.964" y="280.944" fill="none" width="35.859" height="20.221"/>
	<text transform="matrix(1 0 0 1 1019.9633 286.944)" fill="#414042" font-family="'Cabin-Bold'" font-size="8">13’-14’</text>
</g>
<g>
	<rect x="906.62" y="171.497" fill="none" width="104.344" height="13.375"/>
	<text transform="matrix(1 0 0 1 926.1949 181.9972)" fill="#8CC640" font-family="'Cabin-Medium'" font-size="14">Kennedy’s Bar</text>
	<rect x="921.721" y="187.872" fill="none" width="89.243" height="14.606"/>
	<text transform="matrix(1 0 0 1 936.948 193.1924)"><tspan x="0" y="0" fill="#414042" font-family="'Arvo'" font-size="7">Glassie in an Irish bar</tspan><tspan x="17.807" y="8.399" fill="#414042" font-family="'Arvo'" font-size="7">while in Munich</tspan></text>
	<rect x="975.105" y="206.616" fill="none" width="35.859" height="20.221"/>
	<text transform="matrix(1 0 0 1 989.6846 212.6167)" fill="#414042" font-family="'Cabin-Bold'" font-size="8">13’-14’</text>
</g>
<g>
	<rect x="1019.964" y="171.497" fill="none" width="84.871" height="13.255"/>
	<text transform="matrix(1 0 0 1 1019.9639 181.9972)" fill="#8CC640" font-family="'Cabin-Medium'" font-size="14">Orb 360 </text>
	<rect x="1019.964" y="187.752" fill="none" width="89.243" height="15.864"/>
	<text transform="matrix(1 0 0 1 1019.963 193.0728)"><tspan x="0" y="0" fill="#414042" font-family="'Arvo'" font-size="7">Zorb ball operator and </tspan><tspan x="0" y="8.399" fill="#414042" font-family="'Arvo'" font-size="7">head-cam specialist.</tspan></text>
	<rect x="1019.964" y="206.616" fill="none" width="35.859" height="20.221"/>
	<text transform="matrix(1 0 0 1 1019.9633 212.6167)" fill="#414042" font-family="'Cabin-Bold'" font-size="8">11’</text>
</g>
<g>
	<rect x="926.093" y="83.684" fill="none" width="84.871" height="13.375"/>
	<text transform="matrix(1 0 0 1 932.4244 94.1841)" fill="#BA1D80" font-family="'Cabin-Medium'" font-size="14">Soup Dragon</text>
	<rect x="921.721" y="100.059" fill="none" width="89.243" height="15.864"/>
	<text transform="matrix(1 0 0 1 924.4929 105.3793)"><tspan x="0" y="0" fill="#414042" font-family="'Arvo'" font-size="7">Traditional childrens  toy </tspan><tspan x="28.211" y="8.399" fill="#414042" font-family="'Arvo'" font-size="7">shop. (Part Time) </tspan></text>
	<rect x="975.105" y="118.923" fill="none" width="35.859" height="20.221"/>
	<text transform="matrix(1 0 0 1 986.9004 124.9231)" fill="#414042" font-family="'Cabin-Bold'" font-size="8">05’- 11’</text>
</g>
<g display="none">
	<rect x="1019.964" y="83.565" display="inline" fill="none" width="84.871" height="13.375"/>
	
		<text transform="matrix(1 0 0 1 1019.9629 94.0645)" display="inline" fill="#BA1D80" font-family="'Cabin-Medium'" font-size="14">Soup Dragon</text>
	<rect x="1019.964" y="99.939" display="inline" fill="none" width="89.243" height="15.864"/>
	<text transform="matrix(1 0 0 1 1019.963 105.2598)" display="inline"><tspan x="0" y="0" fill="#414042" font-family="'Arvo'" font-size="7">Traditional childrens  toy </tspan><tspan x="0" y="8.399" fill="#414042" font-family="'Arvo'" font-size="7">shop. (Part Time) </tspan></text>
	<rect x="1019.964" y="118.803" display="inline" fill="none" width="35.859" height="20.221"/>
	<text transform="matrix(1 0 0 1 1019.9633 124.8036)" display="inline" fill="#414042" font-family="'Cabin-Bold'" font-size="8">05’- 11’</text>
</g>
<rect x="858.001" y="278.063" fill="none" stroke="#2E3192" stroke-width="0.2835" stroke-miterlimit="10" width="357.689" height="3"/>
<rect x="857.218" y="194.817" fill="none" stroke="#2E3192" stroke-width="0.2835" stroke-miterlimit="10" width="357.689" height="3"/>
<rect x="855" y="114.423" fill="none" stroke="#2E3192" stroke-width="0.2835" stroke-miterlimit="10" width="357.689" height="3"/>
<rect x="3.637" y="-52.276" fill="#4CBAC5" width="843.909" height="10.663"/>
<rect x="3.637" y="-62.94" fill="#993680" width="843.909" height="10.663"/>
<rect x="3.637" y="-84.267" fill="#3B3939" width="843.909" height="10.663"/>
<rect x="2.841" y="-73.603" fill="#4ABC94" width="843.909" height="10.663"/>
<g>
	<g>
		<path fill="#8DC63F" d="M143.34,233.488c-4.264,0-7.733-3.469-7.733-7.733s3.469-7.732,7.733-7.732s7.733,3.469,7.733,7.732
			S147.604,233.488,143.34,233.488z"/>
		<g>
			<path fill="#FFFFFF" d="M143.341,219.441c3.488,0,6.315,2.827,6.315,6.315c0,3.488-2.827,6.315-6.315,6.315
				c-3.488,0-6.315-2.827-6.315-6.315C137.025,222.267,139.852,219.441,143.341,219.441 M143.341,216.606
				c-5.045,0-9.15,4.104-9.15,9.149c0,5.045,4.105,9.15,9.15,9.15c5.045,0,9.15-4.105,9.15-9.15
				C152.49,220.71,148.386,216.606,143.341,216.606L143.341,216.606z"/>
		</g>
	</g>
</g>
<g>
	<rect x="1019.964" y="83.565" fill="none" width="109.083" height="13.375"/>
	<text transform="matrix(1 0 0 1 1019.9639 94.0645)" fill="#BA1D80" font-family="'Cabin-Medium'" font-size="14">Brunel University</text>
	<rect x="1019.964" y="99.939" fill="none" width="89.243" height="15.864"/>
	<text transform="matrix(1 0 0 1 1019.963 105.2598)"><tspan x="0" y="0" fill="#414042" font-family="'Arvo'" font-size="7">Industrial Design </tspan><tspan x="0" y="8.399" fill="#414042" font-family="'Arvo'" font-size="7">&amp; Technology BA</tspan></text>
	<rect x="1019.964" y="118.803" fill="none" width="35.859" height="20.221"/>
	<text transform="matrix(1 0 0 1 1019.9633 124.8036)" fill="#414042" font-family="'Cabin-Bold'" font-size="8">11’- 15’</text>
</g>
<rect x="1010.964" y="76.166" fill="#414042" width="4.5" height="301.484"/>
<rect x="1015.464" y="76.166" fill="#414042" width="4.795" height="301.484"/>
<g>
	<g>
		
			<line fill="none" stroke="#414042" stroke-linecap="round" stroke-miterlimit="10" stroke-dasharray="2,3,2,3,2,3" x1="334.007" y1="319.854" x2="334.007" y2="225.756"/>
	</g>
	<g>
		<g>
			<path fill="#4CBAC5" d="M334.007,233.488c-4.264,0-7.733-3.469-7.733-7.733s3.469-7.732,7.733-7.732s7.733,3.469,7.733,7.732
				S338.27,233.488,334.007,233.488z"/>
			<g>
				<path fill="#FFFFFF" d="M334.007,219.441c3.488,0,6.315,2.827,6.315,6.315c0,3.488-2.827,6.315-6.315,6.315
					s-6.315-2.827-6.315-6.315C327.691,222.267,330.518,219.441,334.007,219.441 M334.007,216.606c-5.045,0-9.15,4.104-9.15,9.149
					c0,5.045,4.105,9.15,9.15,9.15c5.045,0,9.15-4.105,9.15-9.15C343.156,220.71,339.052,216.606,334.007,216.606L334.007,216.606z"
					/>
			</g>
		</g>
	</g>
	<g>
		<rect x="338.507" y="279.602" fill="none" width="84.871" height="13.375"/>
		<text transform="matrix(1 0 0 1 338.506 290.1018)" fill="#4CBAC5" font-family="'Cabin-Medium'" font-size="14">South Africa</text>
		<rect x="338.507" y="295.977" fill="none" width="89.243" height="15.864"/>
		<text transform="matrix(1 0 0 1 338.5062 301.297)"><tspan x="0" y="0" fill="#414042" font-family="'Arvo'" font-size="7">Teaching secondary </tspan><tspan x="0" y="8.399" fill="#414042" font-family="'Arvo'" font-size="7">school age children</tspan></text>
		<rect x="338.507" y="314.841" fill="none" width="35.859" height="20.221"/>
		<text transform="matrix(1 0 0 1 338.5064 320.8408)" fill="#414042" font-family="'Cabin-Bold'" font-size="8">09’</text>
	</g>
</g>
<g>
	<path fill="#8DC63F" d="M447.812,233.488c-4.264,0-7.733-3.469-7.733-7.733s3.469-7.732,7.733-7.732s7.733,3.469,7.733,7.732
		S452.076,233.488,447.812,233.488z"/>
	<g>
		<path fill="#FFFFFF" d="M447.812,219.441c3.488,0,6.315,2.827,6.315,6.315c0,3.488-2.827,6.315-6.315,6.315
			s-6.315-2.827-6.315-6.315C441.497,222.267,444.324,219.441,447.812,219.441 M447.812,216.606c-5.045,0-9.15,4.104-9.15,9.149
			c0,5.045,4.105,9.15,9.15,9.15c5.045,0,9.15-4.105,9.15-9.15C456.962,220.71,452.857,216.606,447.812,216.606L447.812,216.606z"/>
	</g>
</g>
<g>
	<path fill="#8DC63F" d="M507.712,233.488c-4.264,0-7.733-3.469-7.733-7.733s3.469-7.732,7.733-7.732s7.733,3.469,7.733,7.732
		S511.976,233.488,507.712,233.488z"/>
	<g>
		<path fill="#FFFFFF" d="M507.712,219.441c3.488,0,6.315,2.827,6.315,6.315c0,3.488-2.827,6.315-6.315,6.315
			s-6.315-2.827-6.315-6.315C501.397,222.267,504.224,219.441,507.712,219.441 M507.712,216.606c-5.045,0-9.15,4.104-9.15,9.149
			c0,5.045,4.105,9.15,9.15,9.15c5.045,0,9.15-4.105,9.15-9.15C516.862,220.71,512.758,216.606,507.712,216.606L507.712,216.606z"/>
	</g>
</g>
<rect x="1172.09" y="243.533" fill="none" width="99.354" height="62.14"/>
<text transform="matrix(1 0 0 1 1172.0902 254.1168)"><tspan x="0" y="0" fill="#6DB6D4" font-family="'Avenir-Medium'" font-size="14">Mixtable</tspan><tspan x="0" y="10.8" fill="#414042" font-family="'Avenir-Light'" font-size="9">UX/UI Designer,</tspan><tspan x="0" y="21.6" fill="#414042" font-family="'Avenir-Light'" font-size="9">Munich</tspan><tspan x="0" y="38.4" fill="#414042" font-family="'Avenir-Roman'" font-size="14">13’-14’</tspan></text>
<g>
	<g>
		<circle fill="#BA1D80" cx="614.038" cy="-204.117" r="35.591"/>
	</g>
	<g>
		
			<path fill-rule="evenodd" clip-rule="evenodd" fill="none" stroke="#414042" stroke-width="2.126" stroke-linejoin="round" stroke-miterlimit="10" d="
			M596.163-209.706v15.143c0,3.618,8.003,8.896,17.875,8.896s17.875-5.278,17.875-8.896v-15.143H596.163z"/>
		
			<line fill="#BA1D80" stroke="#414042" stroke-width="1.7008" stroke-linecap="round" stroke-linejoin="round" stroke-miterlimit="10" x1="592.463" y1="-214.443" x2="592.463" y2="-194.762"/>
		<polygon fill="#BA1D80" stroke="#414042" stroke-width="2.126" stroke-miterlimit="10" points="614.038,-198.673 
			584.507,-212.964 614.038,-222.564 643.569,-212.964 		"/>
		
			<line fill="#BA1D80" stroke="#414042" stroke-width="2.126" stroke-linecap="round" stroke-miterlimit="10" x1="613.666" y1="-212.786" x2="592.463" y2="-216.289"/>
	</g>
</g>
<g>
	<defs>
		<circle id="SVGID_3_" cx="529.308" cy="-204.117" r="35.591"/>
	</defs>
	<clipPath id="SVGID_4_">
		<use xlink:href="#SVGID_3_"  overflow="visible"/>
	</clipPath>
	<g clip-path="url(#SVGID_4_)">
		<path fill-rule="evenodd" clip-rule="evenodd" fill="none" stroke="#414042" stroke-width="2.126" stroke-miterlimit="10" d="
			M538.136-205.079c0,1.141-0.925,2.065-2.065,2.065h-13.526c-1.141,0-2.065-0.925-2.065-2.065v-7.684
			c0-1.141,0.925-2.065,2.065-2.065h13.526c1.141,0,2.065,0.925,2.065,2.065V-205.079z"/>
		<path fill-rule="evenodd" clip-rule="evenodd" fill="#4CBAC5" stroke="#414042" stroke-width="1.4173" stroke-miterlimit="10" d="
			M558.709-170.924c0,2.121-1.72,3.841-3.841,3.841h-51.121c-2.121,0-3.841-1.72-3.841-3.841v-34.156
			c0-2.121,1.72-3.841,3.841-3.841h51.121c2.121,0,3.841,1.72,3.841,3.841V-170.924z"/>
		
			<line fill="#6DB6D5" stroke="#414042" stroke-width="1.4173" stroke-miterlimit="10" x1="499.906" y1="-197.905" x2="558.709" y2="-197.905"/>
		<path fill="#414042" d="M535.919-195.804c0,0.653-0.529,1.182-1.182,1.182h-10.859c-0.653,0-1.182-0.529-1.182-1.182v-4.203
			c0-0.653,0.529-1.182,1.182-1.182h10.859c0.653,0,1.182,0.529,1.182,1.182V-195.804z"/>
	</g>
</g>
<g>
	<g>
		<path fill="#8CC640" d="M700.458-87.783c-20.619,0-37.394-16.775-37.394-37.395s16.774-37.395,37.394-37.395
			c20.62,0,37.396,16.775,37.396,37.395S721.078-87.783,700.458-87.783z"/>
		<g>
			<path fill="#F1F2F2" d="M700.458-159.739c19.089,0,34.56,15.471,34.56,34.561c0,19.088-15.472,34.561-34.56,34.561
				c-19.089,0-34.559-15.473-34.559-34.561C665.899-144.268,681.369-159.739,700.458-159.739 M700.458-165.408
				c-22.182,0-40.228,18.047-40.228,40.23c0,22.183,18.046,40.23,40.228,40.23c22.183,0,40.23-18.047,40.23-40.23
				C740.688-147.361,722.641-165.408,700.458-165.408L700.458-165.408z"/>
		</g>
	</g>
	<g>
		<defs>
			<circle id="SVGID_5_" cx="700.459" cy="-125.178" r="34.56"/>
		</defs>
		<clipPath id="SVGID_6_">
			<use xlink:href="#SVGID_5_"  overflow="visible"/>
		</clipPath>
		<g clip-path="url(#SVGID_6_)">
			<path fill-rule="evenodd" clip-rule="evenodd" fill="none" stroke="#F1F2F2" stroke-miterlimit="10" d="M719.576-105.243
				c0,0.905-0.659,1.64-1.472,1.64h-69.557c-0.813,0-1.472-0.734-1.472-1.64v-39.259c0-0.905,0.659-1.64,1.472-1.64h69.557
				c0.813,0,1.472,0.734,1.472,1.64V-105.243z"/>
			<ellipse fill-rule="evenodd" clip-rule="evenodd" fill="#F1F2F2" cx="683.325" cy="-124.872" rx="12.898" ry="16.302"/>
			<rect x="669.142" y="-134.181" fill-rule="evenodd" clip-rule="evenodd" fill="none" width="26.366" height="27.119"/>
			<text transform="matrix(1 0 0 1 676.1504 -116.6806)" fill="#8CC640" font-family="'BrandonGrotesque-Medium'" font-size="25">£</text>
		</g>
	</g>
</g>
<g>
	<g>
		<path fill="#BA1D80" d="M613.572-86.36c-21.188,0-38.428-17.238-38.428-38.426c0-21.187,17.239-38.423,38.428-38.423
			c21.187,0,38.424,17.236,38.424,38.423C651.996-103.598,634.759-86.36,613.572-86.36z"/>
		<path fill="#FFFFFF" d="M613.572-160.375c19.659,0,35.59,15.932,35.59,35.589c0,19.659-15.931,35.592-35.59,35.592
			c-19.659,0-35.593-15.933-35.593-35.592C577.979-144.443,593.913-160.375,613.572-160.375 M613.572-166.044
			c-22.752,0-41.262,18.508-41.262,41.258c0,22.751,18.51,41.261,41.262,41.261c22.75,0,41.259-18.51,41.259-41.261
			C654.831-147.536,636.322-166.044,613.572-166.044L613.572-166.044z"/>
	</g>
	<g>
		
			<path fill-rule="evenodd" clip-rule="evenodd" fill="none" stroke="#F1F2F2" stroke-width="2.126" stroke-linejoin="round" stroke-miterlimit="10" d="
			M596.701-130.06v14.291c0,3.414,7.553,8.395,16.869,8.395s16.869-4.981,16.869-8.395v-14.291H596.701z"/>
		
			<line fill="#BA1D80" stroke="#F1F2F2" stroke-width="1.7008" stroke-linecap="round" stroke-linejoin="round" stroke-miterlimit="10" x1="593.209" y1="-134.531" x2="593.209" y2="-115.957"/>
		<polygon fill="#BA1D80" stroke="#F1F2F2" stroke-width="2.126" stroke-linejoin="round" stroke-miterlimit="10" points="
			613.57,-119.648 585.7,-133.134 613.57,-142.195 641.44,-133.134 		"/>
		
			<line fill="#BA1D80" stroke="#F1F2F2" stroke-width="2.126" stroke-linecap="round" stroke-miterlimit="10" x1="613.219" y1="-132.967" x2="593.209" y2="-136.273"/>
	</g>
</g>
<g>
	<g>
		<path fill="#4CBAC5" d="M527.906-86.36c-21.188,0-38.428-17.238-38.428-38.426c0-21.187,17.239-38.423,38.428-38.423
			c21.188,0,38.425,17.236,38.425,38.423C566.331-103.598,549.094-86.36,527.906-86.36z"/>
		<g>
			<path fill="#FFFFFF" d="M527.906-160.375c19.659,0,35.59,15.932,35.59,35.589c0,19.659-15.931,35.592-35.59,35.592
				c-19.659,0-35.593-15.933-35.593-35.592C492.313-144.443,508.247-160.375,527.906-160.375 M527.906-166.044
				c-22.752,0-41.262,18.508-41.262,41.258c0,22.751,18.51,41.261,41.262,41.261c22.75,0,41.259-18.51,41.259-41.261
				C569.165-147.536,550.656-166.044,527.906-166.044L527.906-166.044z"/>
		</g>
	</g>
	<g>
		<defs>
			<circle id="SVGID_7_" cx="527.904" cy="-124.786" r="35.591"/>
		</defs>
		<clipPath id="SVGID_8_">
			<use xlink:href="#SVGID_7_"  overflow="visible"/>
		</clipPath>
		<g clip-path="url(#SVGID_8_)">
			<path fill-rule="evenodd" clip-rule="evenodd" fill="none" stroke="#F1F2F2" stroke-width="2.126" stroke-miterlimit="10" d="
				M536.733-125.747c0,1.141-0.925,2.065-2.065,2.065h-13.526c-1.141,0-2.065-0.925-2.065-2.065v-7.684
				c0-1.141,0.925-2.065,2.065-2.065h13.526c1.141,0,2.065,0.925,2.065,2.065V-125.747z"/>
			
				<path fill-rule="evenodd" clip-rule="evenodd" fill="#4CBAC5" stroke="#F1F2F2" stroke-width="1.4173" stroke-miterlimit="10" d="
				M557.306-91.592c0,2.121-1.72,3.841-3.841,3.841h-51.121c-2.121,0-3.841-1.72-3.841-3.841v-34.156
				c0-2.121,1.72-3.841,3.841-3.841h51.121c2.121,0,3.841,1.72,3.841,3.841V-91.592z"/>
			
				<line fill="#6DB6D5" stroke="#F1F2F2" stroke-width="1.4173" stroke-miterlimit="10" x1="498.503" y1="-118.574" x2="557.306" y2="-118.574"/>
			<path fill="#F1F2F2" d="M534.516-116.472c0,0.653-0.529,1.182-1.182,1.182h-10.859c-0.653,0-1.182-0.529-1.182-1.182v-4.203
				c0-0.653,0.529-1.182,1.182-1.182h10.859c0.653,0,1.182,0.529,1.182,1.182V-116.472z"/>
		</g>
	</g>
</g>
<g>
	<g>
		
			<line fill="none" stroke="#414042" stroke-linecap="round" stroke-miterlimit="10" stroke-dasharray="2,3,2,3,2,3" x1="148.341" y1="225.766" x2="148.341" y2="116.421"/>
	</g>
	<g>
		<rect x="58.97" y="116.421" fill="none" width="84.871" height="13.375"/>
		<text transform="matrix(1 0 0 1 65.3018 126.9207)" fill="#4ABC94" font-family="'Cabin-Medium'" font-size="14">Soup Dragon</text>
		<rect x="54.598" y="132.795" fill="none" width="89.243" height="15.864"/>
		<text transform="matrix(1 0 0 1 57.3702 138.1159)"><tspan x="0" y="0" fill="#58595B" font-family="'Arvo'" font-size="7">Traditional childrens  toy </tspan><tspan x="28.211" y="8.399" fill="#58595B" font-family="'Arvo'" font-size="7">shop. (Part Time) </tspan></text>
		<rect x="107.982" y="151.659" fill="none" width="35.859" height="20.221"/>
		<text transform="matrix(1 0 0 1 119.7777 157.6597)" fill="#414042" font-family="'Cabin-Bold'" font-size="8">05’- 11’</text>
	</g>
	<g>
		<g>
			<g>
				<path fill="#4ABC94" d="M148.341,239.793c-7.735,0-14.027-6.293-14.027-14.028s6.293-14.028,14.027-14.028
					c7.735,0,14.028,6.293,14.028,14.028S156.076,239.793,148.341,239.793z"/>
			</g>
			<g>
				<g>
					<path fill="#FFFFFF" d="M148.34,212.801c7.161,0,12.965,5.803,12.965,12.965c0,7.16-5.804,12.965-12.965,12.965
						c-7.161,0-12.964-5.804-12.964-12.965C135.377,218.605,141.18,212.801,148.34,212.801 M148.34,210.674
						c-8.321,0-15.091,6.77-15.091,15.091c0,8.321,6.77,15.091,15.091,15.091c8.321,0,15.091-6.77,15.091-15.091
						C163.432,217.444,156.662,210.674,148.34,210.674L148.34,210.674z"/>
				</g>
			</g>
		</g>
		<g>
			<defs>
				<circle id="SVGID_9_" cx="148.341" cy="225.766" r="12.964"/>
			</defs>
			<clipPath id="SVGID_10_">
				<use xlink:href="#SVGID_9_"  overflow="visible"/>
			</clipPath>
			<g clip-path="url(#SVGID_10_)">
				<g>
					<path fill="#F1F2F2" d="M154.96,234.047h-26.093c-0.408,0-0.74-0.36-0.74-0.803v-14.727c0-0.443,0.332-0.803,0.74-0.803h26.093
						c0.408,0,0.74,0.36,0.74,0.803v14.727C155.7,233.686,155.368,234.047,154.96,234.047z M128.867,218.089
						c-0.201,0-0.365,0.192-0.365,0.428v14.727c0,0.236,0.164,0.428,0.365,0.428h26.093c0.201,0,0.365-0.192,0.365-0.428v-14.727
						c0-0.236-0.164-0.428-0.365-0.428H128.867z"/>
				</g>
				<g>
					<ellipse fill-rule="evenodd" clip-rule="evenodd" fill="#F1F2F2" cx="141.914" cy="225.88" rx="4.838" ry="6.115"/>
				</g>
				<g>
					<path fill="#4ABC94" d="M139.916,228.606c0.469-0.881,0.488-1.688,0.356-2.391h-0.413c-0.094,0-0.169-0.084-0.169-0.178v-0.094
						c0-0.094,0.075-0.178,0.169-0.178h0.3c-0.075-0.328-0.29-0.891-0.29-1.509c0-1.219,0.872-1.96,1.969-1.96
						c0.806,0,1.35,0.459,1.584,0.666c0.075,0.056,0.084,0.169,0.019,0.244l-0.328,0.403c-0.084,0.112-0.187,0.094-0.262,0.019
						c0,0-0.506-0.487-1.022-0.487c-0.581,0-1.05,0.431-1.05,1.097c0,0.591,0.272,1.181,0.337,1.528h1.313
						c0.103,0,0.178,0.084,0.178,0.178v0.103c0,0.094-0.075,0.169-0.178,0.169h-1.219c0.075,0.469,0.066,1.313-0.169,1.922h2.091
						c0.094,0,0.169,0.075,0.169,0.178v0.459c0,0.094-0.075,0.178-0.169,0.178h-3.038c-0.094,0-0.178-0.084-0.178-0.178V228.606z"/>
				</g>
			</g>
		</g>
	</g>
</g>
<g>
	<g>
		
			<line fill="none" stroke="#414042" stroke-linecap="round" stroke-miterlimit="10" stroke-dasharray="2,3,2,3,2,3" x1="276.894" y1="225.756" x2="276.894" y2="147.91"/>
	</g>
	<g>
		<g>
			<path fill="#8DC63F" d="M276.894,233.488c-4.264,0-7.733-3.469-7.733-7.733s3.469-7.732,7.733-7.732s7.733,3.469,7.733,7.732
				S281.157,233.488,276.894,233.488z"/>
			<g>
				<path fill="#FFFFFF" d="M276.894,219.441c3.488,0,6.315,2.827,6.315,6.315c0,3.488-2.827,6.315-6.315,6.315
					c-3.488,0-6.315-2.827-6.315-6.315C270.578,222.267,273.405,219.441,276.894,219.441 M276.894,216.606
					c-5.045,0-9.15,4.104-9.15,9.149c0,5.045,4.105,9.15,9.15,9.15c5.045,0,9.15-4.105,9.15-9.15
					C286.044,220.71,281.939,216.606,276.894,216.606L276.894,216.606z"/>
			</g>
		</g>
	</g>
	<g>
		<rect x="168.05" y="148.116" fill="none" width="104.344" height="13.375"/>
		<text transform="matrix(1 0 0 1 170.5723 158.6162)" fill="#4ABC94" font-family="'Cabin-Medium'" font-size="14">Shaved My Head</text>
		<rect x="183.151" y="164.491" fill="none" width="89.243" height="6.651"/>
		<text transform="matrix(1 0 0 1 224.2961 169.8114)" fill="#414042" font-family="'Arvo'" font-size="7">Raising £900+</text>
		<rect x="236.535" y="174.437" fill="none" width="35.859" height="20.221"/>
		<text transform="matrix(1 0 0 1 260.6977 180.437)" fill="#414042" font-family="'Cabin-Bold'" font-size="8">09’</text>
	</g>
	<g>
		<g>
			<g>
				<path fill="#4ABC94" d="M276.893,239.793c-7.735,0-14.027-6.293-14.027-14.028s6.293-14.028,14.027-14.028
					c7.735,0,14.028,6.293,14.028,14.028S284.629,239.793,276.893,239.793z"/>
			</g>
			<g>
				<g>
					<path fill="#FFFFFF" d="M276.893,212.801c7.161,0,12.965,5.803,12.965,12.965c0,7.16-5.804,12.965-12.965,12.965
						s-12.964-5.804-12.964-12.965C263.929,218.605,269.733,212.801,276.893,212.801 M276.893,210.674
						c-8.321,0-15.091,6.77-15.091,15.091c0,8.321,6.77,15.091,15.091,15.091c8.321,0,15.091-6.77,15.091-15.091
						C291.984,217.444,285.215,210.674,276.893,210.674L276.893,210.674z"/>
				</g>
			</g>
		</g>
		<g>
			<defs>
				<circle id="SVGID_11_" cx="276.894" cy="225.766" r="12.964"/>
			</defs>
			<clipPath id="SVGID_12_">
				<use xlink:href="#SVGID_11_"  overflow="visible"/>
			</clipPath>
			<g clip-path="url(#SVGID_12_)">
				<g>
					<path fill="#F1F2F2" d="M283.513,234.047H257.42c-0.408,0-0.74-0.36-0.74-0.803v-14.727c0-0.443,0.332-0.803,0.74-0.803h26.093
						c0.408,0,0.74,0.36,0.74,0.803v14.727C284.253,233.686,283.921,234.047,283.513,234.047z M257.42,218.089
						c-0.201,0-0.365,0.192-0.365,0.428v14.727c0,0.236,0.164,0.428,0.365,0.428h26.093c0.201,0,0.365-0.192,0.365-0.428v-14.727
						c0-0.236-0.164-0.428-0.365-0.428H257.42z"/>
				</g>
				<g>
					<ellipse fill-rule="evenodd" clip-rule="evenodd" fill="#F1F2F2" cx="270.466" cy="225.88" rx="4.838" ry="6.115"/>
				</g>
				<g>
					<path fill="#4ABC94" d="M268.469,228.606c0.469-0.881,0.488-1.688,0.356-2.391h-0.413c-0.094,0-0.169-0.084-0.169-0.178v-0.094
						c0-0.094,0.075-0.178,0.169-0.178h0.3c-0.075-0.328-0.29-0.891-0.29-1.509c0-1.219,0.872-1.96,1.969-1.96
						c0.806,0,1.35,0.459,1.584,0.666c0.075,0.056,0.084,0.169,0.019,0.244l-0.328,0.403c-0.084,0.112-0.187,0.094-0.262,0.019
						c0,0-0.506-0.487-1.022-0.487c-0.581,0-1.05,0.431-1.05,1.097c0,0.591,0.272,1.181,0.337,1.528h1.313
						c0.103,0,0.178,0.084,0.178,0.178v0.103c0,0.094-0.075,0.169-0.178,0.169h-1.219c0.075,0.469,0.066,1.313-0.169,1.922h2.091
						c0.094,0,0.169,0.075,0.169,0.178v0.459c0,0.094-0.075,0.178-0.169,0.178h-3.038c-0.094,0-0.178-0.084-0.178-0.178V228.606z"/>
				</g>
			</g>
		</g>
	</g>
</g>
<g>
	<g>
		
			<line fill="none" stroke="#414042" stroke-linecap="round" stroke-miterlimit="10" stroke-dasharray="2,3,2,3,2,3" x1="450.812" y1="216.126" x2="451.055" y2="132.233"/>
	</g>
	<g>
		<g>
			<path fill="#4ABC94" d="M451.055,239.793c-7.735,0-14.027-6.293-14.027-14.028c0-7.735,6.293-14.028,14.027-14.028
				c7.735,0,14.028,6.293,14.028,14.028C465.083,233.501,458.79,239.793,451.055,239.793z"/>
		</g>
		<g>
			<g>
				<path fill="#FFFFFF" d="M451.055,212.801c7.161,0,12.965,5.803,12.965,12.965c0,7.16-5.804,12.965-12.965,12.965
					c-7.161,0-12.964-5.804-12.964-12.965C438.091,218.605,443.894,212.801,451.055,212.801 M451.055,210.674
					c-8.321,0-15.091,6.77-15.091,15.091c0,8.321,6.77,15.091,15.091,15.091c8.321,0,15.091-6.77,15.091-15.091
					C466.146,217.444,459.376,210.674,451.055,210.674L451.055,210.674z"/>
			</g>
		</g>
	</g>
	<rect x="455.555" y="133.54" fill="none" width="84.871" height="25.868"/>
	<text transform="matrix(1 0 0 1 455.5558 144.0406)"><tspan x="0" y="0" fill="#4ABC94" font-family="'Cabin-Medium'" font-size="14">Roaming </tspan><tspan x="0" y="13" fill="#4ABC94" font-family="'Cabin-Medium'" font-size="14">Rotisserie</tspan></text>
	<rect x="455.555" y="162.409" fill="none" width="89.243" height="15.864"/>
	<text transform="matrix(1 0 0 1 455.555 167.7296)"><tspan x="0" y="0" fill="#414042" font-family="'Arvo'" font-size="7">Skewering &amp; Serving </tspan><tspan x="0" y="8.399" fill="#414042" font-family="'Arvo'" font-size="7">Chickens.</tspan></text>
	<rect x="455.555" y="181.273" fill="none" width="35.859" height="20.221"/>
	<text transform="matrix(1 0 0 1 455.5552 187.2733)" fill="#414042" font-family="'Cabin-Bold'" font-size="8">10’</text>
	<g>
		<defs>
			<circle id="SVGID_13_" cx="451.055" cy="225.766" r="12.964"/>
		</defs>
		<clipPath id="SVGID_14_">
			<use xlink:href="#SVGID_13_"  overflow="visible"/>
		</clipPath>
		<g clip-path="url(#SVGID_14_)">
			<g>
				<path fill="#F1F2F2" d="M457.675,234.047h-26.093c-0.408,0-0.74-0.36-0.74-0.803v-14.727c0-0.443,0.332-0.803,0.74-0.803h26.093
					c0.408,0,0.74,0.36,0.74,0.803v14.727C458.414,233.686,458.082,234.047,457.675,234.047z M431.582,218.089
					c-0.201,0-0.365,0.192-0.365,0.428v14.727c0,0.236,0.164,0.428,0.365,0.428h26.093c0.201,0,0.365-0.192,0.365-0.428v-14.727
					c0-0.236-0.164-0.428-0.365-0.428H431.582z"/>
			</g>
			<g>
				<ellipse fill-rule="evenodd" clip-rule="evenodd" fill="#F1F2F2" cx="444.628" cy="225.88" rx="4.838" ry="6.115"/>
			</g>
			<g>
				<path fill="#4ABC94" d="M442.631,228.606c0.469-0.881,0.488-1.688,0.356-2.391h-0.413c-0.094,0-0.168-0.084-0.168-0.178v-0.094
					c0-0.094,0.075-0.178,0.168-0.178h0.3c-0.075-0.328-0.29-0.891-0.29-1.509c0-1.219,0.872-1.96,1.969-1.96
					c0.806,0,1.35,0.459,1.584,0.666c0.075,0.056,0.084,0.169,0.019,0.244l-0.328,0.403c-0.084,0.112-0.187,0.094-0.262,0.019
					c0,0-0.506-0.487-1.022-0.487c-0.581,0-1.05,0.431-1.05,1.097c0,0.591,0.272,1.181,0.337,1.528h1.313
					c0.103,0,0.178,0.084,0.178,0.178v0.103c0,0.094-0.075,0.169-0.178,0.169h-1.219c0.075,0.469,0.066,1.313-0.169,1.922h2.091
					c0.094,0,0.169,0.075,0.169,0.178v0.459c0,0.094-0.075,0.178-0.169,0.178h-3.038c-0.094,0-0.178-0.084-0.178-0.178V228.606z"/>
			</g>
		</g>
	</g>
</g>
<g>
	<g>
		<path fill="#4ABC94" d="M507.712,239.793c-7.735,0-14.027-6.293-14.027-14.028c0-7.735,6.293-14.028,14.027-14.028
			c7.735,0,14.028,6.293,14.028,14.028C521.74,233.501,515.447,239.793,507.712,239.793z"/>
	</g>
	<g>
		<g>
			<path fill="#FFFFFF" d="M507.712,212.801c7.161,0,12.965,5.803,12.965,12.965c0,7.16-5.804,12.965-12.965,12.965
				c-7.161,0-12.964-5.804-12.964-12.965C494.748,218.605,500.551,212.801,507.712,212.801 M507.712,210.674
				c-8.321,0-15.091,6.77-15.091,15.091c0,8.321,6.77,15.091,15.091,15.091c8.321,0,15.091-6.77,15.091-15.091
				C522.803,217.444,516.033,210.674,507.712,210.674L507.712,210.674z"/>
		</g>
	</g>
</g>
<g>
	<g>
		
			<line fill="none" stroke="#414042" stroke-linecap="round" stroke-miterlimit="10" stroke-dasharray="2,3,2,3,2,3" x1="507.712" y1="323.827" x2="507.712" y2="228.444"/>
	</g>
	<rect x="512.212" y="283.633" fill="none" width="84.871" height="13.255"/>
	<text transform="matrix(1 0 0 1 512.2126 294.1332)" fill="#4ABC94" font-family="'Cabin-Medium'" font-size="14">Orb 360 </text>
	<rect x="512.212" y="299.888" fill="none" width="89.243" height="15.864"/>
	<text transform="matrix(1 0 0 1 512.2118 305.2088)"><tspan x="0" y="0" fill="#414042" font-family="'Arvo'" font-size="7">Zorb ball operator and </tspan><tspan x="0" y="8.399" fill="#414042" font-family="'Arvo'" font-size="7">head-cam specialist.</tspan></text>
	<rect x="512.212" y="318.752" fill="none" width="35.859" height="20.221"/>
	<text transform="matrix(1 0 0 1 512.212 324.7526)" fill="#414042" font-family="'Cabin-Bold'" font-size="8">11’</text>
	<g>
		<defs>
			<circle id="SVGID_15_" cx="507.712" cy="225.766" r="12.964"/>
		</defs>
		<clipPath id="SVGID_16_">
			<use xlink:href="#SVGID_15_"  overflow="visible"/>
		</clipPath>
		<g clip-path="url(#SVGID_16_)">
			<g>
				<path fill="#F1F2F2" d="M514.331,234.047h-26.093c-0.408,0-0.74-0.36-0.74-0.803v-14.727c0-0.443,0.332-0.803,0.74-0.803h26.093
					c0.408,0,0.74,0.36,0.74,0.803v14.727C515.071,233.686,514.739,234.047,514.331,234.047z M488.239,218.089
					c-0.201,0-0.365,0.192-0.365,0.428v14.727c0,0.236,0.164,0.428,0.365,0.428h26.093c0.201,0,0.365-0.192,0.365-0.428v-14.727
					c0-0.236-0.164-0.428-0.365-0.428H488.239z"/>
			</g>
			<g>
				<ellipse fill-rule="evenodd" clip-rule="evenodd" fill="#F1F2F2" cx="501.285" cy="225.88" rx="4.838" ry="6.115"/>
			</g>
			<g>
				<path fill="#4ABC94" d="M499.287,228.606c0.469-0.881,0.488-1.688,0.356-2.391h-0.413c-0.094,0-0.169-0.084-0.169-0.178v-0.094
					c0-0.094,0.075-0.178,0.169-0.178h0.3c-0.075-0.328-0.291-0.891-0.291-1.509c0-1.219,0.872-1.96,1.969-1.96
					c0.806,0,1.35,0.459,1.584,0.666c0.075,0.056,0.084,0.169,0.019,0.244l-0.328,0.403c-0.084,0.112-0.187,0.094-0.262,0.019
					c0,0-0.506-0.487-1.022-0.487c-0.581,0-1.05,0.431-1.05,1.097c0,0.591,0.272,1.181,0.337,1.528h1.313
					c0.103,0,0.178,0.084,0.178,0.178v0.103c0,0.094-0.075,0.169-0.178,0.169h-1.219c0.075,0.469,0.066,1.313-0.169,1.922h2.091
					c0.094,0,0.169,0.075,0.169,0.178v0.459c0,0.094-0.075,0.178-0.169,0.178h-3.038c-0.094,0-0.178-0.084-0.178-0.178V228.606z"/>
			</g>
		</g>
	</g>
</g>
<g>
	<g>
		<g>
			<path fill="#8DC63F" d="M690.523,233.488c-4.264,0-7.733-3.469-7.733-7.733s3.469-7.732,7.733-7.732s7.733,3.469,7.733,7.732
				S694.787,233.488,690.523,233.488z"/>
			<g>
				<path fill="#FFFFFF" d="M690.523,219.441c3.488,0,6.315,2.827,6.315,6.315c0,3.488-2.827,6.315-6.315,6.315
					s-6.315-2.827-6.315-6.315C684.208,222.267,687.035,219.441,690.523,219.441 M690.523,216.606c-5.045,0-9.15,4.104-9.15,9.149
					c0,5.045,4.105,9.15,9.15,9.15c5.045,0,9.15-4.105,9.15-9.15C699.673,220.71,695.568,216.606,690.523,216.606L690.523,216.606z"
					/>
			</g>
		</g>
	</g>
	<g>
		
			<line fill="none" stroke="#414042" stroke-linecap="round" stroke-miterlimit="10" stroke-dasharray="2,3,2,3,2,3" x1="690.523" y1="215.915" x2="690.523" y2="111.022"/>
	</g>
	<g>
		<rect x="581.608" y="114.931" fill="none" width="104.344" height="13.375"/>
		<text transform="matrix(1 0 0 1 601.1827 125.4307)" fill="#4ABC94" font-family="'Cabin-Medium'" font-size="14">Kennedy’s Bar</text>
		<rect x="596.709" y="131.305" fill="none" width="89.243" height="14.606"/>
		<text transform="matrix(1 0 0 1 611.9358 136.626)"><tspan x="0" y="0" fill="#414042" font-family="'Arvo'" font-size="7">Glassie in an Irish bar</tspan><tspan x="17.807" y="8.399" fill="#414042" font-family="'Arvo'" font-size="7">while in Munich</tspan></text>
		<rect x="650.093" y="150.05" fill="none" width="35.859" height="20.221"/>
		<text transform="matrix(1 0 0 1 664.6724 156.0502)" fill="#414042" font-family="'Cabin-Bold'" font-size="8">13’-14’</text>
	</g>
	<g>
		<g>
			<g>
				<path fill="#4ABC94" d="M690.523,239.793c-7.735,0-14.027-6.293-14.027-14.028c0-7.735,6.292-14.028,14.027-14.028
					c7.735,0,14.028,6.293,14.028,14.028C704.551,233.501,698.258,239.793,690.523,239.793z"/>
			</g>
			<g>
				<g>
					<path fill="#FFFFFF" d="M690.523,212.801c7.161,0,12.965,5.803,12.965,12.965c0,7.16-5.804,12.965-12.965,12.965
						s-12.964-5.804-12.964-12.965C677.559,218.605,683.362,212.801,690.523,212.801 M690.523,210.674
						c-8.321,0-15.091,6.77-15.091,15.091c0,8.321,6.77,15.091,15.091,15.091c8.321,0,15.091-6.77,15.091-15.091
						C705.614,217.444,698.844,210.674,690.523,210.674L690.523,210.674z"/>
				</g>
			</g>
		</g>
		<g>
			<defs>
				<circle id="SVGID_17_" cx="690.523" cy="225.766" r="12.964"/>
			</defs>
			<clipPath id="SVGID_18_">
				<use xlink:href="#SVGID_17_"  overflow="visible"/>
			</clipPath>
			<g clip-path="url(#SVGID_18_)">
				<g>
					<path fill="#F1F2F2" d="M697.142,234.047h-26.093c-0.408,0-0.74-0.36-0.74-0.803v-14.727c0-0.443,0.332-0.803,0.74-0.803
						h26.093c0.408,0,0.74,0.36,0.74,0.803v14.727C697.882,233.686,697.55,234.047,697.142,234.047z M671.049,218.089
						c-0.201,0-0.365,0.192-0.365,0.428v14.727c0,0.236,0.164,0.428,0.365,0.428h26.093c0.201,0,0.365-0.192,0.365-0.428v-14.727
						c0-0.236-0.164-0.428-0.365-0.428H671.049z"/>
				</g>
				<g>
					<ellipse fill-rule="evenodd" clip-rule="evenodd" fill="#F1F2F2" cx="684.096" cy="225.88" rx="4.838" ry="6.115"/>
				</g>
				<g>
					<path fill="#4ABC94" d="M682.098,228.606c0.469-0.881,0.488-1.688,0.356-2.391h-0.413c-0.094,0-0.169-0.084-0.169-0.178v-0.094
						c0-0.094,0.075-0.178,0.169-0.178h0.3c-0.075-0.328-0.291-0.891-0.291-1.509c0-1.219,0.872-1.96,1.969-1.96
						c0.806,0,1.35,0.459,1.584,0.666c0.075,0.056,0.084,0.169,0.019,0.244l-0.328,0.403c-0.084,0.112-0.187,0.094-0.262,0.019
						c0,0-0.506-0.487-1.022-0.487c-0.581,0-1.05,0.431-1.05,1.097c0,0.591,0.272,1.181,0.337,1.528h1.313
						c0.103,0,0.178,0.084,0.178,0.178v0.103c0,0.094-0.075,0.169-0.178,0.169h-1.219c0.075,0.469,0.066,1.313-0.169,1.922h2.091
						c0.094,0,0.169,0.075,0.169,0.178v0.459c0,0.094-0.075,0.178-0.169,0.178h-3.038c-0.094,0-0.178-0.084-0.178-0.178V228.606z"/>
				</g>
			</g>
		</g>
	</g>
</g>
<g>
	<g>
		
			<line fill="none" stroke="#414042" stroke-linecap="round" stroke-miterlimit="10" stroke-dasharray="2,3,2,3,2,3" x1="84.053" y1="328.655" x2="84.053" y2="225.766"/>
	</g>
	<rect x="88.553" y="287.974" fill="none" width="84.871" height="13.375"/>
	<text transform="matrix(1 0 0 1 88.553 298.4737)" fill="#993680" font-family="'Cabin-Medium'" font-size="14">GCSE</text>
	<rect x="88.553" y="304.348" fill="none" width="107.533" height="15.864"/>
	<text transform="matrix(1 0 0 1 88.5532 309.6689)"><tspan x="0" y="0" fill="#414042" font-family="'Arvo'" font-size="7">Standard Subjects + Drama, </tspan><tspan x="0" y="8.399" fill="#414042" font-family="'Arvo'" font-size="7">Product Design, Art, French.</tspan></text>
	<rect x="88.553" y="323.212" fill="none" width="35.859" height="20.221"/>
	<text transform="matrix(1 0 0 1 88.5525 329.2117)" fill="#414042" font-family="'Cabin-Bold'" font-size="8">04’- 08’</text>
	<g>
		<g>
			<g>
				<path fill="#993680" d="M84.053,240.101c-7.905,0-14.336-6.431-14.336-14.336c0-7.904,6.432-14.335,14.336-14.335
					c7.904,0,14.335,6.43,14.335,14.335C98.388,233.67,91.958,240.101,84.053,240.101z"/>
			</g>
			<g>
				<path fill="#FFFFFF" d="M84.053,212.488c7.334,0,13.278,5.944,13.278,13.277c0,7.334-5.943,13.278-13.278,13.278
					c-7.334,0-13.279-5.944-13.279-13.278C70.774,218.431,76.719,212.488,84.053,212.488 M84.053,210.373
					c-8.488,0-15.394,6.905-15.394,15.392c0,8.488,6.906,15.393,15.394,15.393c8.488,0,15.393-6.905,15.393-15.393
					C99.446,217.278,92.541,210.373,84.053,210.373L84.053,210.373z"/>
			</g>
		</g>
		<g>
			<g>
				<path fill="#F1F2F2" d="M84.053,232.658c-3.603,0-6.69-1.94-6.69-3.529v-5.332c0-0.219,0.178-0.397,0.397-0.397h12.587
					c0.219,0,0.397,0.178,0.397,0.397v5.332C90.743,230.717,87.656,232.658,84.053,232.658z M78.156,224.194v4.935
					c0,0.936,2.49,2.735,5.897,2.735c3.407,0,5.897-1.799,5.897-2.735v-4.935H78.156z"/>
			</g>
			<g>
				<line fill="#BA1D80" x1="76.456" y1="222.13" x2="76.456" y2="229.059"/>
				<path fill="#F1F2F2" d="M76.456,229.376c-0.175,0-0.317-0.142-0.317-0.317v-6.929c0-0.175,0.142-0.317,0.317-0.317
					c0.175,0,0.317,0.142,0.317,0.317v6.929C76.774,229.234,76.632,229.376,76.456,229.376z"/>
			</g>
			<g>
				<polygon fill="#993680" points="84.053,227.682 73.655,222.65 84.053,219.27 94.45,222.65 				"/>
				<path fill="#F1F2F2" d="M84.053,228.079c-0.059,0-0.118-0.013-0.173-0.04l-10.398-5.031c-0.146-0.07-0.234-0.223-0.223-0.384
					c0.011-0.162,0.119-0.3,0.273-0.35l10.398-3.38c0.08-0.026,0.165-0.026,0.245,0l10.398,3.38c0.154,0.05,0.262,0.189,0.273,0.35
					c0.011,0.161-0.077,0.314-0.223,0.384l-10.398,5.031C84.171,228.065,84.112,228.079,84.053,228.079z M74.715,222.723
					l9.338,4.519l9.338-4.519l-9.338-3.036L74.715,222.723z"/>
			</g>
			<g>
				<line fill="#BA1D80" x1="83.922" y1="222.713" x2="76.456" y2="221.48"/>
				<path fill="#F1F2F2" d="M83.922,223.11c-0.021,0-0.043-0.002-0.065-0.005l-7.465-1.233c-0.216-0.036-0.362-0.24-0.327-0.456
					c0.036-0.216,0.24-0.362,0.456-0.327l7.465,1.233c0.216,0.036,0.362,0.24,0.327,0.456
					C84.281,222.972,84.113,223.11,83.922,223.11z"/>
			</g>
		</g>
	</g>
</g>
<g>
	<g>
		<g>
			<path fill="#4CBAC5" d="M26.821,239.901c-7.8,0-14.147-6.346-14.147-14.146c0-7.8,6.346-14.145,14.147-14.145
				c7.8,0,14.146,6.345,14.146,14.145C40.967,233.555,34.621,239.901,26.821,239.901z"/>
		</g>
		<g>
			<g>
				<path fill="#FFFFFF" d="M26.821,212.653c7.237,0,13.102,5.865,13.102,13.102c0,7.237-5.865,13.103-13.102,13.103
					c-7.237,0-13.103-5.865-13.103-13.103C13.718,218.519,19.584,212.653,26.821,212.653 M26.821,210.566
					c-8.376,0-15.19,6.814-15.19,15.189c0,8.376,6.814,15.19,15.19,15.19c8.375,0,15.189-6.814,15.189-15.19
					C42.01,217.38,35.196,210.566,26.821,210.566L26.821,210.566z"/>
			</g>
		</g>
	</g>
	<g>
		<defs>
			<circle id="SVGID_19_" cx="26.82" cy="225.755" r="13.103"/>
		</defs>
		<clipPath id="SVGID_20_">
			<use xlink:href="#SVGID_19_"  overflow="visible"/>
		</clipPath>
		<g clip-path="url(#SVGID_20_)">
			<g>
				<path fill="#F1F2F2" d="M29.31,226.553h-4.98c-0.635,0-1.152-0.517-1.152-1.152v-2.829c0-0.635,0.517-1.152,1.152-1.152h4.98
					c0.635,0,1.152,0.517,1.152,1.152v2.829C30.462,226.036,29.945,226.553,29.31,226.553z M24.331,222.203
					c-0.203,0-0.369,0.166-0.369,0.369v2.829c0,0.203,0.166,0.369,0.369,0.369h4.98c0.203,0,0.369-0.166,0.369-0.369v-2.829
					c0-0.203-0.166-0.369-0.369-0.369H24.331z"/>
			</g>
			<g>
				<path fill-rule="evenodd" clip-rule="evenodd" fill="#4CBAC5" d="M37.644,237.975c0,0.781-0.633,1.414-1.414,1.414h-18.82
					c-0.781,0-1.414-0.633-1.414-1.414v-12.574c0-0.781,0.633-1.414,1.414-1.414h18.82c0.781,0,1.414,0.633,1.414,1.414V237.975z"/>
				<path fill="#F1F2F2" d="M36.23,239.65H17.41c-0.924,0-1.675-0.751-1.675-1.675v-12.574c0-0.924,0.751-1.675,1.675-1.675h18.82
					c0.924,0,1.675,0.751,1.675,1.675v12.574C37.905,238.899,37.154,239.65,36.23,239.65z M17.41,224.248
					c-0.636,0-1.153,0.517-1.153,1.153v12.574c0,0.636,0.517,1.153,1.153,1.153h18.82c0.636,0,1.153-0.517,1.153-1.153v-12.574
					c0-0.636-0.517-1.153-1.153-1.153H17.41z"/>
			</g>
			<g>
				<line fill="#6DB6D5" x1="15.997" y1="228.042" x2="37.644" y2="228.042"/>
				<rect x="15.997" y="227.781" fill="#F1F2F2" width="21.648" height="0.522"/>
			</g>
			<g>
				<path fill="#F1F2F2" d="M29.254,228.816c0,0.24-0.195,0.435-0.435,0.435h-3.998c-0.24,0-0.435-0.195-0.435-0.435v-1.547
					c0-0.24,0.195-0.435,0.435-0.435h3.998c0.24,0,0.435,0.195,0.435,0.435V228.816z"/>
			</g>
		</g>
	</g>
</g>
<g>
	<path fill="#414142" d="M613.104-279.985c-20.178,0-36.593-16.415-36.593-36.592c0-20.175,16.415-36.589,36.593-36.589
		c20.176,0,36.59,16.414,36.59,36.589C649.694-296.4,633.28-279.985,613.104-279.985z"/>
	<path fill="#E7E7E7" d="M613.104-352.166c19.659,0,35.59,15.932,35.59,35.589c0,19.659-15.931,35.592-35.59,35.592
		c-19.659,0-35.593-15.933-35.593-35.592C577.511-336.234,593.445-352.166,613.104-352.166 M613.104-354.166
		c-20.729,0-37.593,16.862-37.593,37.589c0,20.728,16.864,37.592,37.593,37.592c20.727,0,37.59-16.864,37.59-37.592
		C650.694-337.303,633.831-354.166,613.104-354.166L613.104-354.166z"/>
</g>
<g>
	<g>
		<path fill="#414142" d="M699.99-281.408c-19.607,0-35.559-15.952-35.559-35.561s15.951-35.561,35.559-35.561
			c19.608,0,35.561,15.952,35.561,35.561S719.599-281.408,699.99-281.408z"/>
		<path fill="#E7E7E7" d="M699.99-351.53c19.089,0,34.56,15.471,34.56,34.561c0,19.088-15.472,34.56-34.56,34.56
			c-19.089,0-34.559-15.473-34.559-34.56C665.431-336.059,680.901-351.53,699.99-351.53 M699.99-353.53
			c-20.158,0-36.559,16.401-36.559,36.561c0,20.16,16.4,36.56,36.559,36.56c20.16,0,36.56-16.401,36.56-36.56
			C736.55-337.129,720.149-353.53,699.99-353.53L699.99-353.53z"/>
	</g>
	<g>
		<defs>
			<circle id="SVGID_21_" cx="699.991" cy="-316.969" r="34.56"/>
		</defs>
		<clipPath id="SVGID_22_">
			<use xlink:href="#SVGID_21_"  overflow="visible"/>
		</clipPath>
		<g clip-path="url(#SVGID_22_)">
			<path fill-rule="evenodd" clip-rule="evenodd" fill="none" stroke="#8CC640" stroke-miterlimit="10" d="M719.108-297.034
				c0,0.905-0.659,1.64-1.472,1.64h-69.557c-0.813,0-1.472-0.734-1.472-1.64v-39.259c0-0.905,0.659-1.64,1.472-1.64h69.557
				c0.813,0,1.472,0.734,1.472,1.64V-297.034z"/>
			<ellipse fill-rule="evenodd" clip-rule="evenodd" fill="#8CC640" cx="682.857" cy="-316.663" rx="12.898" ry="16.302"/>
			<rect x="668.674" y="-325.972" fill-rule="evenodd" clip-rule="evenodd" fill="none" width="26.366" height="27.119"/>
			<text transform="matrix(1 0 0 1 675.6817 -308.472)" fill="#414142" font-family="'BrandonGrotesque-Medium'" font-size="25">£</text>
		</g>
	</g>
</g>
<g>
	<path fill-rule="evenodd" clip-rule="evenodd" fill="none" stroke="#BA1D80" stroke-width="1.4173" stroke-miterlimit="10" d="
		M595.228-322.165v15.143c0,3.618,8.003,8.896,17.875,8.896c9.872,0,17.875-5.278,17.875-8.896v-15.143H595.228z"/>
	
		<line fill="none" stroke="#BA1D80" stroke-width="1.7008" stroke-linecap="round" stroke-linejoin="round" stroke-miterlimit="10" x1="591.527" y1="-326.903" x2="591.527" y2="-307.222"/>
	<polygon fill="#414142" stroke="#BA1D80" stroke-width="1.4173" stroke-linejoin="round" stroke-miterlimit="10" points="
		613.103,-311.133 583.571,-325.423 613.103,-335.024 642.634,-325.423 	"/>
	
		<line fill="none" stroke="#BA1D80" stroke-width="1.4173" stroke-linecap="round" stroke-linejoin="round" stroke-miterlimit="10" x1="612.73" y1="-325.246" x2="591.527" y2="-328.325"/>
</g>
<g>
	<path fill="#414142" d="M528.374-279.985c-20.178,0-36.593-16.415-36.593-36.592c0-20.175,16.415-36.589,36.593-36.589
		c20.176,0,36.59,16.414,36.59,36.589C564.964-296.4,548.55-279.985,528.374-279.985z"/>
	<g>
		<path fill="#E7E7E7" d="M528.374-352.166c19.659,0,35.59,15.932,35.59,35.589c0,19.659-15.931,35.592-35.59,35.592
			c-19.659,0-35.593-15.933-35.593-35.592C492.781-336.234,508.715-352.166,528.374-352.166 M528.374-354.166
			c-20.729,0-37.593,16.862-37.593,37.589c0,20.728,16.864,37.592,37.593,37.592c20.727,0,37.59-16.864,37.59-37.592
			C565.964-337.303,549.101-354.166,528.374-354.166L528.374-354.166z"/>
	</g>
</g>
<g>
	<defs>
		<circle id="SVGID_23_" cx="528.372" cy="-316.577" r="35.591"/>
	</defs>
	<use xlink:href="#SVGID_23_"  overflow="visible" fill="#414042"/>
	<clipPath id="SVGID_24_">
		<use xlink:href="#SVGID_23_"  overflow="visible"/>
	</clipPath>
	<g clip-path="url(#SVGID_24_)">
		<path fill-rule="evenodd" clip-rule="evenodd" fill="#414042" stroke="#4CBAC5" stroke-width="1.4173" stroke-miterlimit="10" d="
			M537.201-317.538c0,1.141-0.925,2.065-2.065,2.065h-13.526c-1.141,0-2.065-0.925-2.065-2.065v-7.684
			c0-1.141,0.925-2.065,2.065-2.065h13.526c1.141,0,2.065,0.925,2.065,2.065V-317.538z"/>
		<path fill-rule="evenodd" clip-rule="evenodd" fill="#414042" stroke="#4CBAC5" stroke-width="1.4173" stroke-miterlimit="10" d="
			M557.774-283.383c0,2.121-1.72,3.841-3.841,3.841h-51.121c-2.121,0-3.841-1.72-3.841-3.841v-34.156
			c0-2.121,1.72-3.841,3.841-3.841h51.121c2.121,0,3.841,1.72,3.841,3.841V-283.383z"/>
		
			<line fill="#414042" stroke="#4CBAC5" stroke-width="1.4173" stroke-miterlimit="10" x1="498.971" y1="-310.365" x2="557.774" y2="-310.365"/>
		<path fill="#414042" stroke="#4CBAC5" stroke-width="1.4173" stroke-miterlimit="10" d="M534.983-308.263
			c0,0.653-0.529,1.182-1.182,1.182h-10.859c-0.653,0-1.182-0.529-1.182-1.182v-4.203c0-0.653,0.529-1.182,1.182-1.182h10.859
			c0.653,0,1.182,0.529,1.182,1.182V-308.263z"/>
	</g>
</g>
<g>
	<g>
		<g>
			<g>
				<g>
					<path fill="#4ABC94" d="M802.539,60.472c-7.735,0-14.027-6.293-14.027-14.028s6.292-14.028,14.027-14.028
						c7.735,0,14.028,6.293,14.028,14.028S810.274,60.472,802.539,60.472z"/>
				</g>
				<g>
					<g>
						<path fill="#FFFFFF" d="M802.539,33.48c7.161,0,12.965,5.803,12.965,12.965c0,7.16-5.804,12.965-12.965,12.965
							s-12.964-5.804-12.964-12.965C789.575,39.283,795.378,33.48,802.539,33.48 M802.539,31.353
							c-8.321,0-15.091,6.77-15.091,15.091c0,8.321,6.77,15.091,15.091,15.091c8.321,0,15.091-6.77,15.091-15.091
							C817.63,38.123,810.86,31.353,802.539,31.353L802.539,31.353z"/>
					</g>
				</g>
			</g>
			<g>
				<defs>
					<circle id="SVGID_25_" cx="802.539" cy="46.444" r="12.964"/>
				</defs>
				<clipPath id="SVGID_26_">
					<use xlink:href="#SVGID_25_"  overflow="visible"/>
				</clipPath>
				<g clip-path="url(#SVGID_26_)">
					<g>
						<path fill="#F1F2F2" d="M809.159,54.725h-26.093c-0.408,0-0.74-0.36-0.74-0.803V39.195c0-0.443,0.332-0.803,0.74-0.803h26.093
							c0.408,0,0.74,0.36,0.74,0.803v14.727C809.898,54.365,809.566,54.725,809.159,54.725z M783.066,38.768
							c-0.201,0-0.365,0.192-0.365,0.428v14.727c0,0.236,0.164,0.428,0.365,0.428h26.093c0.201,0,0.365-0.192,0.365-0.428V39.195
							c0-0.236-0.164-0.428-0.365-0.428H783.066z"/>
					</g>
					<g>
						<ellipse fill-rule="evenodd" clip-rule="evenodd" fill="#F1F2F2" cx="796.112" cy="46.559" rx="4.838" ry="6.115"/>
					</g>
					<g>
						<path fill="#4ABC94" d="M794.115,49.285c0.469-0.881,0.488-1.688,0.356-2.391h-0.413c-0.094,0-0.169-0.084-0.169-0.178v-0.094
							c0-0.094,0.075-0.178,0.169-0.178h0.3c-0.075-0.328-0.291-0.891-0.291-1.509c0-1.219,0.872-1.96,1.969-1.96
							c0.806,0,1.35,0.459,1.584,0.666c0.075,0.056,0.084,0.169,0.019,0.244l-0.328,0.403c-0.084,0.112-0.187,0.094-0.262,0.019
							c0,0-0.506-0.487-1.022-0.487c-0.581,0-1.05,0.431-1.05,1.097c0,0.591,0.272,1.181,0.337,1.528h1.313
							c0.103,0,0.178,0.084,0.178,0.178v0.103c0,0.094-0.075,0.169-0.178,0.169h-1.219c0.075,0.469,0.066,1.313-0.169,1.922h2.091
							c0.094,0,0.169,0.075,0.169,0.178v0.459c0,0.094-0.075,0.178-0.169,0.178h-3.038c-0.094,0-0.178-0.084-0.178-0.178V49.285z"/>
					</g>
				</g>
			</g>
		</g>
		<g>
			<rect x="740.78" y="40.324" fill="none" width="42.935" height="12.241"/>
			<text transform="matrix(1 0 0 1 742.2753 50.8235)" fill="#4ABC94" font-family="'Cabin-Medium'" font-size="14">Money</text>
		</g>
	</g>
	<g>
		<g>
			<g>
				<g>
					<path fill="#993680" d="M599.55,60.951c-7.905,0-14.336-6.431-14.336-14.336c0-7.904,6.432-14.335,14.336-14.335
						c7.904,0,14.335,6.43,14.335,14.335C613.885,54.52,607.454,60.951,599.55,60.951z"/>
				</g>
				<g>
					<path fill="#FFFFFF" d="M599.55,33.338c7.334,0,13.278,5.944,13.278,13.277c0,7.334-5.943,13.278-13.278,13.278
						c-7.334,0-13.279-5.944-13.279-13.278C586.271,39.281,592.216,33.338,599.55,33.338 M599.55,31.223
						c-8.488,0-15.394,6.905-15.394,15.392c0,8.488,6.906,15.393,15.394,15.393c8.488,0,15.393-6.905,15.393-15.393
						C614.943,38.128,608.038,31.223,599.55,31.223L599.55,31.223z"/>
				</g>
			</g>
			<g>
				<g>
					<path fill="#F1F2F2" d="M599.549,53.508c-3.603,0-6.69-1.94-6.69-3.529v-5.332c0-0.219,0.178-0.397,0.397-0.397h12.587
						c0.219,0,0.397,0.178,0.397,0.397v5.332C606.24,51.567,603.152,53.508,599.549,53.508z M593.653,45.044v4.935
						c0,0.936,2.49,2.735,5.897,2.735c3.407,0,5.897-1.799,5.897-2.735v-4.935H593.653z"/>
				</g>
				<g>
					<line fill="#BA1D80" x1="591.953" y1="42.979" x2="591.953" y2="49.909"/>
					<path fill="#F1F2F2" d="M591.953,50.226c-0.175,0-0.317-0.142-0.317-0.317v-6.929c0-0.175,0.142-0.317,0.317-0.317
						c0.175,0,0.317,0.142,0.317,0.317v6.929C592.27,50.084,592.128,50.226,591.953,50.226z"/>
				</g>
				<g>
					<polygon fill="#993680" points="599.549,48.532 589.152,43.5 599.549,40.12 609.947,43.5 					"/>
					<path fill="#F1F2F2" d="M599.549,48.928c-0.059,0-0.118-0.013-0.173-0.04l-10.398-5.031c-0.146-0.07-0.234-0.223-0.223-0.384
						c0.011-0.162,0.119-0.3,0.273-0.35l10.398-3.38c0.08-0.026,0.165-0.026,0.245,0l10.398,3.38c0.154,0.05,0.262,0.189,0.273,0.35
						c0.011,0.161-0.077,0.314-0.223,0.384l-10.398,5.031C599.668,48.915,599.609,48.928,599.549,48.928z M590.212,43.573
						l9.338,4.519l9.338-4.519l-9.338-3.036L590.212,43.573z"/>
				</g>
				<g>
					<line fill="#BA1D80" x1="599.418" y1="43.563" x2="591.953" y2="42.33"/>
					<path fill="#F1F2F2" d="M599.419,43.96c-0.022,0-0.043-0.002-0.065-0.005l-7.465-1.233c-0.216-0.036-0.362-0.24-0.327-0.456
						c0.036-0.216,0.24-0.362,0.456-0.327l7.465,1.233c0.216,0.036,0.362,0.24,0.327,0.456
						C599.778,43.822,599.609,43.96,599.419,43.96z"/>
				</g>
			</g>
		</g>
		<g>
			<rect x="516.681" y="41.097" fill="none" width="64.043" height="11.037"/>
			<text transform="matrix(1 0 0 1 518.9734 51.5967)" fill="#993680" font-family="'Cabin-Medium'" font-size="14">Education</text>
		</g>
	</g>
	<g>
		<g>
			<g>
				<g>
					<path fill="#4CBAC5" d="M710.951,60.59c-7.8,0-14.147-6.346-14.147-14.146c0-7.8,6.346-14.145,14.147-14.145
						c7.8,0,14.146,6.345,14.146,14.145C725.097,54.244,718.751,60.59,710.951,60.59z"/>
				</g>
				<g>
					<g>
						<path fill="#FFFFFF" d="M710.951,33.342c7.237,0,13.102,5.865,13.102,13.102c0,7.237-5.865,13.103-13.102,13.103
							c-7.237,0-13.103-5.865-13.103-13.103C697.848,39.207,703.714,33.342,710.951,33.342 M710.951,31.255
							c-8.376,0-15.19,6.814-15.19,15.189c0,8.376,6.814,15.19,15.19,15.19c8.375,0,15.189-6.814,15.189-15.19
							C726.14,38.069,719.326,31.255,710.951,31.255L710.951,31.255z"/>
					</g>
				</g>
			</g>
			<g>
				<defs>
					<circle id="SVGID_27_" cx="710.95" cy="46.444" r="13.103"/>
				</defs>
				<clipPath id="SVGID_28_">
					<use xlink:href="#SVGID_27_"  overflow="visible"/>
				</clipPath>
				<g clip-path="url(#SVGID_28_)">
					<g>
						<path fill="#F1F2F2" d="M713.44,47.241h-4.98c-0.635,0-1.152-0.517-1.152-1.152v-2.829c0-0.635,0.517-1.152,1.152-1.152h4.98
							c0.635,0,1.152,0.517,1.152,1.152v2.829C714.592,46.725,714.075,47.241,713.44,47.241z M708.46,42.892
							c-0.203,0-0.369,0.166-0.369,0.369v2.829c0,0.203,0.166,0.369,0.369,0.369h4.98c0.203,0,0.369-0.166,0.369-0.369v-2.829
							c0-0.203-0.166-0.369-0.369-0.369H708.46z"/>
					</g>
					<g>
						<path fill-rule="evenodd" clip-rule="evenodd" fill="#4CBAC5" d="M721.774,58.663c0,0.781-0.633,1.414-1.414,1.414h-18.82
							c-0.781,0-1.414-0.633-1.414-1.414V46.089c0-0.781,0.633-1.414,1.414-1.414h18.82c0.781,0,1.414,0.633,1.414,1.414V58.663z"/>
						<path fill="#F1F2F2" d="M720.36,60.338h-18.82c-0.924,0-1.675-0.751-1.675-1.675V46.089c0-0.924,0.751-1.675,1.675-1.675
							h18.82c0.924,0,1.675,0.751,1.675,1.675v12.574C722.035,59.587,721.284,60.338,720.36,60.338z M701.54,44.936
							c-0.636,0-1.153,0.517-1.153,1.153v12.574c0,0.636,0.517,1.153,1.153,1.153h18.82c0.636,0,1.153-0.517,1.153-1.153V46.089
							c0-0.636-0.517-1.153-1.153-1.153H701.54z"/>
					</g>
					<g>
						<line fill="#6DB6D5" x1="700.126" y1="48.731" x2="721.774" y2="48.731"/>
						<rect x="700.126" y="48.47" fill="#F1F2F2" width="21.648" height="0.522"/>
					</g>
					<g>
						<path fill="#F1F2F2" d="M713.384,49.504c0,0.24-0.195,0.435-0.435,0.435h-3.997c-0.24,0-0.435-0.195-0.435-0.435v-1.547
							c0-0.24,0.195-0.435,0.435-0.435h3.997c0.24,0,0.435,0.195,0.435,0.435V49.504z"/>
					</g>
				</g>
			</g>
		</g>
		<rect x="623.084" y="40.275" fill="none" width="69.041" height="12.338"/>
		<text transform="matrix(1 0 0 1 626.2845 50.7749)" fill="#4CBAC5" font-family="'Cabin-Medium'" font-size="14">Experience</text>
	</g>
</g>
<rect x="669.061" y="440.804" fill="#993680" width="341.111" height="308.953"/>
<g>
	<g>
		<g>
			<path fill="#993680" d="M213.029,240.101c-7.905,0-14.336-6.431-14.336-14.336c0-7.904,6.432-14.335,14.336-14.335
				c7.904,0,14.335,6.43,14.335,14.335C227.364,233.67,220.933,240.101,213.029,240.101z"/>
		</g>
		<g>
			<path fill="#FFFFFF" d="M213.029,212.488c7.334,0,13.278,5.944,13.278,13.277c0,7.334-5.943,13.278-13.278,13.278
				c-7.334,0-13.279-5.944-13.279-13.278C199.75,218.431,205.695,212.488,213.029,212.488 M213.029,210.373
				c-8.488,0-15.394,6.905-15.394,15.392c0,8.488,6.906,15.393,15.394,15.393c8.488,0,15.393-6.905,15.393-15.393
				C228.422,217.278,221.517,210.373,213.029,210.373L213.029,210.373z"/>
		</g>
	</g>
	<g>
		<g>
			<path fill="#F1F2F2" d="M213.029,232.658c-3.603,0-6.69-1.94-6.69-3.529v-5.332c0-0.219,0.178-0.397,0.397-0.397h12.587
				c0.219,0,0.397,0.178,0.397,0.397v5.332C219.719,230.717,216.631,232.658,213.029,232.658z M207.132,224.194v4.935
				c0,0.936,2.49,2.735,5.897,2.735c3.407,0,5.897-1.799,5.897-2.735v-4.935H207.132z"/>
		</g>
		<g>
			<line fill="#BA1D80" x1="205.432" y1="222.13" x2="205.432" y2="229.059"/>
			<path fill="#F1F2F2" d="M205.432,229.376c-0.175,0-0.317-0.142-0.317-0.317v-6.929c0-0.175,0.142-0.317,0.317-0.317
				c0.175,0,0.317,0.142,0.317,0.317v6.929C205.749,229.234,205.607,229.376,205.432,229.376z"/>
		</g>
		<g>
			<polygon fill="#993680" points="213.029,227.682 202.631,222.65 213.029,219.27 223.426,222.65 			"/>
			<path fill="#F1F2F2" d="M213.029,228.079c-0.059,0-0.118-0.013-0.173-0.04l-10.398-5.031c-0.146-0.07-0.234-0.223-0.223-0.384
				c0.011-0.162,0.119-0.3,0.273-0.35l10.398-3.38c0.08-0.026,0.165-0.026,0.245,0l10.398,3.38c0.154,0.05,0.262,0.189,0.273,0.35
				c0.011,0.161-0.077,0.314-0.223,0.384l-10.398,5.031C213.147,228.065,213.088,228.079,213.029,228.079z M203.691,222.723
				l9.338,4.519l9.338-4.519l-9.338-3.036L203.691,222.723z"/>
		</g>
		<g>
			<line fill="#BA1D80" x1="212.897" y1="222.713" x2="205.432" y2="221.48"/>
			<path fill="#F1F2F2" d="M212.898,223.11c-0.021,0-0.043-0.002-0.065-0.005l-7.465-1.233c-0.216-0.036-0.362-0.24-0.327-0.456
				c0.036-0.216,0.24-0.362,0.456-0.327l7.465,1.233c0.216,0.036,0.362,0.24,0.327,0.456
				C213.257,222.972,213.089,223.11,212.898,223.11z"/>
		</g>
	</g>
</g>
<g>
	<g>
		<g>
			<path fill="#4CBAC5" d="M334.007,239.911c-7.8,0-14.147-6.346-14.147-14.146c0-7.8,6.346-14.145,14.147-14.145
				c7.8,0,14.146,6.345,14.146,14.145C348.153,233.565,341.807,239.911,334.007,239.911z"/>
		</g>
		<g>
			<g>
				<path fill="#FFFFFF" d="M334.007,212.663c7.237,0,13.102,5.865,13.102,13.102c0,7.237-5.865,13.103-13.102,13.103
					c-7.237,0-13.103-5.865-13.103-13.103C320.904,218.529,326.77,212.663,334.007,212.663 M334.007,210.576
					c-8.376,0-15.19,6.814-15.19,15.189c0,8.376,6.814,15.19,15.19,15.19c8.375,0,15.189-6.814,15.189-15.19
					C349.196,217.39,342.382,210.576,334.007,210.576L334.007,210.576z"/>
			</g>
		</g>
	</g>
	<g>
		<defs>
			<circle id="SVGID_29_" cx="334.007" cy="225.765" r="13.103"/>
		</defs>
		<clipPath id="SVGID_30_">
			<use xlink:href="#SVGID_29_"  overflow="visible"/>
		</clipPath>
		<g clip-path="url(#SVGID_30_)">
			<g>
				<path fill="#F1F2F2" d="M336.496,226.563h-4.98c-0.635,0-1.152-0.517-1.152-1.152v-2.829c0-0.635,0.517-1.152,1.152-1.152h4.98
					c0.635,0,1.152,0.517,1.152,1.152v2.829C337.648,226.046,337.131,226.563,336.496,226.563z M331.517,222.213
					c-0.203,0-0.369,0.166-0.369,0.369v2.829c0,0.203,0.166,0.369,0.369,0.369h4.98c0.203,0,0.369-0.166,0.369-0.369v-2.829
					c0-0.203-0.166-0.369-0.369-0.369H331.517z"/>
			</g>
			<g>
				<path fill-rule="evenodd" clip-rule="evenodd" fill="#4CBAC5" d="M344.83,237.985c0,0.781-0.633,1.414-1.414,1.414h-18.82
					c-0.781,0-1.414-0.633-1.414-1.414v-12.574c0-0.781,0.633-1.414,1.414-1.414h18.82c0.781,0,1.414,0.633,1.414,1.414V237.985z"/>
				<path fill="#F1F2F2" d="M343.416,239.66h-18.82c-0.924,0-1.675-0.751-1.675-1.675v-12.574c0-0.924,0.751-1.675,1.675-1.675
					h18.82c0.924,0,1.675,0.751,1.675,1.675v12.574C345.091,238.909,344.34,239.66,343.416,239.66z M324.597,224.258
					c-0.636,0-1.153,0.517-1.153,1.153v12.574c0,0.636,0.517,1.153,1.153,1.153h18.82c0.636,0,1.153-0.517,1.153-1.153v-12.574
					c0-0.636-0.517-1.153-1.153-1.153H324.597z"/>
			</g>
			<g>
				<line fill="#6DB6D5" x1="323.183" y1="228.052" x2="344.83" y2="228.052"/>
				<rect x="323.183" y="227.791" fill="#F1F2F2" width="21.648" height="0.522"/>
			</g>
			<g>
				<path fill="#F1F2F2" d="M336.44,228.826c0,0.24-0.195,0.435-0.435,0.435h-3.997c-0.24,0-0.435-0.195-0.435-0.435v-1.547
					c0-0.24,0.195-0.435,0.435-0.435h3.997c0.24,0,0.435,0.195,0.435,0.435V228.826z"/>
			</g>
		</g>
	</g>
</g>
<g>
	<g>
		
			<line fill="none" stroke="#414042" stroke-linecap="round" stroke-miterlimit="10" stroke-dasharray="2,3,2,3,2,3" x1="394.669" y1="225.756" x2="394.669" y2="83.57"/>
	</g>
	<g>
		<g>
			<path fill="#4CBAC5" d="M394.669,233.488c-4.264,0-7.733-3.469-7.733-7.733s3.469-7.732,7.733-7.732s7.733,3.469,7.733,7.732
				S398.933,233.488,394.669,233.488z"/>
			<g>
				<path fill="#FFFFFF" d="M394.669,219.441c3.488,0,6.315,2.827,6.315,6.315c0,3.488-2.827,6.315-6.315,6.315
					s-6.315-2.827-6.315-6.315C388.354,222.267,391.181,219.441,394.669,219.441 M394.669,216.606c-5.045,0-9.15,4.104-9.15,9.149
					c0,5.045,4.105,9.15,9.15,9.15c5.045,0,9.15-4.105,9.15-9.15C403.819,220.71,399.714,216.606,394.669,216.606L394.669,216.606z"
					/>
			</g>
		</g>
	</g>
	<g>
		<rect x="285.963" y="83.904" fill="none" width="103.821" height="26.468"/>
		<text transform="matrix(1 0 0 1 296.083 94.4035)"><tspan x="0" y="0" fill="#4CBAC5" font-family="'Cabin-Medium'" font-size="14">GCSE Yearbook</tspan><tspan x="11.942" y="13" fill="#4CBAC5" font-family="'Cabin-Medium'" font-size="14">Photographer</tspan></text>
		<rect x="283.449" y="113.372" fill="none" width="106.335" height="15.864"/>
		<text transform="matrix(1 0 0 1 294.4914 118.6921)"><tspan x="0" y="0" fill="#414042" font-family="'Arvo'" font-size="7">The school couldn’t afford a </tspan><tspan x="-0.66" y="8.399" fill="#414042" font-family="'Arvo'" font-size="7">professional, so I stepped in.</tspan></text>
		<rect x="353.925" y="132.236" fill="none" width="35.859" height="20.221"/>
		<text transform="matrix(1 0 0 1 364.2895 138.2358)" fill="#414042" font-family="'Cabin-Bold'" font-size="8">09’+10’</text>
	</g>
	<g>
		<g>
			<g>
				<path fill="#4CBAC5" d="M394.67,239.911c-7.8,0-14.147-6.346-14.147-14.146c0-7.8,6.346-14.145,14.147-14.145
					c7.8,0,14.146,6.345,14.146,14.145C408.815,233.565,402.47,239.911,394.67,239.911z"/>
			</g>
			<g>
				<g>
					<path fill="#FFFFFF" d="M394.669,212.663c7.237,0,13.102,5.865,13.102,13.102c0,7.237-5.865,13.103-13.102,13.103
						c-7.237,0-13.103-5.865-13.103-13.103C381.566,218.529,387.432,212.663,394.669,212.663 M394.669,210.576
						c-8.376,0-15.19,6.814-15.19,15.189c0,8.376,6.814,15.19,15.19,15.19c8.375,0,15.189-6.814,15.189-15.19
						C409.859,217.39,403.045,210.576,394.669,210.576L394.669,210.576z"/>
				</g>
			</g>
		</g>
		<g>
			<defs>
				<circle id="SVGID_31_" cx="394.669" cy="225.765" r="13.103"/>
			</defs>
			<clipPath id="SVGID_32_">
				<use xlink:href="#SVGID_31_"  overflow="visible"/>
			</clipPath>
			<g clip-path="url(#SVGID_32_)">
				<g>
					<path fill="#F1F2F2" d="M397.159,226.563h-4.98c-0.635,0-1.152-0.517-1.152-1.152v-2.829c0-0.635,0.517-1.152,1.152-1.152h4.98
						c0.635,0,1.152,0.517,1.152,1.152v2.829C398.31,226.046,397.794,226.563,397.159,226.563z M392.179,222.213
						c-0.203,0-0.369,0.166-0.369,0.369v2.829c0,0.203,0.166,0.369,0.369,0.369h4.98c0.203,0,0.369-0.166,0.369-0.369v-2.829
						c0-0.203-0.166-0.369-0.369-0.369H392.179z"/>
				</g>
				<g>
					<path fill-rule="evenodd" clip-rule="evenodd" fill="#4CBAC5" d="M405.493,237.985c0,0.781-0.633,1.414-1.414,1.414h-18.82
						c-0.781,0-1.414-0.633-1.414-1.414v-12.574c0-0.781,0.633-1.414,1.414-1.414h18.82c0.781,0,1.414,0.633,1.414,1.414V237.985z"
						/>
					<path fill="#F1F2F2" d="M404.079,239.66h-18.82c-0.924,0-1.675-0.751-1.675-1.675v-12.574c0-0.924,0.751-1.675,1.675-1.675
						h18.82c0.924,0,1.675,0.751,1.675,1.675v12.574C405.754,238.909,405.002,239.66,404.079,239.66z M385.259,224.258
						c-0.636,0-1.153,0.517-1.153,1.153v12.574c0,0.636,0.517,1.153,1.153,1.153h18.82c0.636,0,1.153-0.517,1.153-1.153v-12.574
						c0-0.636-0.517-1.153-1.153-1.153H385.259z"/>
				</g>
				<g>
					<line fill="#6DB6D5" x1="383.845" y1="228.052" x2="405.493" y2="228.052"/>
					<rect x="383.845" y="227.791" fill="#F1F2F2" width="21.648" height="0.522"/>
				</g>
				<g>
					<path fill="#F1F2F2" d="M397.103,228.826c0,0.24-0.195,0.435-0.435,0.435h-3.997c-0.24,0-0.435-0.195-0.435-0.435v-1.547
						c0-0.24,0.195-0.435,0.435-0.435h3.997c0.24,0,0.435,0.195,0.435,0.435V228.826z"/>
				</g>
			</g>
		</g>
	</g>
</g>
<g>
	<g>
		
			<line fill="none" stroke="#414042" stroke-linecap="round" stroke-miterlimit="10" stroke-dasharray="2,3,2,3,2,3" x1="566.623" y1="231.32" x2="566.623" y2="90.475"/>
	</g>
	<rect x="458.303" y="89.843" fill="none" width="103.821" height="13.494"/>
	<text transform="matrix(1 0 0 1 488.933 100.3424)" fill="#4CBAC5" font-family="'Cabin-Medium'" font-size="14">South Africa</text>
	<rect x="455.788" y="106.337" fill="none" width="106.335" height="15.864"/>
	<text transform="matrix(1 0 0 1 476.1783 111.6573)"><tspan x="0" y="0" fill="#414042" font-family="'Arvo'" font-size="7">Odd-job charity work in a </tspan><tspan x="11.078" y="8.399" fill="#414042" font-family="'Arvo'" font-size="7">township community. </tspan></text>
	<rect x="526.265" y="125.201" fill="none" width="35.859" height="20.221"/>
	<text transform="matrix(1 0 0 1 554.6843 131.2011)" fill="#414042" font-family="'Cabin-Bold'" font-size="8">11’</text>
	<g>
		<g>
			<path fill="#4CBAC5" d="M566.624,239.911c-7.8,0-14.147-6.346-14.147-14.146c0-7.8,6.346-14.145,14.147-14.145
				c7.8,0,14.146,6.345,14.146,14.145C580.77,233.565,574.424,239.911,566.624,239.911z"/>
		</g>
		<g>
			<g>
				<path fill="#FFFFFF" d="M566.624,212.663c7.237,0,13.102,5.865,13.102,13.102c0,7.237-5.865,13.103-13.102,13.103
					c-7.237,0-13.103-5.865-13.103-13.103C553.521,218.529,559.387,212.663,566.624,212.663 M566.624,210.576
					c-8.376,0-15.19,6.814-15.19,15.189c0,8.376,6.814,15.19,15.19,15.19c8.375,0,15.189-6.814,15.189-15.19
					C581.813,217.39,574.999,210.576,566.624,210.576L566.624,210.576z"/>
			</g>
		</g>
	</g>
</g>
<g>
	<defs>
		<circle id="SVGID_33_" cx="566.623" cy="225.765" r="13.103"/>
	</defs>
	<clipPath id="SVGID_34_">
		<use xlink:href="#SVGID_33_"  overflow="visible"/>
	</clipPath>
	<g clip-path="url(#SVGID_34_)">
		<g>
			<path fill="#F1F2F2" d="M569.113,226.563h-4.98c-0.635,0-1.152-0.517-1.152-1.152v-2.829c0-0.635,0.517-1.152,1.152-1.152h4.98
				c0.635,0,1.152,0.517,1.152,1.152v2.829C570.265,226.046,569.748,226.563,569.113,226.563z M564.134,222.213
				c-0.203,0-0.369,0.166-0.369,0.369v2.829c0,0.203,0.166,0.369,0.369,0.369h4.98c0.203,0,0.369-0.166,0.369-0.369v-2.829
				c0-0.203-0.166-0.369-0.369-0.369H564.134z"/>
		</g>
		<g>
			<path fill-rule="evenodd" clip-rule="evenodd" fill="#4CBAC5" d="M577.447,237.985c0,0.781-0.633,1.414-1.414,1.414h-18.82
				c-0.781,0-1.414-0.633-1.414-1.414v-12.574c0-0.781,0.633-1.414,1.414-1.414h18.82c0.781,0,1.414,0.633,1.414,1.414V237.985z"/>
			<path fill="#F1F2F2" d="M576.033,239.66h-18.82c-0.924,0-1.675-0.751-1.675-1.675v-12.574c0-0.924,0.751-1.675,1.675-1.675h18.82
				c0.924,0,1.675,0.751,1.675,1.675v12.574C577.708,238.909,576.957,239.66,576.033,239.66z M557.214,224.258
				c-0.636,0-1.153,0.517-1.153,1.153v12.574c0,0.636,0.517,1.153,1.153,1.153h18.82c0.636,0,1.153-0.517,1.153-1.153v-12.574
				c0-0.636-0.517-1.153-1.153-1.153H557.214z"/>
		</g>
		<g>
			<line fill="#6DB6D5" x1="555.8" y1="228.052" x2="577.447" y2="228.052"/>
			<rect x="555.8" y="227.791" fill="#F1F2F2" width="21.648" height="0.522"/>
		</g>
		<g>
			<path fill="#F1F2F2" d="M569.057,228.826c0,0.24-0.195,0.435-0.435,0.435h-3.997c-0.24,0-0.435-0.195-0.435-0.435v-1.547
				c0-0.24,0.195-0.435,0.435-0.435h3.997c0.24,0,0.435,0.195,0.435,0.435V228.826z"/>
		</g>
	</g>
</g>
<g>
	<g>
		<g>
			
				<line fill="none" stroke="#414042" stroke-linecap="round" stroke-miterlimit="10" stroke-dasharray="2,3,2,3,2,3" x1="756.87" y1="226.499" x2="756.87" y2="114.09"/>
		</g>
		<g>
			<rect x="761.37" y="114.727" fill="none" width="84.871" height="13.375"/>
			<text transform="matrix(1 0 0 1 761.3694 125.2271)" fill="#4CBAC5" font-family="'Cabin-Medium'" font-size="14">Mixtable</text>
			<rect x="761.37" y="131.102" fill="none" width="89.243" height="15.864"/>
			<text transform="matrix(1 0 0 1 761.3696 136.4223)"><tspan x="0" y="0" fill="#414042" font-family="'Arvo'" font-size="7">UX/UI Designer,</tspan><tspan x="0" y="8.399" fill="#414042" font-family="'Arvo'" font-size="7">Munich</tspan></text>
			<rect x="761.37" y="149.966" fill="none" width="35.859" height="20.221"/>
			<text transform="matrix(1 0 0 1 761.3699 155.9661)" fill="#414042" font-family="'Cabin-Bold'" font-size="8">13’-14’</text>
		</g>
	</g>
	<g>
		<g>
			<g>
				<path fill="#4CBAC5" d="M756.871,239.911c-7.8,0-14.147-6.346-14.147-14.146c0-7.8,6.346-14.145,14.147-14.145
					c7.8,0,14.146,6.345,14.146,14.145C771.016,233.565,764.671,239.911,756.871,239.911z"/>
			</g>
			<g>
				<g>
					<path fill="#FFFFFF" d="M756.871,212.663c7.237,0,13.102,5.865,13.102,13.102c0,7.237-5.865,13.103-13.102,13.103
						c-7.237,0-13.103-5.865-13.103-13.103C743.768,218.529,749.633,212.663,756.871,212.663 M756.871,210.576
						c-8.376,0-15.19,6.814-15.19,15.189c0,8.376,6.814,15.19,15.19,15.19c8.375,0,15.189-6.814,15.189-15.19
						C772.06,217.39,765.246,210.576,756.871,210.576L756.871,210.576z"/>
				</g>
			</g>
		</g>
		<g>
			<defs>
				<circle id="SVGID_35_" cx="756.87" cy="225.765" r="13.103"/>
			</defs>
			<clipPath id="SVGID_36_">
				<use xlink:href="#SVGID_35_"  overflow="visible"/>
			</clipPath>
			<g clip-path="url(#SVGID_36_)">
				<g>
					<path fill="#F1F2F2" d="M759.36,226.563h-4.98c-0.635,0-1.151-0.517-1.151-1.152v-2.829c0-0.635,0.517-1.152,1.151-1.152h4.98
						c0.635,0,1.152,0.517,1.152,1.152v2.829C760.512,226.046,759.995,226.563,759.36,226.563z M754.38,222.213
						c-0.203,0-0.369,0.166-0.369,0.369v2.829c0,0.203,0.166,0.369,0.369,0.369h4.98c0.203,0,0.369-0.166,0.369-0.369v-2.829
						c0-0.203-0.166-0.369-0.369-0.369H754.38z"/>
				</g>
				<g>
					<path fill-rule="evenodd" clip-rule="evenodd" fill="#4CBAC5" d="M767.694,237.985c0,0.781-0.633,1.414-1.414,1.414h-18.82
						c-0.781,0-1.414-0.633-1.414-1.414v-12.574c0-0.781,0.633-1.414,1.414-1.414h18.82c0.781,0,1.414,0.633,1.414,1.414V237.985z"
						/>
					<path fill="#F1F2F2" d="M766.28,239.66h-18.82c-0.924,0-1.675-0.751-1.675-1.675v-12.574c0-0.924,0.751-1.675,1.675-1.675
						h18.82c0.924,0,1.675,0.751,1.675,1.675v12.574C767.955,238.909,767.203,239.66,766.28,239.66z M747.46,224.258
						c-0.636,0-1.153,0.517-1.153,1.153v12.574c0,0.636,0.517,1.153,1.153,1.153h18.82c0.636,0,1.153-0.517,1.153-1.153v-12.574
						c0-0.636-0.517-1.153-1.153-1.153H747.46z"/>
				</g>
				<g>
					<line fill="#6DB6D5" x1="746.046" y1="228.052" x2="767.694" y2="228.052"/>
					<rect x="746.046" y="227.791" fill="#F1F2F2" width="21.648" height="0.522"/>
				</g>
				<g>
					<path fill="#F1F2F2" d="M759.304,228.826c0,0.24-0.195,0.435-0.435,0.435h-3.998c-0.24,0-0.435-0.195-0.435-0.435v-1.547
						c0-0.24,0.195-0.435,0.435-0.435h3.998c0.24,0,0.435,0.195,0.435,0.435V228.826z"/>
				</g>
			</g>
		</g>
	</g>
</g>
<g>
	<g>
		
			<line fill="none" stroke="#414042" stroke-linecap="round" stroke-miterlimit="10" stroke-dasharray="2,3,2,3,2,3" x1="628.004" y1="332.923" x2="628.004" y2="234.128"/>
	</g>
	<g>
		<g>
			<path fill="#BA1D80" d="M628.004,233.488c-4.264,0-7.732-3.469-7.732-7.733s3.469-7.732,7.732-7.732s7.732,3.469,7.732,7.732
				S632.267,233.488,628.004,233.488z"/>
			<g>
				<path fill="#FFFFFF" d="M628.004,219.441c3.488,0,6.315,2.827,6.315,6.315c0,3.488-2.827,6.315-6.315,6.315
					s-6.315-2.827-6.315-6.315C621.689,222.267,624.516,219.441,628.004,219.441 M628.004,216.606c-5.045,0-9.15,4.104-9.15,9.149
					c0,5.045,4.105,9.15,9.15,9.15c5.045,0,9.15-4.105,9.15-9.15C637.154,220.71,633.049,216.606,628.004,216.606L628.004,216.606z"
					/>
			</g>
		</g>
	</g>
	<g>
		<rect x="632.504" y="292.032" fill="none" width="109.083" height="13.375"/>
		<text transform="matrix(1 0 0 1 632.5042 302.5321)" fill="#993680" font-family="'Cabin-Medium'" font-size="14">Brunel University</text>
		<rect x="632.504" y="308.407" fill="none" width="89.243" height="15.864"/>
		<text transform="matrix(1 0 0 1 632.5034 313.7274)"><tspan x="0" y="0" fill="#414042" font-family="'Arvo'" font-size="7">Industrial Design </tspan><tspan x="0" y="8.399" fill="#414042" font-family="'Arvo'" font-size="7">&amp; Technology BA</tspan></text>
		<rect x="632.504" y="327.271" fill="none" width="35.859" height="20.221"/>
		<text transform="matrix(1 0 0 1 632.5037 333.2712)" fill="#414042" font-family="'Cabin-Bold'" font-size="8">11’- 15’</text>
	</g>
	<g>
		<g>
			<g>
				<path fill="#993680" d="M628.005,240.101c-7.905,0-14.336-6.431-14.336-14.336c0-7.904,6.432-14.335,14.336-14.335
					c7.904,0,14.335,6.43,14.335,14.335C642.34,233.67,635.909,240.101,628.005,240.101z"/>
			</g>
			<g>
				<path fill="#FFFFFF" d="M628.004,212.488c7.334,0,13.278,5.944,13.278,13.277c0,7.334-5.943,13.278-13.278,13.278
					s-13.279-5.944-13.279-13.278C614.726,218.431,620.67,212.488,628.004,212.488 M628.004,210.373
					c-8.488,0-15.394,6.905-15.394,15.392c0,8.488,6.906,15.393,15.394,15.393c8.488,0,15.393-6.905,15.393-15.393
					C643.397,217.278,636.492,210.373,628.004,210.373L628.004,210.373z"/>
			</g>
		</g>
		<g>
			<g>
				<path fill="#F1F2F2" d="M628.004,232.658c-3.603,0-6.69-1.94-6.69-3.529v-5.332c0-0.219,0.178-0.397,0.397-0.397h12.587
					c0.219,0,0.397,0.178,0.397,0.397v5.332C634.694,230.717,631.607,232.658,628.004,232.658z M622.107,224.194v4.935
					c0,0.936,2.49,2.735,5.897,2.735s5.897-1.799,5.897-2.735v-4.935H622.107z"/>
			</g>
			<g>
				<line fill="#BA1D80" x1="620.407" y1="222.13" x2="620.407" y2="229.059"/>
				<path fill="#F1F2F2" d="M620.407,229.376c-0.175,0-0.317-0.142-0.317-0.317v-6.929c0-0.175,0.142-0.317,0.317-0.317
					c0.175,0,0.317,0.142,0.317,0.317v6.929C620.725,229.234,620.583,229.376,620.407,229.376z"/>
			</g>
			<g>
				<polygon fill="#993680" points="628.004,227.682 617.606,222.65 628.004,219.27 638.401,222.65 				"/>
				<path fill="#F1F2F2" d="M628.004,228.079c-0.059,0-0.118-0.013-0.173-0.04l-10.398-5.031c-0.146-0.07-0.234-0.223-0.223-0.384
					c0.011-0.162,0.119-0.3,0.273-0.35l10.398-3.38c0.08-0.026,0.165-0.026,0.245,0l10.398,3.38c0.154,0.05,0.262,0.189,0.273,0.35
					c0.011,0.161-0.077,0.314-0.223,0.384l-10.398,5.031C628.122,228.065,628.063,228.079,628.004,228.079z M618.666,222.723
					l9.338,4.519l9.338-4.519l-9.338-3.036L618.666,222.723z"/>
			</g>
			<g>
				<line fill="#BA1D80" x1="627.873" y1="222.713" x2="620.407" y2="221.48"/>
				<path fill="#F1F2F2" d="M627.873,223.11c-0.021,0-0.043-0.002-0.065-0.005l-7.465-1.233c-0.216-0.036-0.362-0.24-0.327-0.456
					c0.036-0.216,0.24-0.362,0.456-0.327l7.465,1.233c0.216,0.036,0.362,0.24,0.327,0.456
					C628.232,222.972,628.064,223.11,627.873,223.11z"/>
			</g>
		</g>
	</g>
</g>
</svg>
