<?xml version="1.0" encoding="utf-8"?>
<!-- Generator: Adobe Illustrator 17.0.0, SVG Export Plug-In . SVG Version: 6.00 Build 0)  -->
<!DOCTYPE svg PUBLIC "-//W3C//DTD SVG 1.1//EN" "http://www.w3.org/Graphics/SVG/1.1/DTD/svg11.dtd">
<svg version="1.1" id="Layer_1" xmlns="http://www.w3.org/2000/svg" xmlns:xlink="http://www.w3.org/1999/xlink" x="0px" y="0px"
	 width="700px" height="700px" viewBox="-769.297 2654.922 700 700" enable-background="new -769.297 2654.922 700 700"
	 xml:space="preserve">
<g>
	<circle fill="#4CB9C4" cx="-418.297" cy="3004.922" r="336.143"/>
</g>
<g>
	<path fill-rule="evenodd" clip-rule="evenodd" fill="#B7E3E7" d="M-551.957,2984.731c4.692,9.791,13.129,16.647,19.62,25.03
		c26.075,33.685,52.162,67.355,78.931,100.51c16.109,19.951,36.768,31.555,60.189,39.594c5.844,2.006,6.555,0.434,5.342-6.708
		c-3.596-21.185-16.569-37.07-29.565-52.853c-24.066-29.227-48.452-58.189-72.672-87.295c-2.919-3.51-5.877-6.746-10.812-7.287
		c-2.181-0.238-4.162-1.464-3.118-3.958c2.937-7.006,0.157-11.885-5.222-16.121c-0.657-0.516-0.714-1.79-1.052-2.711
		c-2.539,0.92-5.07,1.867-7.625,2.75C-529.056,2979.537-539.368,2986.412-551.957,2984.731z"/>
	<path fill-rule="evenodd" clip-rule="evenodd" fill="#B7E3E7" d="M-465.587,2936.227c-13.637,7.203-27.289,14.395-40.911,21.611
		c-3.269,1.731-6.512,3.296-10.933,3.044c-1.952-0.117-3.932,0.378-3.53,1.968c1.133,4.475-2.291,7.032-7.856,8.904
		c-0.677,0.227-0.989,0.974-1.473,1.479l1.882-3.902c-1.432-7.088-13.266-22.799-14.941-23.649
		c-0.229-0.478-0.606-0.764-1.128-0.859c-0.013-0.491-0.028-0.986-0.044-1.478c5.797-6.119,12.825-9.397,20.524-13.15
		c0,0,54.559-29.418,82.125-38.653c7.946-2.662,16.305-1.968,24.501-1.513c2.548,0.139,6.102,1.226,7.242,3.083
		c1.578,2.571-1.566,5.021-3.368,6.842c-13.412,13.571-28.608,24.705-45.931,32.834c-5.698,3.087-6.461,3.634-6.461,3.634"/>
	<path fill-rule="evenodd" clip-rule="evenodd" fill="#B7E3E7" d="M-561.356,2941.37c2.119-3.264,7.616-9.874,13.735-12.406
		c3.63-1.504,4.073-5.39,5.212-8.651c10.516-30.144,21.212-60.218,36.553-88.37c0.715-1.315,1.391-2.661,2.21-3.912
		c2.006-3.068,3.535-7.571,7.498-7.584c4.949-0.014,4.009,5.424,5.579,8.566c4.821,9.657,9.123,19.438,8.709,30.57
		c-0.306,8.219-0.472,8.314-7.87,5.179c-13.516-5.722-13.388-5.685-17.94,9.054c-2.125,6.888-5.562,13.411-5.814,20.795
		c-0.172,5.046-0.498,10.561,6.302,11.709c6.476,1.093,10.391-2.294,12.4-8.241c0.241-0.708,0.383-1.466,0.724-2.12
		c1.14-2.21-0.926-6.982,2.607-6.557c3.487,0.419,3.326,5.06,2.982,8.233c-1.424,13.087-7.379,24.115-15.904,33.907
		c-5.752-2.324-16.394,19.758-22.641,18.744c-12.221-1.986-16.696-22.366-21.66-11.062
		C-555.997,2955.9-563.471,2944.633-561.356,2941.37z"/>
	<g>
		<path fill-rule="evenodd" clip-rule="evenodd" fill="#B7E3E7" d="M-328.235,2927.195l0.181-0.008
			c1.99-0.119,3.923,1.109,2.57,3.044c-5.075,7.253-0.107,12.025,3.694,17.135c0.951,1.284,1.46,2.571,1.321,4.137
			c11.83-0.116,13.967-1.938,16.729-14.251c-2.62-0.943-4.204-3.07-5.864-5.113l-0.113-0.231c-1.565-4.178-2.817-7.652-7.466-10.663
			l-1.117-0.763"/>
		<path fill-rule="evenodd" clip-rule="evenodd" fill="#B7E3E7" d="M-318.299,2920.482c-2.206-1.531-4.964-2.4-8.189-2.585
			c1.264-2.647,2.475-4.865,3.406-7.191c3.017-7.558-0.442-12.057-8.48-10.873c-2.973,0.437-5.872,1.472-9.545,2.429
			c1.292-3.442,2.481-6.012,3.226-8.69c2.221-7.959-2.272-12.594-10.288-10.767c-2.804,0.644-5.604,1.318-8.828,2.079
			c1.206-3.906,2.458-7.008,3.096-10.214c1.406-7.087-2.506-11.116-9.661-10.088c-3.075,0.44-6.111,1.235-9.635,1.965
			c0.93-3.817,1.899-7.29,2.606-10.807c1.02-5.086-1.727-9.124-6.87-9.321c-4.294-0.166-8.65,0.582-13.284,0.949
			c0.321-1.478,0.597-2.847,0.918-4.199c0.359-1.533,0.839-3.046,1.128-4.588c0.918-4.912-0.781-7.066-5.781-7.251
			c-2.468-0.088-4.958,0.034-7.44,0.06c-0.128,0.268-0.253,0.539-0.379,0.809c2.373,1.104,4.749,2.217,7.339,3.42
			c-0.882,2.939-1.823,5.92-2.67,8.93c-2.158,7.686,1.618,12.191,9.581,11.367c2.889-0.297,5.758-0.849,8.887-1.322
			c-0.516,2.162-0.893,3.854-1.329,5.526c-0.481,1.831-1.099,3.628-1.512,5.469c-1.325,5.964,3.163,10.412,9.177,9.252
			c3.212-0.619,6.465-1.024,10.253-1.611c-1.147,3.462-2.16,6.256-2.994,9.096c-1.831,6.208,0.584,12.491,8.48,11.476
			c3.206-0.412,6.378-1.157,9.905-1.809c-1.158,3.036-2.289,5.652-3.146,8.342c-2.178,6.831,1.558,11.518,8.594,10.745
			c3.143-0.343,6.258-1.033,9.787-1.635c-1.296,2.712-2.319,4.848-3.34,6.989c-2.942,6.149,0.15,11.691,6.692,10.823l0.359-0.062"/>
	</g>
	<line fill="none" x1="-356.33" y1="2995.507" x2="-343.772" y2="2909.884"/>
	<polygon fill-rule="evenodd" clip-rule="evenodd" fill="#B7E3E7" points="-291.927,2989.642 -409.7,3069.817 -298.093,2985.634 	
		"/>
	<path fill-rule="evenodd" clip-rule="evenodd" fill="#265D62" d="M-264.868,2965.65c0-18.908-15.328-34.236-34.236-34.236h-238.384
		c-18.908,0-34.236,15.328-34.236,34.236l0,0c0,18.908,15.328,34.236,34.236,34.236h238.384
		C-280.197,2999.886-264.868,2984.558-264.868,2965.65L-264.868,2965.65z"/>
	<g>
		<rect x="-423.024" y="2947.685" fill-rule="evenodd" clip-rule="evenodd" fill="#B7E3E7" width="9.455" height="35.929"/>
		<rect x="-436.261" y="2960.922" fill-rule="evenodd" clip-rule="evenodd" fill="#B7E3E7" width="35.929" height="9.455"/>
	</g>
</g>
<g>
	<rect x="-669.154" y="3171.052" fill="none" width="472" height="105"/>
	<text transform="matrix(1 0 0 1 -578.2589 3228.8015)" fill="#FFFFFF" font-family="'Cabin-SemiBold'" font-size="77">Versatile</text>
</g>
</svg>
