<?xml version="1.0" encoding="utf-8"?>
<!-- Generator: Adobe Illustrator 17.0.0, SVG Export Plug-In . SVG Version: 6.00 Build 0)  -->
<!DOCTYPE svg PUBLIC "-//W3C//DTD SVG 1.1//EN" "http://www.w3.org/Graphics/SVG/1.1/DTD/svg11.dtd">
<svg version="1.1" id="Layer_1" xmlns="http://www.w3.org/2000/svg" xmlns:xlink="http://www.w3.org/1999/xlink" x="0px" y="0px"
	 width="700px" height="700px" viewBox="0 0 700 700" enable-background="new 0 0 700 700" xml:space="preserve">
<g>
	<circle fill="#4CB9C4" cx="350" cy="350" r="336.143"/>
</g>
<g>
	<path fill="#B7E3E7" d="M216.34,329.809c4.692,9.791,13.129,16.647,19.62,25.03c26.075,33.685,52.162,67.355,78.931,100.51
		C331,475.3,351.659,486.904,375.08,494.943c5.844,2.006,6.555,0.434,5.342-6.708c-3.596-21.185-16.569-37.07-29.565-52.853
		c-24.066-29.227-48.452-58.189-72.672-87.295c-2.919-3.51-5.877-6.746-10.812-7.287c-2.181-0.238-4.162-1.464-3.118-3.958
		c2.937-7.006,0.157-11.885-5.222-16.121c-0.657-0.516-0.714-1.79-1.052-2.711c-2.539,0.92-5.07,1.867-7.625,2.75
		C239.241,324.615,228.929,331.49,216.34,329.809z"/>
	<path fill="#B7E3E7" d="M302.71,281.305c-13.637,7.203-27.289,14.395-40.911,21.611c-3.269,1.731-6.512,3.296-10.933,3.044
		c-1.952-0.117-3.932,0.378-3.53,1.968c1.133,4.475-2.291,7.032-7.856,8.904c-0.677,0.227-0.989,0.974-1.473,1.479l1.882-3.902
		c-1.432-7.088-13.266-22.799-14.941-23.649c-0.229-0.478-0.606-0.764-1.128-0.859c-0.013-0.491-0.028-0.986-0.044-1.478
		c5.797-6.119,12.825-9.397,20.524-13.15c0,0,54.559-29.418,82.125-38.653c7.946-2.662,16.305-1.968,24.501-1.513
		c2.548,0.139,6.102,1.226,7.242,3.083c1.578,2.571-1.566,5.021-3.368,6.842c-13.412,13.571-28.608,24.705-45.931,32.834
		c-5.698,3.087-6.461,3.634-6.461,3.634"/>
	<path fill="#B7E3E7" d="M206.941,286.448c2.119-3.264,7.616-9.874,13.735-12.406c3.63-1.504,4.073-5.39,5.212-8.651
		c10.516-30.144,21.212-60.218,36.553-88.37c0.715-1.315,1.391-2.661,2.21-3.912c2.006-3.068,3.535-7.571,7.498-7.584
		c4.949-0.014,4.009,5.424,5.579,8.566c4.821,9.657,9.123,19.438,8.709,30.57c-0.306,8.219-0.472,8.314-7.87,5.179
		c-13.516-5.722-13.388-5.685-17.94,9.054c-2.125,6.888-5.562,13.411-5.814,20.795c-0.172,5.046-0.498,10.561,6.302,11.709
		c6.476,1.093,10.391-2.294,12.4-8.241c0.241-0.708,0.383-1.466,0.724-2.12c1.14-2.21-0.926-6.982,2.607-6.557
		c3.487,0.419,3.326,5.06,2.982,8.233c-1.424,13.087-7.379,24.115-15.904,33.907c-5.752-2.324-16.394,19.758-22.641,18.744
		c-12.221-1.986-16.696-22.366-21.66-11.062C212.3,300.978,204.826,289.711,206.941,286.448z"/>
	<g>
		<path fill="#B7E3E7" d="M440.062,272.273l0.181-0.008c1.99-0.119,3.923,1.109,2.57,3.044c-5.075,7.253-0.107,12.025,3.694,17.135
			c0.951,1.284,1.46,2.571,1.321,4.137c11.83-0.116,13.967-1.938,16.729-14.251c-2.62-0.943-4.204-3.07-5.864-5.113l-0.113-0.231
			c-1.565-4.178-2.817-7.652-7.466-10.663l-1.117-0.763"/>
		<path fill="#B7E3E7" d="M449.998,265.56c-2.206-1.531-4.964-2.4-8.189-2.585c1.264-2.647,2.475-4.865,3.406-7.191
			c3.017-7.558-0.442-12.057-8.48-10.873c-2.973,0.437-5.872,1.472-9.545,2.429c1.292-3.442,2.481-6.012,3.226-8.69
			c2.221-7.959-2.272-12.594-10.288-10.767c-2.804,0.644-5.604,1.318-8.828,2.079c1.206-3.906,2.458-7.008,3.096-10.214
			c1.406-7.087-2.506-11.116-9.661-10.088c-3.075,0.44-6.111,1.235-9.635,1.965c0.93-3.817,1.899-7.29,2.606-10.807
			c1.02-5.086-1.727-9.124-6.87-9.321c-4.294-0.166-8.65,0.582-13.284,0.949c0.321-1.478,0.597-2.847,0.918-4.199
			c0.359-1.533,0.839-3.046,1.128-4.588c0.918-4.912-0.781-7.066-5.781-7.251c-2.468-0.088-4.958,0.034-7.44,0.06
			c-0.128,0.268-0.253,0.539-0.379,0.809c2.373,1.104,4.749,2.217,7.339,3.42c-0.882,2.939-1.823,5.92-2.67,8.93
			c-2.158,7.686,1.618,12.191,9.581,11.367c2.889-0.297,5.758-0.849,8.887-1.322c-0.516,2.162-0.893,3.854-1.329,5.526
			c-0.481,1.831-1.099,3.628-1.512,5.469c-1.325,5.964,3.163,10.412,9.177,9.252c3.212-0.619,6.465-1.024,10.253-1.611
			c-1.147,3.462-2.16,6.256-2.994,9.096c-1.831,6.208,0.584,12.491,8.48,11.476c3.206-0.412,6.378-1.157,9.905-1.809
			c-1.158,3.036-2.289,5.652-3.146,8.342c-2.178,6.831,1.558,11.518,8.594,10.745c3.143-0.343,6.258-1.033,9.787-1.635
			c-1.296,2.712-2.319,4.848-3.34,6.989c-2.942,6.149,0.15,11.691,6.692,10.823l0.359-0.062"/>
	</g>
	<line fill="none" x1="411.967" y1="340.585" x2="424.525" y2="254.962"/>
	<polygon fill="#B7E3E7" points="476.37,334.72 358.597,414.895 470.204,330.712 	"/>
	<path fill="#265D62" d="M503.429,310.728c0-18.908-15.328-34.236-34.236-34.236H230.809c-18.908,0-34.236,15.328-34.236,34.236l0,0
		c0,18.908,15.328,34.236,34.236,34.236h238.384C488.1,344.964,503.429,329.636,503.429,310.728L503.429,310.728z"/>
	<g>
		<rect x="345.273" y="292.763" fill="#B7E3E7" width="9.455" height="35.929"/>
		<rect x="332.036" y="306" fill="#B7E3E7" width="35.929" height="9.455"/>
	</g>
</g>
<g>
	<rect x="99.143" y="516.13" fill="none" width="472" height="105"/>
	<g enable-background="new    ">
		<path fill="#FFFFFF" d="M240.165,519.979l-19.481,53.9h-10.703l-19.789-53.9h9.471l15.631,42.352l15.4-42.352H240.165z"/>
		<path fill="#FFFFFF" d="M273.199,556.17h-25.641c0.512,3.822,1.912,6.627,4.196,8.412c2.284,1.783,4.992,2.676,8.124,2.676
			c3.952,0,7.802-0.924,11.55-2.771l0.616,7.236c-4.004,1.953-8.266,2.926-12.782,2.926c-3.286,0-6.211-0.5-8.778-1.5
			c-2.567-1.002-4.735-2.4-6.506-4.197s-3.119-3.9-4.042-6.314c-0.924-2.412-1.386-5.055-1.386-7.93
			c0-2.773,0.424-5.352,1.271-7.738c0.847-2.389,2.079-4.479,3.696-6.275c1.617-1.797,3.554-3.209,5.813-4.236
			c2.258-1.025,4.824-1.539,7.7-1.539c2.413,0,4.632,0.398,6.661,1.193c2.027,0.797,3.785,1.912,5.274,3.35
			c1.488,1.438,2.657,3.17,3.503,5.197c0.847,2.027,1.271,4.273,1.271,6.736c0,0.617-0.039,1.322-0.115,2.119
			C273.545,554.309,273.403,555.195,273.199,556.17z M257.183,542.309c-5.032,0-8.112,2.645-9.24,7.932h16.863
			c0-2.207-0.616-4.08-1.848-5.621C261.726,543.08,259.801,542.309,257.183,542.309z"/>
		<path fill="#FFFFFF" d="M301.843,534.764l-1.694,8.547h-3.234c-1.54,0-3.016,0.412-4.428,1.232
			c-1.412,0.82-2.425,1.797-3.042,2.926v26.41h-8.932v-38.268h7.931l0.462,4.773c3.388-3.746,7.057-5.621,11.011-5.621H301.843z"/>
		<path fill="#FFFFFF" d="M317.396,574.648c-5.698,0-10.037-1-13.013-3.002l0.847-7.699c0.616,0.461,1.373,0.924,2.271,1.385
			c0.897,0.463,1.873,0.873,2.926,1.232c1.052,0.359,2.156,0.654,3.311,0.885c1.155,0.232,2.271,0.348,3.35,0.348
			c2.207,0,3.824-0.41,4.851-1.232c1.026-0.82,1.54-1.873,1.54-3.156c0-1.232-0.552-2.26-1.656-3.08
			c-1.104-0.82-2.438-1.541-4.004-2.156c-1.566-0.617-3.195-1.193-4.889-1.732c-1.694-0.539-3.107-1.143-4.235-1.811
			c-2.516-1.488-3.773-4.055-3.773-7.699c0-1.541,0.27-3.041,0.809-4.504c0.539-1.465,1.386-2.746,2.541-3.852
			c1.155-1.104,2.618-1.988,4.389-2.656c1.771-0.666,3.888-1,6.353-1c4.67,0,8.521,0.924,11.55,2.771l-0.847,7.547
			c-2.875-2.566-6.263-3.852-10.164-3.852c-1.951,0-3.555,0.361-4.812,1.078c-1.258,0.721-1.886,1.848-1.886,3.389
			c0,1.027,0.243,1.848,0.731,2.463c0.487,0.617,1.142,1.131,1.963,1.541c0.821,0.412,1.758,0.744,2.811,1
			c1.052,0.258,2.143,0.539,3.272,0.848c7.084,1.797,10.626,5.674,10.626,11.627c0,1.232-0.18,2.502-0.539,3.812
			c-0.359,1.309-1.078,2.527-2.156,3.656c-1.078,1.131-2.593,2.055-4.543,2.773C323.068,574.289,320.527,574.648,317.396,574.648z"
			/>
		<path fill="#FFFFFF" d="M371.449,567.488l-0.847,7.16h-2.618c-4.312,0-7.289-1.59-8.932-4.773
			c-2.772,3.184-6.674,4.773-11.704,4.773c-1.644,0-3.157-0.268-4.543-0.807c-1.386-0.539-2.58-1.311-3.581-2.311
			c-1.001-1.002-1.784-2.207-2.349-3.619c-0.565-1.412-0.847-2.965-0.847-4.658c0-2.619,0.757-4.787,2.271-6.508
			c1.514-1.719,3.375-3.104,5.583-4.156c2.207-1.053,4.582-1.797,7.123-2.234c2.541-0.436,4.863-0.68,6.969-0.73
			c-0.052-2.619-0.643-4.453-1.771-5.506s-3.002-1.578-5.621-1.578c-3.131,0-6.571,1.027-10.317,3.08l-0.924-7.084
			c4.415-2.412,8.958-3.619,13.628-3.619c4.621,0,8.072,1.27,10.357,3.811c2.283,2.541,3.426,6.713,3.426,12.514v9.547
			c0,1.438,0.039,2.594,0.116,3.465c0.077,0.873,0.243,1.555,0.501,2.041c0.256,0.488,0.627,0.809,1.115,0.963
			s1.143,0.23,1.964,0.23H371.449z M357.975,564.408v-8.855c-3.85,0.154-6.957,0.836-9.317,2.041
			c-2.361,1.207-3.542,2.965-3.542,5.275c0,3.336,1.796,5.004,5.391,5.004c1.231,0,2.541-0.309,3.927-0.924
			S356.998,565.486,357.975,564.408z"/>
		<path fill="#FFFFFF" d="M396.397,567.488l-0.771,7.16h-6.621c-1.694,0-3.184-0.256-4.467-0.77
			c-1.283-0.512-2.348-1.205-3.195-2.078c-0.847-0.873-1.477-1.898-1.887-3.08c-0.411-1.18-0.615-2.465-0.615-3.85v-22.176h-5.775
			l0.77-7.084h5.006v-8.701l8.701-0.924v9.625h8.932v7.084h-8.932v18.172c0,1.592,0.05,2.836,0.153,3.734
			c0.103,0.898,0.358,1.553,0.771,1.963c0.41,0.412,1.051,0.668,1.925,0.77c0.872,0.104,2.079,0.154,3.618,0.154H396.397z"/>
		<path fill="#FFFFFF" d="M411.566,528.988h-8.778v-9.01h8.778V528.988z M411.566,573.879h-8.778v-38.268h8.778V573.879z"/>
		<path fill="#FFFFFF" d="M434.512,567.488l-0.848,7.16h-3.08c-3.285,0-5.749-0.924-7.392-2.771
			c-1.644-1.848-2.464-4.184-2.464-7.006v-48.742h8.777v44.814c0,1.539,0.051,2.746,0.154,3.619c0.103,0.873,0.32,1.527,0.654,1.963
			c0.334,0.438,0.834,0.707,1.502,0.809C432.482,567.438,433.382,567.488,434.512,567.488z"/>
		<path fill="#FFFFFF" d="M472.473,556.17h-25.641c0.512,3.822,1.911,6.627,4.195,8.412c2.284,1.783,4.992,2.676,8.124,2.676
			c3.952,0,7.802-0.924,11.55-2.771l0.616,7.236c-4.004,1.953-8.266,2.926-12.782,2.926c-3.285,0-6.211-0.5-8.777-1.5
			c-2.568-1.002-4.736-2.4-6.507-4.197s-3.118-3.9-4.042-6.314c-0.925-2.412-1.387-5.055-1.387-7.93
			c0-2.773,0.424-5.352,1.271-7.738c0.847-2.389,2.079-4.479,3.696-6.275s3.554-3.209,5.813-4.236
			c2.259-1.025,4.824-1.539,7.7-1.539c2.412,0,4.632,0.398,6.66,1.193c2.027,0.797,3.785,1.912,5.274,3.35
			c1.488,1.438,2.657,3.17,3.503,5.197c0.848,2.027,1.271,4.273,1.271,6.736c0,0.617-0.039,1.322-0.115,2.119
			C472.818,554.309,472.677,555.195,472.473,556.17z M456.457,542.309c-5.032,0-8.112,2.645-9.24,7.932h16.863
			c0-2.207-0.617-4.08-1.849-5.621C461,543.08,459.074,542.309,456.457,542.309z"/>
	</g>
</g>
</svg>
