<?xml version="1.0" encoding="utf-8"?>
<!-- Generator: Adobe Illustrator 17.0.0, SVG Export Plug-In . SVG Version: 6.00 Build 0)  -->
<!DOCTYPE svg PUBLIC "-//W3C//DTD SVG 1.1//EN" "http://www.w3.org/Graphics/SVG/1.1/DTD/svg11.dtd">
<svg version="1.1" id="Layer_1" xmlns="http://www.w3.org/2000/svg" xmlns:xlink="http://www.w3.org/1999/xlink" x="0px" y="0px"
	 width="700px" height="700px" viewBox="0 0 700 700" enable-background="new 0 0 700 700" xml:space="preserve">
<g>
	<circle fill="#4CB9C4" cx="350" cy="350" r="336.143"/>
</g>
<rect x="50.643" y="490.552" fill="none" width="598.714" height="156.156"/>
<g enable-background="new    ">
	<path fill="#FFFFFF" d="M311.5,494.402l-15.785,53.9h-8.547l-12.166-38.5l-12.32,38.5h-8.932l-15.169-53.9h9.471l11.088,40.578
		l12.475-40.27h6.775l12.859,39.5l10.78-39.809H311.5z"/>
	<path fill="#FFFFFF" d="M335.679,509.186l-1.694,8.547h-3.234c-1.54,0-3.016,0.412-4.428,1.232
		c-1.412,0.822-2.425,1.799-3.041,2.926v26.412h-8.932v-38.27h7.931l0.462,4.773c3.388-3.746,7.058-5.621,11.011-5.621H335.679z"/>
	<path fill="#FFFFFF" d="M337.143,529.207c0-2.773,0.448-5.377,1.348-7.816c0.897-2.438,2.181-4.543,3.85-6.314
		c1.668-1.77,3.696-3.168,6.083-4.195s5.044-1.541,7.97-1.541s5.569,0.514,7.931,1.541c2.36,1.027,4.376,2.438,6.045,4.234
		c1.667,1.797,2.964,3.902,3.889,6.314c0.924,2.412,1.386,5.004,1.386,7.777c0,2.771-0.45,5.363-1.348,7.775
		c-0.898,2.414-2.183,4.52-3.85,6.314c-1.669,1.797-3.696,3.209-6.083,4.236c-2.388,1.025-5.044,1.539-7.97,1.539
		c-2.978,0-5.647-0.514-8.008-1.539c-2.362-1.027-4.377-2.426-6.045-4.197c-1.669-1.771-2.952-3.861-3.85-6.275
		C337.591,534.648,337.143,532.029,337.143,529.207z M346.074,529.168c0,3.838,0.911,6.883,2.733,9.135s4.351,3.377,7.585,3.377
		c3.233,0,5.762-1.125,7.584-3.377s2.733-5.297,2.733-9.135s-0.911-6.869-2.733-9.096s-4.351-3.34-7.584-3.34
		c-3.234,0-5.763,1.113-7.585,3.34S346.074,525.33,346.074,529.168z"/>
	<path fill="#FFFFFF" d="M416.452,548.303h-8.701V527.59c0-3.748-0.654-6.494-1.963-8.24c-1.31-1.744-3.427-2.617-6.353-2.617
		c-3.594,0-6.341,1.258-8.239,3.773v27.797h-8.701v-38.27h7.854l0.308,2.85c2.977-2.361,6.211-3.543,9.702-3.543
		c10.729,0,16.093,6.084,16.093,18.25V548.303z"/>
	<path fill="#FFFFFF" d="M440.553,567.553c-2.978,0-5.596-0.309-7.854-0.924c-2.259-0.617-4.133-1.451-5.621-2.504
		c-1.489-1.053-2.617-2.258-3.388-3.619c-0.77-1.359-1.155-2.811-1.155-4.35c0-3.748,2.156-6.598,6.469-8.547
		c-2.414-1.334-3.619-3.105-3.619-5.312c0-2.311,1.334-4.107,4.004-5.391c-4.056-2.822-6.083-6.955-6.083-12.396
		c0-2.156,0.358-4.17,1.078-6.045c0.718-1.873,1.744-3.477,3.08-4.812c1.334-1.334,2.964-2.387,4.89-3.156
		c1.925-0.771,4.093-1.156,6.506-1.156c3.438,0,6.441,0.822,9.009,2.465c2.465-1.232,5.313-1.848,8.548-1.848h1.925l-0.693,5.621
		h-2.926c-0.874,0-1.848,0.076-2.926,0.23c1.796,2.516,2.694,5.391,2.694,8.623c0,2.055-0.346,3.992-1.039,5.814
		s-1.707,3.426-3.042,4.812c-1.335,1.385-2.964,2.477-4.889,3.271c-1.926,0.797-4.095,1.193-6.507,1.193
		c-1.592,0-3.08-0.152-4.466-0.461c-0.771,0.412-1.155,0.924-1.155,1.539c0,0.463,0.166,0.848,0.501,1.156
		c0.333,0.307,0.885,0.59,1.655,0.846c0.77,0.258,1.81,0.502,3.118,0.732c1.31,0.23,2.965,0.475,4.967,0.73
		c1.693,0.258,3.438,0.592,5.235,1.002c1.797,0.412,3.439,1.027,4.929,1.848c1.488,0.822,2.72,1.898,3.695,3.234
		c0.975,1.334,1.514,3.053,1.617,5.158c0,3.697-1.617,6.662-4.851,8.895C451.024,566.436,446.455,567.553,440.553,567.553z
		 M440.938,550.535l-5.312-0.77c-1.644,0.512-2.979,1.258-4.004,2.232c-1.028,0.975-1.54,2.129-1.54,3.465
		c0,1.744,0.897,3.145,2.694,4.197c1.797,1.051,4.312,1.578,7.546,1.578c3.234,0,5.839-0.514,7.815-1.539
		c1.976-1.029,2.965-2.363,2.965-4.006c0-1.488-0.873-2.605-2.618-3.348C446.738,551.6,444.222,550.998,440.938,550.535z
		 M438.858,515.963c-2.464,0-4.351,0.77-5.659,2.309c-1.31,1.541-1.964,3.619-1.964,6.238c0,2.617,0.667,4.697,2.002,6.236
		c1.335,1.541,3.234,2.311,5.698,2.311s4.351-0.783,5.659-2.35c1.31-1.564,1.964-3.656,1.964-6.275c0-2.617-0.668-4.684-2.002-6.197
		C443.221,516.721,441.322,515.963,438.858,515.963z"/>
</g>
<g enable-background="new    ">
	<path fill="#FFFFFF" d="M267.227,570.025h-15.4v45.277h-9.086v-45.277h-15.4v-8.623h39.886V570.025z"/>
	<path fill="#FFFFFF" d="M306.342,615.303h-8.701v-20.559c0-3.852-0.616-6.648-1.848-8.395c-1.232-1.744-3.311-2.617-6.237-2.617
		c-3.491,0-6.186,1.258-8.085,3.773v27.797h-8.701v-57.75h8.701v22.176c2.669-2.258,5.646-3.389,8.932-3.389
		c10.626,0,15.939,6.135,15.939,18.404V615.303z"/>
	<path fill="#FFFFFF" d="M323.897,570.412h-8.778v-9.01h8.778V570.412z M323.897,615.303h-8.778v-38.27h8.778V615.303z"/>
	<path fill="#FFFFFF" d="M367.094,615.303h-8.701V594.59c0-3.748-0.654-6.494-1.964-8.24c-1.309-1.744-3.427-2.617-6.352-2.617
		c-3.594,0-6.34,1.258-8.239,3.773v27.797h-8.701v-38.27h7.854l0.308,2.85c2.976-2.361,6.21-3.543,9.701-3.543
		c10.729,0,16.094,6.084,16.094,18.25V615.303z"/>
	<path fill="#FFFFFF" d="M384.648,615.303h-8.777v-57.75h8.777v35.611l12.705-16.131h10.087l-14.553,18.133l14.63,20.137h-10.01
		l-12.859-17.748V615.303z"/>
	<path fill="#FFFFFF" d="M443.323,597.592h-25.641c0.512,3.824,1.911,6.629,4.196,8.412c2.283,1.785,4.991,2.676,8.123,2.676
		c3.952,0,7.803-0.924,11.55-2.771l0.616,7.238c-4.004,1.951-8.266,2.926-12.782,2.926c-3.285,0-6.211-0.5-8.777-1.502
		c-2.567-1-4.735-2.398-6.507-4.195c-1.771-1.797-3.118-3.9-4.042-6.314c-0.925-2.412-1.387-5.057-1.387-7.932
		c0-2.771,0.424-5.352,1.271-7.738c0.848-2.387,2.079-4.479,3.696-6.275s3.554-3.207,5.813-4.234c2.259-1.027,4.824-1.541,7.7-1.541
		c2.412,0,4.632,0.398,6.66,1.193c2.027,0.797,3.785,1.914,5.274,3.35c1.488,1.438,2.657,3.17,3.504,5.197
		c0.847,2.029,1.271,4.273,1.271,6.738c0,0.615-0.039,1.322-0.115,2.117C443.67,595.732,443.527,596.617,443.323,597.592z
		 M427.308,583.732c-5.032,0-8.112,2.645-9.24,7.932h16.863c0-2.207-0.616-4.082-1.849-5.621
		C431.851,584.502,429.925,583.732,427.308,583.732z"/>
	<path fill="#FFFFFF" d="M471.967,576.186l-1.694,8.547h-3.234c-1.54,0-3.016,0.412-4.428,1.232
		c-1.412,0.822-2.425,1.799-3.041,2.926v26.412h-8.932v-38.27h7.931l0.462,4.773c3.388-3.746,7.058-5.621,11.011-5.621H471.967z"/>
</g>
<g>
	
		<line fill="none" stroke="#265D62" stroke-width="34.0157" stroke-linecap="round" stroke-miterlimit="10" x1="232.844" y1="192.985" x2="467.156" y2="427.297"/>
	
		<line fill="none" stroke="#265D62" stroke-width="34.0157" stroke-linecap="round" stroke-miterlimit="10" x1="232.844" y1="427.297" x2="467.156" y2="192.985"/>
</g>
</svg>
